<?xml version="1.0" standalone="no"?>
<!DOCTYPE svg PUBLIC "-//W3C//DTD SVG 1.1//EN" "http://www.w3.org/Graphics/SVG/1.1/DTD/svg11.dtd" >
<svg xmlns="http://www.w3.org/2000/svg">
<metadata>
Created by FontPrep 20130207 at Sun Feb 14 17:20:44 2016
 By stephen RICHARD
Copyright(c) 2007 Linotype GmbH, www.linotype.com. All rights reserved.
</metadata>
<defs>
<font id="9fe9e58f48462802eb2f273b6706b444" horiz-adv-x='1024' >
  <font-face 
    font-family="Avenir-LightOblique"
    font-weight="300"
    font-style="oblique"
    font-stretch="normal"
    units-per-em="2048"
    panose-1="2 11 4 2 2 2 3 9 2 4"
    ascent="1638"
    descent="-410"
    x-height="946"
    cap-height="1450"
    bbox="-342 -512 2126 1917"
    underline-thickness="102"
    underline-position="-102"
    slope="-8"
    unicode-range="U+000D-FB02"
  />
<missing-glyph horiz-adv-x="1048" 
d="M1049 1470v-1470h-1049v1470h1049zM946 102v1264h-844v-1264h844zM680 971q0 74 -46 124t-109.5 50t-109.5 -45t-59 -150l-102 17q14 147 90 213.5t186.5 66.5t182 -72.5t71.5 -195.5q0 -66 -25.5 -120t-102.5 -124q-77 -69 -89 -109t-12 -147h-94l-4 35q0 115 27 167
t94 120q66 61 84 97t18 73zM455 240v137h114v-137h-114z" />
    <glyph glyph-name=".notdef" horiz-adv-x="1048" 
d="M1049 1470v-1470h-1049v1470h1049zM946 102v1264h-844v-1264h844zM680 971q0 74 -46 124t-109.5 50t-109.5 -45t-59 -150l-102 17q14 147 90 213.5t186.5 66.5t182 -72.5t71.5 -195.5q0 -66 -25.5 -120t-102.5 -124q-77 -69 -89 -109t-12 -147h-94l-4 35q0 115 27 167
t94 120q66 61 84 97t18 73zM455 240v137h114v-137h-114z" />
    <glyph glyph-name=".null" horiz-adv-x="0" 
 />
    <glyph glyph-name="nonmarkingreturn" unicode="&#xd;" horiz-adv-x="0" 
 />
    <glyph glyph-name="space" unicode=" " horiz-adv-x="532" 
 />
    <glyph glyph-name="exclam" unicode="!" horiz-adv-x="757" 
d="M403 184q41 0 66 -28.5t19 -69.5t-38 -69.5t-73 -28.5t-65.5 28.5t-20.5 69.5q6 41 38.5 69.5t73.5 28.5zM494 381h-123l149 1069h123z" />
    <glyph glyph-name="quotedbl" unicode="&#x22;" horiz-adv-x="1064" 
d="M815 1450h123l-66 -467h-122zM532 1450h123l-65 -467h-123z" />
    <glyph glyph-name="numbersign" unicode="#" horiz-adv-x="1064" 
d="M819 887h-282l-88 -320h282zM313 469h-221l12 98h236l90 320h-221l14 98h236l127 465h106l-129 -465h285l129 465h106l-129 -465h222l-15 -98h-235l-88 -320h221l-12 -98h-236l-127 -469h-106l127 469h-285l-127 -469h-107z" />
    <glyph glyph-name="dollar" unicode="$" horiz-adv-x="1064" 
d="M473 -25q-180 0 -265 81t-114 134l127 80q37 -84 108.5 -132t157.5 -52l84 594l-137 53q-127 48 -163.5 144.5t-24.5 190.5q22 172 154.5 282t283.5 125l18 137h99l-19 -137q117 0 178.5 -28t101.5 -63.5t73 -91.5l-123 -82q-39 74 -105.5 114t-140.5 40l-82 -578
l137 -49q169 -63 196 -173.5t15 -195.5q-23 -165 -158.5 -274t-302.5 -119l-20 -137h-98zM668 1364q-166 -27 -221.5 -123.5t-63.5 -152.5q-15 -101 30.5 -160t145.5 -97l33 -12zM586 86q116 4 204.5 86.5t108.5 206.5q21 166 -151 231l-82 33z" />
    <glyph glyph-name="percent" unicode="%" horiz-adv-x="1669" 
d="M1249 86q49 0 96.5 18.5t85 51t63.5 76.5t32 95.5t-6.5 95.5t-40 76.5t-69.5 51t-91 18.5t-96 -18.5t-85 -51t-63.5 -76.5t-32 -95.5t6 -95.5t40 -76.5t69.5 -51t91 -18.5zM1333.5 680q73.5 0 133 -27.5t101.5 -76t60.5 -112t8 -137t-47.5 -137t-91 -111.5t-121.5 -76
t-141.5 -28t-133.5 28t-101.5 76t-60 111.5t-8 137t47 137t91 112t122 76t141.5 27.5zM827 1124q14 103 -45.5 171.5t-161 68.5t-182 -71t-94.5 -170t46.5 -170.5t162 -71.5t181 70t93.5 173zM637 1475q74 0 133 -28t101 -76t60.5 -111.5t8.5 -137t-47 -137t-92.5 -112
t-123 -76t-141 -27.5t-133 27.5t-100.5 76t-59.5 112t-8 137t47 137t91 111.5t122 76t141.5 28zM1470 1520l86 -58l-1150 -1532l-84 58z" />
    <glyph glyph-name="ampersand" unicode="&#x26;" horiz-adv-x="1441" 
d="M588 86q203 0 387 223l-344 418q-142 -78 -225 -153.5t-100 -195.5q-16 -120 65 -206t217 -86zM820 1364q-89 0 -161 -57t-87 -149t42.5 -172.5t75.5 -106.5q45 23 96.5 49t124 83.5t85.5 150.5t-37 147.5t-139 54.5zM846 1487q136 0 221.5 -86t65.5 -221
q-25 -192 -168.5 -272.5t-208.5 -112.5l299 -373l262 377h139l-326 -463l281 -346h-182l-185 233q-104 -119 -219.5 -189.5t-286.5 -70.5t-281 117t-82 316q29 199 176 288.5t214 128.5q-70 104 -121 219.5t34.5 250.5t192.5 169.5t175 34.5z" />
    <glyph glyph-name="quotesingle" unicode="'" horiz-adv-x="532" 
d="M408 1450h122l-65 -467h-123z" />
    <glyph glyph-name="parenleft" unicode="(" horiz-adv-x="532" 
d="M709 1434q-151 -158 -277.5 -447t-122 -606.5t161.5 -638.5l-104 -61q-175 300 -181 664.5t129.5 664t296.5 489.5z" />
    <glyph glyph-name="parenright" unicode=")" horiz-adv-x="532" 
d="M-10 -254q227 244 347.5 665t28.5 673.5t-141 353.5l105 61q111 -191 155 -430t10 -481t-141.5 -479.5t-269.5 -427.5z" />
    <glyph glyph-name="asterisk" unicode="*" horiz-adv-x="909" 
d="M666 1139l307 98l18 -98l-309 -97l152 -249l-84 -60l-158 256l-217 -256l-74 60l221 249l-284 103l41 92l288 -98l43 311h99z" />
    <glyph glyph-name="plus" unicode="+" horiz-adv-x="1363" 
d="M252 670h473l68 473h98l-68 -473h473l-12 -99h-473l-68 -473h-98l68 473h-473z" />
    <glyph glyph-name="comma" unicode="," horiz-adv-x="532" 
d="M262 184h144l-224 -467h-121z" />
    <glyph glyph-name="hyphen" unicode="-" horiz-adv-x="681" 
d="M164 541h506l-17 -111h-506z" />
    <glyph glyph-name="period" unicode="." horiz-adv-x="532" 
d="M291 184q41 0 65.5 -28.5t19.5 -69.5t-38 -69.5t-74 -28.5t-65.5 28.5t-20.5 69.5q6 41 39 69.5t74 28.5z" />
    <glyph glyph-name="slash" unicode="/" horiz-adv-x="757" 
d="M854 1524l102 -37l-841 -1561l-103 37z" />
    <glyph glyph-name="zero" unicode="0" horiz-adv-x="1064" 
d="M542 86q77 0 137 32t166.5 152t142 536.5t-76.5 487t-188 70.5t-136.5 -32t-123 -104t-116.5 -242t-77.5 -465t86 -365t186.5 -70zM598 1475q329 0 420 -113.5t109.5 -319t-62.5 -561.5t-257.5 -431t-279 -75t-172 34t-164 152t-38.5 564q115 750 444 750z" />
    <glyph glyph-name="one" unicode="1" horiz-adv-x="1064" 
d="M713 1278h-2l-293 -215l-62 94l400 293h104l-203 -1450h-122z" />
    <glyph glyph-name="two" unicode="2" horiz-adv-x="1064" 
d="M743 1364q-119 0 -205.5 -65.5t-123.5 -172.5l-142 15q59 168 189.5 251t299.5 83t278.5 -100t84.5 -271q-31 -215 -170 -343t-202 -186l-519 -464h762l-14 -111h-897l18 143l627 576q110 99 178 186.5t83 201.5t-56.5 185.5t-190.5 71.5z" />
    <glyph glyph-name="three" unicode="3" horiz-adv-x="1064" 
d="M258 303q56 -217 253 -217q176 0 272 87t118 232t-80.5 220t-259.5 75h-53l16 123h62q209 0 280.5 100.5t81.5 174.5q16 117 -46 191.5t-168 74.5q-200 0 -316 -170l-107 66q145 215 422 215q172 0 273.5 -96t76.5 -277q-16 -119 -95 -210t-210 -126v-4
q133 -23 204.5 -126.5t51.5 -244.5q-25 -182 -158.5 -299t-347.5 -117q-337 0 -409 285z" />
    <glyph glyph-name="four" unicode="4" horiz-adv-x="1064" 
d="M858 1315h-4l-631 -848h516zM723 356h-627l21 146l712 948h170l-137 -983h221l-16 -111h-221l-49 -356h-123z" />
    <glyph glyph-name="five" unicode="5" horiz-adv-x="1064" 
d="M644 920q219 0 323.5 -140t74.5 -349q-30 -210 -191 -333t-329 -123q-315 0 -407 246l135 64q24 -83 102.5 -141t184 -58t226 93t141.5 252q21 158 -66.5 268t-239.5 110t-305 -98l117 739h716l-16 -111h-598l-70 -460q83 41 202 41z" />
    <glyph glyph-name="six" unicode="6" horiz-adv-x="1064" 
d="M384 667q-112 -99 -132 -247t60 -241t230.5 -93t260 94.5t129.5 240.5t-66.5 245.5t-228.5 99.5q-141 0 -253 -99zM706 872q74 0 151 -34.5t155.5 -128t52.5 -286.5q-26 -194 -179 -321t-358.5 -127t-323 129t-87.5 322q16 115 73.5 207t110.5 164l485 653h156l-485 -639
h4q81 61 245 61z" />
    <glyph glyph-name="seven" unicode="7" horiz-adv-x="1064" 
d="M1094 1339l-764 -1339h-137l774 1339h-697l17 111h823z" />
    <glyph glyph-name="eight" unicode="8" horiz-adv-x="1064" 
d="M900 406q20 138 -57.5 226.5t-211.5 88.5t-236 -89.5t-121 -224.5q-20 -135 54.5 -228t213.5 -93t238.5 91t119.5 229zM846.5 908q85.5 77 101.5 194t-48 189.5t-177 72.5t-198 -74t-101 -190q-16 -115 48 -192t177 -77q112 0 197.5 77zM1008 1368.5
q100 -106.5 75 -270.5q-12 -103 -91 -197t-185 -123v-2q128 -26 187 -129.5t43 -222.5q-15 -119 -60 -198t-112.5 -134t-153.5 -86t-231 -31t-256.5 118t-84.5 310q16 131 108.5 239t227.5 134v2q-99 27 -148.5 120.5t-37.5 188.5t52 164.5t135 146.5t263.5 77t268.5 -106.5
z" />
    <glyph glyph-name="nine" unicode="9" horiz-adv-x="1064" 
d="M883 784q114 100 133 245q20 145 -59.5 240t-232 95t-260.5 -95t-128 -242t65 -245t226 -98q142 0 256 100zM560 578q-74 0 -151 34.5t-155.5 128.5t-51.5 288q27 193 180 319.5t358.5 126.5t322 -128t88.5 -323q-20 -143 -90 -238.5t-96 -132.5l-484 -653h-155l483 639
h-4q-81 -61 -245 -61z" />
    <glyph glyph-name="colon" unicode=":" horiz-adv-x="532" 
d="M291 184q41 0 65.5 -28.5t19.5 -69.5t-38 -69.5t-74 -28.5t-65.5 28.5t-20.5 69.5q6 41 39 69.5t74 28.5zM399 958q41 0 65.5 -28.5t19.5 -69.5t-37.5 -69.5t-73.5 -28.5t-65.5 28.5t-18.5 69.5q4 41 36.5 69.5t73.5 28.5z" />
    <glyph glyph-name="semicolon" unicode=";" horiz-adv-x="532" 
d="M399 958q41 0 65.5 -28.5t19.5 -69.5t-37.5 -69.5t-73.5 -28.5t-65.5 28.5t-18.5 69.5q4 41 36.5 69.5t73.5 28.5zM262 184h144l-224 -467h-121z" />
    <glyph glyph-name="less" unicode="&#x3c;" horiz-adv-x="1363" 
d="M1341 1047l-976 -426l858 -426l-15 -103l-960 479l12 99l1096 479z" />
    <glyph glyph-name="equal" unicode="=" horiz-adv-x="1363" 
d="M231 522h1045l-12 -98h-1045zM274 817h1045l-14 -98h-1045z" />
    <glyph glyph-name="greater" unicode="&#x3e;" horiz-adv-x="1363" 
d="M195 195l976 426l-858 426l15 102l960 -479l-12 -99l-1096 -479z" />
    <glyph glyph-name="question" unicode="?" horiz-adv-x="948" 
d="M506 184q41 0 65.5 -28.5t19.5 -69.5t-38 -69.5t-74 -28.5t-65.5 28.5t-20.5 69.5q6 41 39 69.5t74 28.5zM692 1376q-111 0 -189.5 -65.5t-113.5 -171.5l-131 16q49 154 169.5 243t280.5 89t253 -93.5t71 -248.5t-94 -230t-120 -113t-117.5 -103t-88.5 -187l-18 -131
h-123l23 172q17 118 86 185t115 104t114.5 105.5t85.5 180.5q16 111 -38 179.5t-165 68.5z" />
    <glyph glyph-name="at" unicode="@" horiz-adv-x="1638" 
d="M1168 379q44 0 108.5 45t160.5 160.5t122 287.5q31 225 -123.5 371t-388.5 146q-139 0 -266.5 -54.5t-227.5 -145.5t-167 -211t-85 -254t15.5 -255t110.5 -212t189 -143.5t218 -52.5q181 0 336 77t251 194h119q-113 -165 -302.5 -267t-371.5 -102t-315 59.5t-220 163
t-125 242.5t-15.5 299t101.5 298t196.5 241.5t264 162t300.5 58.5q303 0 478.5 -175.5t138.5 -431.5t-165.5 -388t-220.5 -178t-162 -46q-145 0 -125 138h-4q-47 -51 -124.5 -94.5t-152.5 -43.5q-139 0 -199.5 87.5t-42.5 203.5q36 242 196.5 423t371.5 181q68 0 123.5 -38
t71.5 -132h4l68 131h123l-283 -594q-33 -70 -36 -92t4 -40.5t51 -18.5zM742 379q139 0 265 157.5t148 307.5q30 209 -135 209q-146 0 -272 -159.5t-148 -320.5q-12 -86 27 -140t115 -54z" />
    <glyph glyph-name="A" unicode="A" horiz-adv-x="1402" 
d="M889 1303l-451 -795h666zM846 1450h139l408 -1450h-152l-104 385h-768l-217 -385h-142z" />
    <glyph glyph-name="B" unicode="B" horiz-adv-x="1290" 
d="M659 123q213 0 302 85t104 179q25 163 -66.5 238t-236.5 75h-330l-82 -577h309zM729 823q187 0 273 77.5t96 159.5q18 150 -58 208.5t-221 58.5h-299l-71 -504h280zM819 1450q206 0 324.5 -80.5t89.5 -302.5q-16 -111 -93 -192.5t-210 -108.5v-4q143 -12 217.5 -107.5
t55.5 -234.5t-123 -279.5t-418 -140.5h-463l202 1450h418z" />
    <glyph glyph-name="C" unicode="C" horiz-adv-x="1441" 
d="M1423 227q-230 -264 -568 -264t-517 213.5t-131 547.5t288 548.5t565 214.5t470 -227l-123 -93q-53 100 -153.5 148.5t-225.5 48.5t-245.5 -49t-213 -135t-152 -203t-87 -323t114.5 -387t419 -181q187 0 300.5 83t160.5 142z" />
    <glyph glyph-name="D" unicode="D" horiz-adv-x="1517" 
d="M610 123q303 0 514 150t254 449.5t-124.5 452t-473.5 152.5h-278l-170 -1204h278zM831 1450q341 0 495 -145t180 -308.5t5.5 -284t-154.5 -416.5t-728 -296h-449l203 1450h448z" />
    <glyph glyph-name="E" unicode="E" horiz-adv-x="1214" 
d="M401 1450h887l-16 -123h-752l-74 -516h705l-16 -123h-705l-80 -565h785l-17 -123h-919z" />
    <glyph glyph-name="F" unicode="F" horiz-adv-x="1138" 
d="M401 1450h869l-17 -123h-733l-74 -516h682l-16 -123h-682l-96 -688h-135z" />
    <glyph glyph-name="G" unicode="G" horiz-adv-x="1593" 
d="M1061 1487q326 0 495 -201l-112 -102q-92 124 -216 152t-184 28q-277 0 -472 -181.5t-232 -458t105 -457.5t410 -181q269 0 427 86l70 487h-348l16 123h483l-96 -688q-249 -131 -571 -131q-154 0 -284 56.5t-261.5 213.5t-83.5 491t288 548.5t566 214.5z" />
    <glyph glyph-name="H" unicode="H" horiz-adv-x="1478" 
d="M401 1450h136l-91 -639h811l91 639h135l-203 -1450h-135l96 688h-811l-96 -688h-135z" />
    <glyph glyph-name="I" unicode="I" horiz-adv-x="532" 
d="M401 1450h136l-203 -1450h-135z" />
    <glyph glyph-name="J" unicode="J" horiz-adv-x="987" 
d="M376 -37q-150 0 -232.5 81t-94.5 216l139 25q20 -199 218 -199t244 121t57 186l149 1057h135l-143 -1024q-10 -66 -30.5 -145.5t-70 -150.5t-135.5 -119t-236 -48z" />
    <glyph glyph-name="K" unicode="K" horiz-adv-x="1251" 
d="M401 1450h136l-91 -639h13l792 639h187l-828 -664l666 -786h-195l-630 750h-13l-104 -750h-135z" />
    <glyph glyph-name="L" unicode="L" horiz-adv-x="1024" 
d="M401 1450h136l-187 -1327h676l-16 -123h-811z" />
    <glyph glyph-name="M" unicode="M" horiz-adv-x="1820" 
d="M387 1450h203l358 -1217l699 1217h192l-203 -1450h-135l178 1278h-4l-731 -1278h-59l-383 1278h-4l-179 -1278h-135z" />
    <glyph glyph-name="N" unicode="N" horiz-adv-x="1593" 
d="M401 1450h174l705 -1270h4l178 1270h135l-202 -1450h-174l-705 1270h-4l-178 -1270h-135z" />
    <glyph glyph-name="O" unicode="O" horiz-adv-x="1708" 
d="M864.5 86q141.5 0 262 49t213 135t151.5 203t77.5 252t-7 252t-93 203t-175 135t-249 49t-262 -49t-213 -135t-152 -203t-77.5 -252t8.5 -252t94 -203t174 -135t248 -49zM982 1487q247 0 377 -57.5t262 -217t85 -490.5q-48 -331 -287.5 -545t-570.5 -214t-510 213.5
t-131 547.5t288 548.5t487 214.5z" />
    <glyph glyph-name="P" unicode="P" horiz-adv-x="1175" 
d="M754 811q207 0 270.5 92t73.5 163q19 130 -64.5 195.5t-214.5 65.5h-299l-74 -516h308zM819 1450q309 0 369.5 -135t45.5 -241q-28 -194 -167 -290t-324 -96h-313l-96 -688h-135l202 1450h418z" />
    <glyph glyph-name="Q" unicode="Q" horiz-adv-x="1708" 
d="M1324 304q181 181 219 446t-99.5 439.5t-414 174.5t-462.5 -175.5t-223 -440.5q-37 -266 113.5 -445.5t418.5 -179.5q267 0 448 181zM866 0q-310 0 -453 150.5t-186 287.5t-21 300t94.5 299.5t182 235.5t254 156.5t312.5 57.5t296 -57.5t252.5 -210.5t81.5 -476
q-28 -195 -152.5 -373t-297.5 -243v-4h452l-16 -123h-799z" />
    <glyph glyph-name="R" unicode="R" horiz-adv-x="1214" 
d="M782 1450q283 0 384 -103.5t78 -283.5q-41 -312 -423 -367l326 -696h-154l-311 688h-252l-96 -688h-135l202 1450h381zM733 811q191 0 276 79t106 210.5t-90.5 179t-217.5 47.5h-287l-74 -516h287z" />
    <glyph glyph-name="S" unicode="S" horiz-adv-x="1138" 
d="M821 1487q258 0 369 -182l-129 -84q-81 143 -262 143q-138 0 -242 -71t-123 -203q-29 -200 116.5 -248.5t265 -87t206 -119t59.5 -266.5t-174 -296t-334 -110q-315 0 -440 219l141 86q81 -182 306 -182q138 0 242.5 79t122.5 211q19 132 -57.5 182t-141 72.5t-183 62.5
t-204 125.5t-59.5 270.5t176.5 291.5t344.5 106.5z" />
    <glyph glyph-name="T" unicode="T" horiz-adv-x="1175" 
d="M707 1327h-496l16 123h1127l-17 -123h-495l-187 -1327h-135z" />
    <glyph glyph-name="U" unicode="U" horiz-adv-x="1400" 
d="M630.5 -37q-211.5 0 -315 166t-65.5 426l125 895h135l-121 -860q-65 -504 242 -504t411.5 150.5t133.5 353.5l120 860h136l-125 -895q-56 -407 -260.5 -499.5t-416 -92.5z" />
    <glyph glyph-name="V" unicode="V" horiz-adv-x="1214" 
d="M197 1450h145l289 -1272l649 1272h143l-753 -1450h-135z" />
    <glyph glyph-name="W" unicode="W" horiz-adv-x="1933" 
d="M213 1450h139l180 -1284h5l546 1284h172l187 -1284h4l541 1284h139l-625 -1450h-166l-186 1290h-4l-547 -1290h-166z" />
    <glyph glyph-name="X" unicode="X" horiz-adv-x="1251" 
d="M653 762l-399 688h160l336 -590l493 590h162l-588 -688l432 -762h-168l-368 655l-549 -655h-162z" />
    <glyph glyph-name="Y" unicode="Y" horiz-adv-x="1175" 
d="M606 625l-416 825h162l342 -688l545 688h152l-650 -825l-86 -625h-135z" />
    <glyph glyph-name="Z" unicode="Z" horiz-adv-x="1138" 
d="M61 106l1020 1221h-835l16 123h1010l-17 -111l-1024 -1216h877l-16 -123h-1045z" />
    <glyph glyph-name="bracketleft" unicode="[" horiz-adv-x="532" 
d="M655 1401h-184l-229 -1622h184l-12 -98h-308l254 1818h308z" />
    <glyph glyph-name="backslash" unicode="\" horiz-adv-x="757" 
d="M733 -37l-115 -37l-399 1561l111 37z" />
    <glyph glyph-name="bracketright" unicode="]" horiz-adv-x="532" 
d="M41 -221h184l230 1622h-185l13 98h307l-254 -1818h-307z" />
    <glyph glyph-name="asciicircum" unicode="^" horiz-adv-x="1363" 
d="M838 1450h94l336 -926h-115l-285 815l-512 -815h-116z" />
    <glyph glyph-name="underscore" unicode="_" horiz-adv-x="1024" 
d="M-20 -154h1021l-14 -102h-1022z" />
    <glyph glyph-name="grave" unicode="`" 
d="M526 1155h-102l-234 295h164z" />
    <glyph glyph-name="a" unicode="a" horiz-adv-x="1062" 
d="M719 475q-277 0 -354.5 -75.5t-84.5 -127.5q-12 -93 46.5 -139.5t149.5 -46.5q171 0 261.5 94t108.5 232l8 63h-135zM807 154q-129 -179 -327 -179q-167 0 -255.5 70t-68.5 211q14 109 79.5 172.5t175 104t314.5 40.5h143l9 58q16 123 -51.5 176t-182.5 53
q-166 0 -305 -106l-59 84q78 66 182 99.5t196 33.5q172 0 263.5 -81t66.5 -261l-33 -232q-36 -252 -36 -397h-115q-4 71 8 154h-4z" />
    <glyph glyph-name="b" unicode="b" horiz-adv-x="1251" 
d="M1021 747.5q-88 112.5 -256 112.5q-169 0 -297.5 -112.5t-153.5 -273.5t74 -274.5t267 -113.5q167 0 285 110.5t143.5 274.5t-62.5 276.5zM806 971q81 0 167 -37t174.5 -139.5t57.5 -321.5t-190.5 -358.5t-358.5 -139.5t-274 71t-95 120h-4l-23 -166h-123l217 1548h123
l-108 -768h4q136 191 433 191z" />
    <glyph glyph-name="c" unicode="c" horiz-adv-x="985" 
d="M176 473q27 213 187 355.5t373 142.5t337 -164l-108 -74q-101 127 -236 127q-167 0 -286 -110.5t-144 -275.5t62.5 -276.5t247.5 -111.5t282 131l84 -78q-160 -164 -375 -164t-335.5 141.5t-88.5 356.5z" />
    <glyph glyph-name="d" unicode="d" horiz-adv-x="1251" 
d="M728 860q-166 0 -285 -110.5t-144 -275.5t62.5 -276.5t255.5 -111.5q169 0 298.5 112.5t153.5 273.5t-75 274.5t-266 113.5zM176 473q27 213 187 355.5t362 142.5t275 -71t96 -120h4l108 768h123l-217 -1548h-123l23 166h-4q-136 -191 -434 -191q-81 0 -167.5 37
t-175.5 141.5t-57 319.5z" />
    <glyph glyph-name="e" unicode="e" horiz-adv-x="1138" 
d="M682 860q-84 0 -156.5 -41t-120 -94t-71 -103.5t-25.5 -68.5h672q16 129 -65.5 218t-233.5 89zM586 -25q-215 0 -328.5 140t-83.5 355q30 216 185.5 358.5t360.5 142.5t306.5 -132.5t75.5 -310.5l-12 -86h-795q-18 -114 51.5 -235t255.5 -121q94 0 189.5 45t152.5 123
l80 -76q-164 -203 -438 -203z" />
    <glyph glyph-name="f" unicode="f" horiz-adv-x="606" 
d="M756 1573q66 0 118 -25l-40 -106q-39 20 -107 20q-168 0 -201 -252l-39 -264h222l-15 -110h-221l-117 -836h-123l117 836h-196l14 110h197l45 309q21 162 118 240t228 78z" />
    <glyph glyph-name="g" unicode="g" horiz-adv-x="1251" 
d="M741.5 860q-77.5 0 -150.5 -29.5t-131.5 -80t-97 -119t-49 -146t9 -146.5t63.5 -119t107.5 -79.5t141.5 -29.5t150.5 29.5t131 79.5t97.5 119t49 146.5t-9.5 146t-63.5 119t-107.5 80t-141 29.5zM764 971q123 0 207 -49.5t125 -135.5h4l22 160h123l-123 -885
q-44 -312 -214.5 -432.5t-366.5 -120.5q-143 0 -263 52.5t-180 146.5l111 90q51 -92 143 -135t194 -43t170 24.5t135.5 80t99 143t46.5 186.5l19 131h-4q-141 -184 -383 -184q-211 0 -339 143t-99 343.5t198 342.5t375 142z" />
    <glyph glyph-name="h" unicode="h" horiz-adv-x="1138" 
d="M776 971q84 0 149.5 -35t108.5 -111t19 -262l-78 -563h-123l78 557q43 303 -192 303q-147 0 -252 -98t-134 -289l-65 -473h-123l217 1548h123l-109 -768h4q122 191 377 191z" />
    <glyph glyph-name="i" unicode="i" 
d="M442 1413q39 0 62.5 -26.5t18.5 -65.5t-35.5 -65.5t-69.5 -26.5t-61.5 26.5t-18.5 65.5q6 39 35.5 65.5t68.5 26.5zM315 946h123l-131 -946h-123z" />
    <glyph glyph-name="j" unicode="j" 
d="M442 1413q39 0 62.5 -26.5t18.5 -65.5t-35.5 -65.5t-69.5 -26.5t-61.5 26.5t-18.5 65.5q6 39 35.5 65.5t68.5 26.5zM-12 -381q81 0 118 52.5t52 152.5l157 1122h123l-155 -1112q-21 -158 -92.5 -242t-221.5 -84q-51 0 -96 19l33 108q39 -16 82 -16z" />
    <glyph glyph-name="k" unicode="k" horiz-adv-x="985" 
d="M381 1548h123l-146 -1032l527 428h180l-547 -432l473 -512h-186l-449 500l-69 -500h-123z" />
    <glyph glyph-name="l" unicode="l" 
d="M401 1548h123l-217 -1548h-123z" />
    <glyph glyph-name="m" unicode="m" horiz-adv-x="1744" 
d="M768 971q76 0 147.5 -48.5t90.5 -156.5q59 106 155 155.5t201 49.5q195 0 258 -111t39 -297l-78 -563h-123l78 557q30 212 -45.5 257.5t-155.5 45.5q-147 0 -230 -102.5t-97 -225.5l-74 -532h-123l80 569q18 131 -18.5 211t-137.5 80q-144 0 -249 -98t-134 -289l-65 -473
h-123l94 680q9 58 14 127t13 139h123q-4 -53 -10.5 -102t-4.5 -64h6q83 130 188 160.5t181 30.5z" />
    <glyph glyph-name="n" unicode="n" horiz-adv-x="1138" 
d="M776 971q84 0 149.5 -35t108.5 -111t19 -262l-78 -563h-123l78 557q43 303 -192 303q-147 0 -252 -98t-134 -289l-65 -473h-123l94 680q9 58 14 127t13 139h123q-4 -53 -10.5 -102t-4.5 -64h6q122 191 377 191z" />
    <glyph glyph-name="o" unicode="o" horiz-adv-x="1216" 
d="M618.5 86q86.5 0 160 30.5t130 83t92 123t48 150.5t-4 150.5t-57.5 123t-106.5 83t-151.5 30.5t-159.5 -30.5t-130 -83t-92.5 -123t-48 -150.5t4 -150.5t57 -123t106.5 -83t152 -30.5zM1080.5 831.5q120.5 -139.5 89.5 -358.5t-190.5 -358.5t-377 -139.5t-338 141.5
t-90.5 355.5q29 214 189 356.5t378.5 142.5t339 -139.5z" />
    <glyph glyph-name="p" unicode="p" horiz-adv-x="1251" 
d="M1021 747.5q-88 112.5 -256 112.5q-169 0 -297.5 -112.5t-153.5 -273.5t74 -274.5t267 -113.5q167 0 285 110.5t143.5 274.5t-62.5 276.5zM806 971q81 0 167 -37t174.5 -139.5t57.5 -321.5t-190.5 -358.5t-358.5 -139.5t-274 71t-95 120h-4l-90 -633h-123l198 1413h123
l-22 -166h4q136 191 433 191z" />
    <glyph glyph-name="q" unicode="q" horiz-adv-x="1251" 
d="M728 860q-166 0 -285 -110.5t-144 -275.5t62.5 -276.5t255.5 -111.5q169 0 298.5 112.5t153.5 273.5t-75 274.5t-266 113.5zM176 473q27 213 187 355.5t362 142.5t275 -71t96 -120h4l22 166h123l-198 -1413h-123l90 633h-4q-136 -191 -434 -191q-81 0 -167.5 37
t-175.5 141.5t-57 319.5z" />
    <glyph glyph-name="r" unicode="r" horiz-adv-x="681" 
d="M721 971q33 0 70 -10l-31 -121q-23 8 -74 8t-171 -50t-157 -282l-71 -516h-123l94 680q9 58 14 127t13 139h123q-4 -53 -10.5 -102t-4.5 -64q134 191 328 191z" />
    <glyph glyph-name="s" unicode="s" horiz-adv-x="872" 
d="M743 727q-55 133 -177 133q-97 0 -166 -39.5t-83 -111.5q-8 -63 29 -94t97.5 -48.5t131 -30t129 -40t92 -79t22.5 -137.5q-19 -148 -129 -226.5t-244 -78.5q-284 0 -365 193l119 74q29 -76 98 -116t131 -40q105 0 179 49t82 111q9 63 -10.5 93t-56 48.5t-85 30.5
t-138.5 32.5t-157.5 75t-48.5 178.5q19 125 126.5 196t229.5 71q247 0 315 -178z" />
    <glyph glyph-name="t" unicode="t" horiz-adv-x="681" 
d="M501 86q65 0 142 33l-6 -111q-96 -33 -163 -33q-126 0 -176.5 68t-33.5 176l86 617h-205l15 110h205l38 273h123l-39 -273h271l-15 -110h-270l-86 -617q-10 -63 19.5 -98t94.5 -35z" />
    <glyph glyph-name="u" unicode="u" horiz-adv-x="1138" 
d="M860 166q-122 -191 -377 -191q-84 0 -149.5 35t-108 111t-18.5 262l78 563h123l-78 -557q-42 -303 192 -303q148 0 253 99.5t132 287.5l66 473h123l-95 -680q-9 -58 -15.5 -142t-10.5 -124h-123l14 166h-6z" />
    <glyph glyph-name="v" unicode="v" horiz-adv-x="948" 
d="M162 946h139l203 -813l420 813h125l-504 -946h-127z" />
    <glyph glyph-name="w" unicode="w" horiz-adv-x="1441" 
d="M162 946h135l119 -792h4l375 792h116l170 -792h4l334 792h123l-409 -946h-127l-175 774h-4l-372 -774h-127z" />
    <glyph glyph-name="x" unicode="x" horiz-adv-x="985" 
d="M477 512l-278 434h157l213 -358l310 358h153l-393 -434l334 -512h-160l-270 428l-383 -428h-148z" />
    <glyph glyph-name="y" unicode="y" horiz-adv-x="948" 
d="M116 -381q105 0 181 158l117 219l-252 950h137l203 -796l416 796h131l-662 -1239q-102 -199 -287 -199q-54 0 -116 19l26 115q72 -23 106 -23z" />
    <glyph glyph-name="z" unicode="z" horiz-adv-x="872" 
d="M66 74l673 762h-538l14 110h709l-11 -74l-671 -761h589l-14 -111h-762z" />
    <glyph glyph-name="braceleft" unicode="{" horiz-adv-x="681" 
d="M711 1401q-111 0 -142 -201l-41 -289q-17 -139 -82.5 -221t-105.5 -98v-4q78 -59 94.5 -149.5t3.5 -170.5l-41 -291q-21 -131 16.5 -164.5t67.5 -33.5h47l-12 -98h-102q-86 0 -124 66.5t-22 180.5l41 299q20 144 6 202t-37.5 85t-66.5 27l12 98q118 0 149 128t40 187
l41 297q16 117 72.5 182.5t142.5 65.5h102l-12 -98h-47z" />
    <glyph glyph-name="bar" unicode="|" horiz-adv-x="454" 
d="M492 1536l-289 -2048h-99l289 2048h99z" />
    <glyph glyph-name="braceright" unicode="}" horiz-adv-x="681" 
d="M135 -221q110 0 141 201l41 288q17 137 82 220t107 100v4q-76 46 -93.5 142.5t-4.5 176.5l41 291q21 131 -16.5 165t-67.5 34h-48l13 98h102q86 0 124 -66.5t22 -181.5l-41 -299q-20 -144 -6 -202t37.5 -84.5t66.5 -26.5l-12 -98q-147 0 -189 -316l-41 -297
q-16 -117 -72.5 -182t-142.5 -65h-102l12 98h47z" />
    <glyph glyph-name="asciitilde" unicode="~" horiz-adv-x="1363" 
d="M964 496q-54 0 -111.5 24.5t-153.5 69.5t-154 45q-57 0 -105.5 -43t-89.5 -96l-61 65q112 184 282 184q57 0 114.5 -24.5t151.5 -69.5t153 -45q58 0 106.5 43t91.5 96l59 -65q-58 -89 -101.5 -121.5t-85.5 -47.5t-96 -15z" />
    <glyph glyph-name="uni00A0" unicode="&#xa0;" horiz-adv-x="532" 
 />
    <glyph glyph-name="exclamdown" unicode="&#xa1;" horiz-adv-x="757" 
d="M491.5 811q-40.5 0 -65.5 28.5t-18.5 69.5t39 70t73.5 29t65.5 -29t18.5 -70t-39 -69.5t-73.5 -28.5zM403 614h123l-151 -1069h-123z" />
    <glyph glyph-name="cent" unicode="&#xa2;" horiz-adv-x="1064" 
d="M633 86q137 7 256 131l84 -78q-152 -158 -355 -164l-20 -141h-98l20 148q-183 24 -277.5 163.5t-68.5 331.5t161 327t324 161l21 147h98l-20 -145q197 -4 313 -160l-108 -74q-87 112 -222 123zM643 854q-139 -19 -233 -127t-114.5 -247.5t46 -247t195.5 -136.5z" />
    <glyph glyph-name="sterling" unicode="&#xa3;" horiz-adv-x="1064" 
d="M971 1475q162 0 276 -115l-96 -98q-88 102 -215 102t-213.5 -93t-104.5 -206l-36 -254h338l-15 -111h-338l-84 -589h502l-14 -111h-852l14 111h215l84 589h-194l14 111h194l35 240q18 158 144.5 291t345.5 133z" />
    <glyph glyph-name="currency" unicode="&#xa4;" horiz-adv-x="1064" 
d="M577.5 332q79.5 0 154.5 30.5t134.5 84t100.5 125t53 153.5t-9.5 153.5t-66.5 125t-110.5 84t-145.5 30.5t-154.5 -30.5t-134 -84t-100.5 -125t-53.5 -153.5t9 -153.5t67 -125t111 -84t145 -30.5zM706 1229q179 0 300 -109l133 115l59 -76l-133 -112q106 -137 80 -321
q-26 -185 -170 -323l100 -112l-80 -76l-100 115q-156 -109 -336 -109t-299 109l-133 -115l-59 76l133 112q-102 131 -78 322q29 190 168 322l-101 112l80 76l101 -115q156 109 335 109z" />
    <glyph glyph-name="yen" unicode="&#xa5;" horiz-adv-x="1064" 
d="M516 369h-348l14 98h348l21 158l-12 32h-330l12 99h275l-293 694h139l295 -705l498 705h133l-490 -694h275l-13 -99h-329l-25 -32l-20 -158h348l-15 -98h-348l-51 -369h-135z" />
    <glyph glyph-name="brokenbar" unicode="&#xa6;" horiz-adv-x="454" 
d="M326 358l-101 -716h-98l100 716h99zM469 1382l-100 -716h-99l101 716h98z" />
    <glyph glyph-name="section" unicode="&#xa7;" horiz-adv-x="1064" 
d="M498 -172q99 0 181 53.5t93 134.5q10 81 -28.5 126.5t-101 81.5t-137.5 70t-136.5 80t-99 108t-25.5 136t35.5 115t71.5 86.5t153 85.5q-156 103 -134 254q23 156 150 242t291 86t219 -70.5t68 -122.5l-127 -69q-40 139 -197 139q-97 0 -174.5 -51.5t-90.5 -132.5
t24.5 -124.5t98 -79.5t235.5 -117.5t147 -289.5q-26 -172 -221 -270q61 -41 95 -105.5t22 -146.5q-22 -156 -147.5 -249t-281.5 -93q-206 0 -275 91t-83 155l133 61q46 -184 242 -184zM692 358q108 52 163.5 138t6 155.5t-109.5 104.5l-142 84q-139 -40 -179 -97t-48 -117
t26.5 -96t88.5 -65z" />
    <glyph glyph-name="dieresis" unicode="&#xa8;" 
d="M641 1434q41 0 65.5 -29t18.5 -70t-39 -69.5t-74 -28.5t-65.5 28.5t-18 69.5t39 70t73.5 29zM252 1434q41 0 65.5 -29t18.5 -70t-39 -69.5t-74 -28.5t-65.5 28.5t-18.5 69.5t39 70t74 29z" />
    <glyph glyph-name="copyright" unicode="&#xa9;" horiz-adv-x="1638" 
d="M829.5 74q135.5 0 261.5 51t226 139t167.5 207t86 254t-15 254t-109.5 207t-187.5 139t-246.5 51t-261 -51t-226.5 -139t-169 -207t-87 -254t16 -254t110.5 -207t187.5 -139t247 -51zM1028 1487q158 0 288 -60.5t219 -164t129 -241.5t17.5 -296t-101.5 -296
t-197.5 -241.5t-265 -164t-304.5 -60.5t-288 60.5t-219 164t-130 241.5t-18.5 296t102.5 296t197.5 241.5t265 164t305.5 60.5zM878 354q117 0 198.5 62.5t107.5 150.5h110q-38 -145 -155.5 -228t-266.5 -83q-206 0 -304 132.5t-69 336.5t164 336.5t341 132.5
q150 0 242.5 -82.5t92.5 -228.5h-110q-6 84 -64.5 147.5t-154.5 64.5t-161 -29t-115 -81t-81.5 -117.5t-42 -142.5t2 -143.5t48 -117.5t93.5 -80t124 -30z" />
    <glyph glyph-name="ordfeminine" unicode="&#xaa;" horiz-adv-x="690" 
d="M594 1147q-174 0 -225.5 -38t-56.5 -73t38.5 -58.5t97.5 -23.5q98 0 155 55t69 138h-78zM643 975q-81 -107 -231 -107t-177.5 60.5t-20.5 112.5q13 100 107.5 146t231.5 46h131q9 83 -20 119.5t-131 36.5t-199 -72l-43 78q111 80 257 80t200.5 -49.5t35.5 -174.5
l-22 -164q-22 -143 -19 -206h-100q-4 23 -1 45t5 49h-4z" />
    <glyph glyph-name="guillemotleft" unicode="&#xab;" horiz-adv-x="985" 
d="M537 485l337 416l78 -59l-286 -357l190 -360l-98 -55zM197 485l338 416l77 -59l-286 -357l190 -360l-98 -55z" />
    <glyph glyph-name="logicalnot" unicode="&#xac;" horiz-adv-x="1363" 
d="M1206 719h-946l14 98h1045l-78 -543h-98z" />
    <glyph glyph-name="uni00AD" unicode="&#xad;" horiz-adv-x="681" 
d="M88 541h506v-111h-506v111z" />
    <glyph glyph-name="registered" unicode="&#xae;" horiz-adv-x="1638" 
d="M829.5 74q135.5 0 261.5 51t226 139t167.5 207t86 254t-15 254t-109.5 207t-187.5 139t-246.5 51t-261 -51t-226.5 -139t-169 -207t-87 -254t16 -254t110.5 -207t187.5 -139t247 -51zM1028 1487q158 0 288 -60.5t219 -164t129 -241.5t17.5 -296t-101.5 -296
t-197.5 -241.5t-265 -164t-304.5 -60.5t-288 60.5t-219 164t-130 241.5t-18.5 296t102.5 296t197.5 241.5t265 164t305.5 60.5zM901 772q122 0 167.5 18.5t71.5 48t34 79.5q13 84 -39.5 117.5t-135.5 33.5h-196l-43 -297h141zM1044 1167q150 0 204.5 -62.5t37.5 -180.5
q-27 -209 -256 -250l207 -385h-125l-207 385h-157l-56 -385h-110l125 878h337z" />
    <glyph glyph-name="macron" unicode="&#xaf;" 
d="M690 1241h-540l12 98h540z" />
    <glyph glyph-name="degree" unicode="&#xb0;" horiz-adv-x="819" 
d="M733 1319q-49 57 -132 57t-147.5 -57.5t-75.5 -139.5q-11 -81 38 -138.5t131 -57.5t146.5 56t76.5 140q12 83 -37 140zM335.5 972.5q-76.5 87.5 -54.5 209.5q16 121 113 207t221 86t198.5 -85.5t55.5 -208.5q-19 -124 -116 -210t-219 -86t-198.5 87.5z" />
    <glyph glyph-name="plusminus" unicode="&#xb1;" horiz-adv-x="1363" 
d="M195 197h1028l-15 -99h-1028zM266 768h467l53 375h99l-54 -375h480l-15 -98h-479l-51 -375h-98l51 375h-467z" />
    <glyph glyph-name="twosuperior" unicode="&#xb2;" horiz-adv-x="692" 
d="M553 1376q-135 0 -193 -121l-104 9q61 157 168.5 184t146.5 27q119 0 189.5 -58.5t55.5 -173.5t-102 -192.5t-128 -112.5l-295 -248h450l-14 -98h-598l12 88l402 344q63 53 108 102.5t55 113.5t-30.5 100t-122.5 36z" />
    <glyph glyph-name="threesuperior" unicode="&#xb3;" horiz-adv-x="692" 
d="M434 678q72 0 136.5 47t71.5 102q12 98 -47.5 135t-160.5 37h-35l15 99h47q125 0 167 55t49 103t-31 84t-109 36q-119 0 -195 -102l-74 51q116 150 283 150q115 0 182.5 -61.5t56.5 -146.5q-12 -86 -68 -140t-130 -76l-2 -4q88 -12 131 -74.5t33 -132.5
q-18 -127 -112 -193.5t-208 -66.5t-182 42t-90 140l100 37q31 -121 172 -121z" />
    <glyph glyph-name="acute" unicode="&#xb4;" 
d="M543 1450h164l-316 -295h-102z" />
    <glyph glyph-name="mu" unicode="&#xb5;" horiz-adv-x="1138" 
d="M510 -25q-153 0 -229 78l-74 -520h-121l199 1413h123l-78 -557q-42 -303 192 -303q148 0 253 99.5t132 287.5l66 473h123l-95 -680q-9 -58 -15.5 -142t-10.5 -124h-123l14 166h-6q-84 -130 -188.5 -160.5t-161.5 -30.5z" />
    <glyph glyph-name="paragraph" unicode="&#xb6;" horiz-adv-x="1228" 
d="M782 1450h465l-239 -1708h-123l225 1610h-252l-225 -1610h-123l129 920q-178 0 -284.5 112.5t-86.5 274.5q29 195 163 298t351 103z" />
    <glyph glyph-name="periodcentered" unicode="&#xb7;" horiz-adv-x="532" 
d="M371 750q41 0 65.5 -29t18.5 -70t-39 -69.5t-74 -28.5t-65.5 28.5t-18.5 69.5t39 70t74 29z" />
    <glyph glyph-name="cedilla" unicode="&#xb8;" 
d="M419 -160q45 -39 37 -97q-14 -98 -90.5 -141.5t-172.5 -43.5t-183 43l39 65q61 -35 146 -35q132 -1 146 99q5 36 -28.5 55.5t-77.5 19.5t-90 -16l-28 31l155 180h78l-114 -131l2 -4q29 14 83 14q53 0 98 -39z" />
    <glyph glyph-name="onesuperior" unicode="&#xb9;" horiz-adv-x="692" 
d="M551 1352l-193 -135l-41 69l250 176h111l-123 -870h-111z" />
    <glyph glyph-name="ordmasculine" unicode="&#xba;" horiz-adv-x="790" 
d="M698.5 1018q75.5 64 87.5 155q12 90 -41 153t-154 63t-174 -66.5t-85 -152t42 -151t151.5 -65.5t173 64zM823.5 1391.5q81.5 -83.5 61.5 -219.5t-125 -220t-248 -84t-221 84.5t-60 216.5t119.5 219t246.5 87t226.5 -83.5z" />
    <glyph glyph-name="guillemotright" unicode="&#xbb;" horiz-adv-x="985" 
d="M924 485l-340 -415l-78 59l289 356l-191 361l96 55zM584 485l-340 -415l-78 59l289 356l-191 361l96 55z" />
    <glyph glyph-name="onequarter" unicode="&#xbc;" horiz-adv-x="1593" 
d="M1378 721h-4l-332 -414h279zM1307 209h-389l12 92l459 567h120l-77 -561h131l-15 -98h-131l-28 -209h-111zM1382 1520l86 -58l-1151 -1532l-84 58zM487 1352l-192 -135l-41 69l250 176h110l-122 -870h-111z" />
    <glyph glyph-name="onehalf" unicode="&#xbd;" horiz-adv-x="1593" 
d="M1360 784q-134 0 -193 -120l-102 8q35 104 128.5 157.5t168.5 53.5q135 0 205.5 -59t57.5 -170t-102 -192t-130 -116l-295 -248h450l-12 -98h-598l12 88l400 344q63 53 108 102.5t55 113.5t-30.5 100t-122.5 36zM1364 1520l86 -58l-1151 -1532l-84 58zM471 1352
l-192 -135l-41 69l249 176h111l-123 -870h-110z" />
    <glyph glyph-name="threequarters" unicode="&#xbe;" horiz-adv-x="1593" 
d="M1407 721h-4l-332 -414h279zM1339 209h-389l13 92l458 567h121l-78 -561h131l-14 -98h-131l-29 -209h-110zM1487 1520l86 -58l-1151 -1532l-84 58zM422 678q71 0 136 46.5t72 102.5q12 97 -47.5 134.5t-160.5 37.5h-35l14 99h48q193 12 215 158q8 48 -30 84t-110 36
q-118 0 -194 -102l-74 51q116 150 283 150q115 0 182 -60.5t56 -147.5q-11 -86 -67.5 -140t-129.5 -76l-2 -4q88 -12 131 -74.5t33 -132.5q-19 -128 -112.5 -194t-207.5 -66t-182 42t-93 140l103 37q31 -121 172 -121z" />
    <glyph glyph-name="questiondown" unicode="&#xbf;" horiz-adv-x="948" 
d="M580 811q-41 0 -66 28.5t-18.5 69.5t39 70t73.5 29t65.5 -29t18.5 -70t-38.5 -69.5t-73.5 -28.5zM394 -381q110 0 189 65.5t115 172.5l131 -17q-51 -158 -171.5 -245t-280.5 -87t-252.5 95t-71.5 248q22 154 94 229.5t121 113t119.5 105t87.5 184.5l19 131h122l-24 -172
q-17 -115 -85.5 -183.5t-180.5 -155.5t-135 -236q-17 -111 38 -179.5t165 -68.5z" />
    <glyph glyph-name="Agrave" unicode="&#xc0;" horiz-adv-x="1402" 
d="M889 1303l-451 -795h666zM846 1450h139l408 -1450h-152l-104 385h-768l-217 -385h-142zM1036 1540h-102l-234 295h164z" />
    <glyph glyph-name="Aacute" unicode="&#xc1;" horiz-adv-x="1402" 
d="M889 1303l-451 -795h666zM846 1450h139l408 -1450h-152l-104 385h-768l-217 -385h-142zM1053 1835h164l-316 -295h-102z" />
    <glyph glyph-name="Acircumflex" unicode="&#xc2;" horiz-adv-x="1402" 
d="M889 1303l-451 -795h666zM846 1450h139l408 -1450h-152l-104 385h-768l-217 -385h-142zM887 1835h143l180 -295h-133l-135 221l-197 -221h-120z" />
    <glyph glyph-name="Atilde" unicode="&#xc3;" horiz-adv-x="1402" 
d="M889 1303l-451 -795h666zM846 1450h139l408 -1450h-152l-104 385h-768l-217 -385h-142zM795 1673q-73 0 -117 -98h-74q27 93 74 139q64 68 139 70q41 0 77 -16t70 -34q34 -16 64 -32t66 -16t64 30t40 68h74q-38 -142 -128 -191q-34 -18 -74 -18t-97 25t-103 49
q-45 24 -75 24z" />
    <glyph glyph-name="Adieresis" unicode="&#xc4;" horiz-adv-x="1402" 
d="M889 1303l-451 -795h666zM846 1450h139l408 -1450h-152l-104 385h-768l-217 -385h-142zM1151 1819q41 0 66 -29t19 -70q-6 -42 -38 -70q-33 -28 -74 -28q-42 0 -66 28t-18 70q4 41 37 70t74 29zM762 1819q42 0 66 -29t19 -70q-5 -42 -38 -70t-74 -28t-65 28t-19 70
q4 41 37 70t74 29z" />
    <glyph glyph-name="Aring" unicode="&#xc5;" horiz-adv-x="1402" 
d="M889 1303l-451 -795h666zM846 1450h139l408 -1450h-152l-104 385h-768l-217 -385h-142zM958 1835q-51 0 -88 -36t-45 -87t22 -85t80 -34t87 35t45 86t-21 86t-80 35zM916 1520q-78 0 -126 57t-37 139t74 137q62 54 142 55t127 -59t35 -139t-74 -135q-63 -55 -141 -55z
" />
    <glyph glyph-name="AE" unicode="&#xc6;" horiz-adv-x="1896" 
d="M1210 1327h-24l-651 -819h559zM1137 1450h825l-16 -123h-600l-74 -516h565l-16 -123h-566l-79 -565h616l-16 -123h-752l53 385h-639l-305 -385h-143z" />
    <glyph glyph-name="Ccedilla" unicode="&#xc7;" horiz-adv-x="1441" 
d="M810 -37q-3 0 -17 2l-82 -96l2 -4q29 14 63 14q73 0 118 -39t37 -97q-14 -98 -90.5 -141.5t-172.5 -43.5t-183 43l39 65q61 -35 146 -35q132 -1 146 99q5 36 -28.5 55.5t-77.5 19.5t-89 -16l-29 31l133 153q-271 36 -416.5 243.5t-103.5 508.5q50 333 290 547.5
t565 214.5t470 -227l-123 -93q-53 100 -153.5 148.5t-225.5 48.5t-245.5 -49t-213 -135t-152 -203t-87 -323t114.5 -387t419 -181q187 0 300.5 83t160.5 142l98 -84q-230 -264 -575 -264h-38z" />
    <glyph glyph-name="Egrave" unicode="&#xc8;" horiz-adv-x="1214" 
d="M401 1450h887l-16 -123h-752l-74 -516h705l-16 -123h-705l-80 -565h785l-17 -123h-919zM942 1540h-102l-234 295h164z" />
    <glyph glyph-name="Eacute" unicode="&#xc9;" horiz-adv-x="1214" 
d="M401 1450h887l-16 -123h-752l-74 -516h705l-16 -123h-705l-80 -565h785l-17 -123h-919zM958 1835h164l-315 -295h-102z" />
    <glyph glyph-name="Ecircumflex" unicode="&#xca;" horiz-adv-x="1214" 
d="M401 1450h887l-16 -123h-752l-74 -516h705l-16 -123h-705l-80 -565h785l-17 -123h-919zM793 1835h143l180 -295h-133l-135 221l-197 -221h-121z" />
    <glyph glyph-name="Edieresis" unicode="&#xcb;" horiz-adv-x="1214" 
d="M401 1450h887l-16 -123h-752l-74 -516h705l-16 -123h-705l-80 -565h785l-17 -123h-919zM1057 1819q41 0 65 -29t20 -70q-5 -42 -38 -70t-74 -28q-42 0 -66 28t-18 70q4 41 37 70t74 29zM668 1819q42 0 66 -29t19 -70q-5 -42 -38 -70t-74 -28t-65 28t-19 70q4 41 37 70
t74 29z" />
    <glyph glyph-name="Igrave" unicode="&#xcc;" horiz-adv-x="532" 
d="M401 1450h136l-203 -1450h-135zM600 1540h-102l-234 295h164z" />
    <glyph glyph-name="Iacute" unicode="&#xcd;" horiz-adv-x="532" 
d="M401 1450h136l-203 -1450h-135zM616 1835h164l-315 -295h-103z" />
    <glyph glyph-name="Icircumflex" unicode="&#xce;" horiz-adv-x="532" 
d="M401 1450h136l-203 -1450h-135zM451 1835h143l180 -295h-133l-135 221l-197 -221h-121z" />
    <glyph glyph-name="Idieresis" unicode="&#xcf;" horiz-adv-x="532" 
d="M401 1450h136l-203 -1450h-135zM715 1819q41 0 65 -29t20 -70q-5 -42 -38 -70t-74 -28q-42 0 -66 28t-18 70q4 41 37 70t74 29zM326 1819q42 0 66 -29t19 -70q-5 -42 -38 -70t-74 -28t-65 28t-19 70q4 41 37 70t74 29z" />
    <glyph glyph-name="Eth" unicode="&#xd0;" horiz-adv-x="1517" 
d="M831 1450q341 0 495 -145t180 -308.5t5.5 -284t-154.5 -416.5t-728 -296h-449l99 700h-160l14 111h160l90 639h448zM610 123q303 0 514 150t254 449.5t-124.5 452t-473.5 152.5h-278l-74 -516h528l-14 -111h-528l-82 -577h278z" />
    <glyph glyph-name="Ntilde" unicode="&#xd1;" horiz-adv-x="1593" 
d="M401 1450h174l705 -1270h4l178 1270h135l-202 -1450h-174l-705 1270h-4l-178 -1270h-135zM889 1673q-73 0 -117 -98h-74q27 93 74 139q64 68 139 70q41 0 77 -16t70 -34q34 -16 64 -32t66 -16t64 30t40 68h74q-38 -142 -128 -191q-34 -18 -74 -18t-101 28t-103 49
q-41 21 -71 21z" />
    <glyph glyph-name="Ograve" unicode="&#xd2;" horiz-adv-x="1708" 
d="M865 86q277 0 471 181t232 460q38 278 -104 458q-142 179 -420 179t-473 -182t-231 -458q-37 -276 105 -457q143 -181 420 -181zM1063 1487q166 0 296 -57q261 -114 334 -400q36 -139 12 -305q-48 -334 -288 -548t-571 -214t-509 213t-130 548t289 549t567 214z
M1188 1540h-103l-233 295h164z" />
    <glyph glyph-name="Oacute" unicode="&#xd3;" horiz-adv-x="1708" 
d="M865 86q277 0 471 181t232 460q38 278 -104 458q-142 179 -420 179t-473 -182t-231 -458q-37 -276 105 -457q143 -181 420 -181zM1063 1487q166 0 296 -57q261 -114 334 -400q36 -139 12 -305q-48 -334 -288 -548t-571 -214t-509 213t-130 548t289 549t567 214z
M1204 1835h164l-315 -295h-103z" />
    <glyph glyph-name="Ocircumflex" unicode="&#xd4;" horiz-adv-x="1708" 
d="M865 86q277 0 471 181t232 460q38 278 -104 458q-142 179 -420 179t-473 -182t-231 -458q-37 -276 105 -457q143 -181 420 -181zM1063 1487q166 0 296 -57q261 -114 334 -400q36 -139 12 -305q-48 -334 -288 -548t-571 -214t-509 213t-130 548t289 549t567 214z
M1038 1835h144l180 -295h-133l-135 221l-197 -221h-121z" />
    <glyph glyph-name="Otilde" unicode="&#xd5;" horiz-adv-x="1708" 
d="M865 86q277 0 471 181t232 460q38 278 -104 458q-142 179 -420 179t-473 -182t-231 -458q-37 -276 105 -457q143 -181 420 -181zM1063 1487q166 0 296 -57q261 -114 334 -400q36 -139 12 -305q-48 -334 -288 -548t-571 -214t-509 213t-130 548t289 549t567 214zM946 1673
q-73 0 -117 -98h-73q27 95 73 139q64 68 129 69t156 -50q35 -15 65 -31q31 -16 67 -16t64 30t40 68h73q-39 -144 -128 -191q-33 -18 -73 -18t-102 28t-102 49q-41 21 -72 21z" />
    <glyph glyph-name="Odieresis" unicode="&#xd6;" horiz-adv-x="1708" 
d="M865 86q277 0 471 181t232 460q38 278 -104 458q-142 179 -420 179t-473 -182t-231 -458q-37 -276 105 -457q143 -181 420 -181zM1063 1487q166 0 296 -57q261 -114 334 -400q36 -139 12 -305q-48 -334 -288 -548t-571 -214t-509 213t-130 548t289 549t567 214z
M1303 1819q41 0 65 -29t20 -70q-5 -42 -38 -70t-74 -28q-42 0 -66 28t-18 70q4 41 37 70t74 29zM914 1819q40 0 65 -29t19 -70q-6 -42 -38 -70t-73 -28t-65 28t-19 70q4 41 37 70q34 29 74 29z" />
    <glyph glyph-name="multiply" unicode="&#xd7;" horiz-adv-x="1363" 
d="M780 690l465 406l58 -70l-465 -405l348 -406l-80 -70l-346 408l-465 -408l-62 70l467 406l-348 405l80 70z" />
    <glyph glyph-name="Oslash" unicode="&#xd8;" horiz-adv-x="1708" 
d="M481 227q141 -141 401 -141t454 180.5t232 453.5t-91 445zM1044 1364q-277 0 -472 -181.5t-230 -450.5t84 -437l993 936q-144 133 -375 133zM1063 1487q278 0 457 -162l176 166l59 -64l-176 -165q169 -207 124 -539t-284.5 -546t-570.5 -214q-291 0 -465 170l-178 -166
l-62 64l179 168q-163 209 -115 534t288 539.5t568 214.5z" />
    <glyph glyph-name="Ugrave" unicode="&#xd9;" horiz-adv-x="1400" 
d="M307 143q-93 149 -57 412l125 895h135l-121 -860q-65 -504 322 -504q227 0 348 174q92 131 117 330l120 860h136l-125 -895q-35 -254 -174 -412q-162 -180 -437 -180t-389 180zM1034 1540h-102l-234 295h164z" />
    <glyph glyph-name="Uacute" unicode="&#xda;" horiz-adv-x="1400" 
d="M307 143q-93 149 -57 412l125 895h135l-121 -860q-65 -504 322 -504q227 0 348 174q92 131 117 330l120 860h136l-125 -895q-35 -254 -174 -412q-162 -180 -437 -180t-389 180zM1051 1835h163l-315 -295h-102z" />
    <glyph glyph-name="Ucircumflex" unicode="&#xdb;" horiz-adv-x="1400" 
d="M307 143q-93 149 -57 412l125 895h135l-121 -860q-65 -504 322 -504q227 0 348 174q92 131 117 330l120 860h136l-125 -895q-35 -254 -174 -412q-162 -180 -437 -180t-389 180zM885 1835h143l180 -295h-133l-135 221l-197 -221h-120z" />
    <glyph glyph-name="Udieresis" unicode="&#xdc;" horiz-adv-x="1400" 
d="M307 143q-93 149 -57 412l125 895h135l-121 -860q-65 -504 322 -504q227 0 348 174q92 131 117 330l120 860h136l-125 -895q-35 -254 -174 -412q-162 -180 -437 -180t-389 180zM1149 1819q41 0 65 -29t20 -70q-5 -42 -38 -70t-74 -28q-42 0 -66 28t-18 70q4 41 37 70
t74 29zM760 1819q42 0 66 -29t19 -70q-5 -42 -38 -70t-74 -28t-65 28t-19 70q4 41 37 70t74 29z" />
    <glyph glyph-name="Yacute" unicode="&#xdd;" horiz-adv-x="1175" 
d="M606 625l-416 825h162l342 -688l545 688h152l-650 -825l-86 -625h-135zM938 1835h164l-316 -295h-102z" />
    <glyph glyph-name="Thorn" unicode="&#xde;" horiz-adv-x="1175" 
d="M709 492q207 0 270 92t73 163q19 128 -63.5 194.5t-214.5 66.5h-299l-74 -516h308zM774 1130q309 0 369.5 -135t45.5 -240q-28 -193 -167 -289.5t-324 -96.5h-313l-51 -369h-135l202 1450h134l-46 -320h285z" />
    <glyph glyph-name="germandbls" unicode="&#xdf;" horiz-adv-x="1214" 
d="M629 98q155 0 271 98t136 255q27 184 -72 280t-262 96h-43l17 111h31q123 0 210 70.5t104 196.5t-48.5 191.5t-165.5 65.5q-174 0 -257.5 -104t-113.5 -283l-149 -1075h-123l153 1094q29 214 161.5 346.5t336.5 132.5q163 0 257.5 -96.5t70.5 -270.5q-16 -121 -83 -203.5
t-163 -111.5l-2 -4q135 -25 215.5 -123.5t50.5 -313.5q-31 -215 -188 -338.5t-383 -123.5q-56 0 -96 10l18 119q48 -19 117 -19z" />
    <glyph glyph-name="agrave" unicode="&#xe0;" horiz-adv-x="1062" 
d="M719 475q-275 0 -390 -110q-42 -41 -49 -93q-18 -134 113 -175q37 -11 105 -11t137 29q182 78 211 297l8 63h-135zM807 154q-129 -179 -327 -179q-253 0 -313 152q-21 53 -9 145t78 156q66 63 174 104t315 41h143l9 58q16 123 -52 176t-182 53q-166 0 -305 -106l-59 84
q78 66 182 100t196 33q171 0 263 -81t67 -261l-33 -232q-36 -252 -36 -397h-115q-4 71 8 154h-4zM813 1155h-102l-234 295h164z" />
    <glyph glyph-name="aacute" unicode="&#xe1;" horiz-adv-x="1062" 
d="M719 475q-275 0 -390 -110q-42 -41 -49 -93q-18 -134 113 -175q37 -11 105 -11t137 29q182 78 211 297l8 63h-135zM807 154q-129 -179 -327 -179q-253 0 -313 152q-21 53 -9 145t78 156q66 63 174 104t315 41h143l9 58q16 123 -52 176t-182 53q-166 0 -305 -106l-59 84
q78 66 182 100t196 33q171 0 263 -81t67 -261l-33 -232q-36 -252 -36 -397h-115q-4 71 8 154h-4zM829 1450h164l-315 -295h-103z" />
    <glyph glyph-name="acircumflex" unicode="&#xe2;" horiz-adv-x="1062" 
d="M719 475q-275 0 -390 -110q-42 -41 -49 -93q-18 -134 113 -175q37 -11 105 -11t137 29q182 78 211 297l8 63h-135zM807 154q-129 -179 -327 -179q-253 0 -313 152q-21 53 -9 145t78 156q66 63 174 104t315 41h143l9 58q16 123 -52 176t-182 53q-166 0 -305 -106l-59 84
q78 66 182 100t196 33q171 0 263 -81t67 -261l-33 -232q-36 -252 -36 -397h-115q-4 71 8 154h-4zM664 1450h143l180 -295h-133l-135 221l-197 -221h-121z" />
    <glyph glyph-name="atilde" unicode="&#xe3;" horiz-adv-x="1062" 
d="M719 475q-275 0 -390 -110q-42 -41 -49 -93q-18 -134 113 -175q37 -11 105 -11t137 29q182 78 211 297l8 63h-135zM807 154q-129 -179 -327 -179q-253 0 -313 152q-21 53 -9 145t78 156q66 63 174 104t315 41h143l9 58q16 123 -52 176t-182 53q-166 0 -305 -106l-59 84
q78 66 182 100t196 33q171 0 263 -81t67 -261l-33 -232q-36 -252 -36 -397h-115q-4 71 8 154h-4zM571 1288q-74 0 -118 -98h-74q26 91 76 139q64 68 129 69t155 -50q91 -47 129 -47q39 -1 66 30t39 68h74q-38 -141 -127 -191q-33 -18 -74 -18t-106 29t-101 49q-37 20 -68 20
z" />
    <glyph glyph-name="adieresis" unicode="&#xe4;" horiz-adv-x="1062" 
d="M719 475q-275 0 -390 -110q-42 -41 -49 -93q-18 -134 113 -175q37 -11 105 -11t137 29q182 78 211 297l8 63h-135zM807 154q-129 -179 -327 -179q-253 0 -313 152q-21 53 -9 145t78 156q66 63 174 104t315 41h143l9 58q16 123 -52 176t-182 53q-166 0 -305 -106l-59 84
q78 66 182 100t196 33q171 0 263 -81t67 -261l-33 -232q-36 -252 -36 -397h-115q-4 71 8 154h-4zM928 1434q42 0 66 -29t18 -70t-39 -69t-74 -29q-41 1 -65 29t-19 69q6 41 39 70t74 29zM539 1434q41 0 65 -29t19 -70q-6 -41 -39 -69t-74 -29q-42 1 -66 29t-18 69t39 70
t74 29z" />
    <glyph glyph-name="aring" unicode="&#xe5;" horiz-adv-x="1062" 
d="M719 475q-275 0 -390 -110q-42 -41 -49 -93q-18 -134 113 -175q37 -11 105 -11t137 29q182 78 211 297l8 63h-135zM807 154q-129 -179 -327 -179q-253 0 -313 152q-21 53 -9 145t78 156q66 63 174 104t315 41h143l9 58q16 123 -52 176t-182 53q-166 0 -305 -106l-59 84
q78 66 182 100t196 33q171 0 263 -81t67 -261l-33 -232q-36 -252 -36 -397h-115q-4 71 8 154h-4zM735 1450q-51 0 -89 -36t-45 -87t22 -85t79 -34t88 35t46 86q6 51 -22 86t-79 35zM835 1194q-65 -59 -143 -59t-127 57t-37 139q12 81 75 136q62 55 143 56t127 -60
q73 -93 11 -208q-19 -35 -49 -61z" />
    <glyph glyph-name="ae" unicode="&#xe6;" horiz-adv-x="1744" 
d="M1355 860q-140 0 -238 -89t-116 -218h607q27 212 -75.5 259.5t-177.5 47.5zM625 442q-186 0 -268.5 -58t-88.5 -122q-12 -83 47.5 -129.5t148.5 -46.5q172 0 275 98.5t125 257.5h-239zM989 774q133 197 391 197q68 0 141.5 -25.5t155 -113.5t49.5 -318l-10 -72h-729
q-25 -155 45.5 -255.5t239.5 -100.5t287 152l86 -70q-135 -152 -243 -172.5t-173 -20.5q-273 0 -340 234q-144 -234 -449 -234q-137 0 -225.5 70t-69.5 211q26 194 189.5 245.5t308.5 51.5h236l4 18q18 139 -39.5 214t-217.5 75t-298 -106l-60 84q158 133 398 133
q110 0 197 -42t126 -155z" />
    <glyph glyph-name="ccedilla" unicode="&#xe7;" horiz-adv-x="985" 
d="M667.5 -160q45.5 -39 32.5 -108q-11 -87 -87.5 -130.5t-172.5 -43.5t-182 43l39 65q61 -35 146 -35q132 -1 146 99q5 36 -29 55.5t-78 19.5t-89 -16l-28 31l141 166q-173 28 -265.5 162t-64.5 325q27 213 187 355.5t373 142.5t337 -164l-108 -74q-101 127 -236 127
q-167 0 -286 -110.5t-144 -275.5t62.5 -276.5t247.5 -111.5t282 131l84 -78q-160 -164 -371 -164q-18 0 -29 2l-92 -108l2 -4q29 14 83 14t99.5 -39z" />
    <glyph glyph-name="egrave" unicode="&#xe8;" horiz-adv-x="1138" 
d="M981 553q17 130 -66 220q-83 89 -217 87q-175 0 -292 -135q-47 -53 -71 -103t-26 -69h672zM176 475q28 211 183 353q155 143 360 143t307 -132t76 -311l-12 -86h-795q-18 -114 41 -217q80 -139 266 -139q94 0 190 45t152 123l80 -76q-162 -201 -438 -203q-215 0 -329 141
q-114 142 -81 359zM850 1155h-102l-234 295h164z" />
    <glyph glyph-name="eacute" unicode="&#xe9;" horiz-adv-x="1138" 
d="M981 553q17 130 -66 220q-83 89 -217 87q-175 0 -292 -135q-47 -53 -71 -103t-26 -69h672zM176 475q28 211 183 353q155 143 360 143t307 -132t76 -311l-12 -86h-795q-18 -114 41 -217q80 -139 266 -139q94 0 190 45t152 123l80 -76q-162 -201 -438 -203q-215 0 -329 141
q-114 142 -81 359zM866 1450h164l-315 -295h-103z" />
    <glyph glyph-name="ecircumflex" unicode="&#xea;" horiz-adv-x="1138" 
d="M981 553q17 130 -66 220q-83 89 -217 87q-175 0 -292 -135q-47 -53 -71 -103t-26 -69h672zM176 475q28 211 183 353q155 143 360 143t307 -132t76 -311l-12 -86h-795q-18 -114 41 -217q80 -139 266 -139q94 0 190 45t152 123l80 -76q-162 -201 -438 -203q-215 0 -329 141
q-114 142 -81 359zM700 1450h144l180 -295h-133l-135 221l-197 -221h-121z" />
    <glyph glyph-name="edieresis" unicode="&#xeb;" horiz-adv-x="1138" 
d="M981 553q17 130 -66 220q-83 89 -217 87q-175 0 -292 -135q-47 -53 -71 -103t-26 -69h672zM176 475q28 211 183 353q155 143 360 143t307 -132t76 -311l-12 -86h-795q-18 -114 41 -217q80 -139 266 -139q94 0 190 45t152 123l80 -76q-162 -201 -438 -203q-215 0 -329 141
q-114 142 -81 359zM965 1434q41 0 65 -29t19 -70q-6 -41 -39 -69t-74 -29q-42 1 -66 29t-18 69t39 70t74 29zM576 1434q40 0 65 -29t19 -70t-40 -69q-32 -28 -73 -29q-41 1 -65 29t-19 69q6 41 39 70q34 29 74 29z" />
    <glyph glyph-name="igrave" unicode="&#xec;" 
d="M315 946h123l-131 -946h-123zM526 1155h-102l-234 295h164z" />
    <glyph glyph-name="iacute" unicode="&#xed;" 
d="M315 946h123l-131 -946h-123zM543 1450h164l-316 -295h-102z" />
    <glyph glyph-name="icircumflex" unicode="&#xee;" 
d="M315 946h123l-131 -946h-123zM377 1450h143l180 -295h-133l-135 221l-196 -221h-121z" />
    <glyph glyph-name="idieresis" unicode="&#xef;" 
d="M315 946h123l-131 -946h-123zM641 1434q41 0 66 -29t19 -70t-40 -69q-33 -28 -74 -29q-42 1 -66 29t-18 69t39 70t74 29zM252 1434q42 0 66 -29t18 -70t-39 -69t-74 -29q-41 1 -65 29t-19 69q6 41 39 70t74 29z" />
    <glyph glyph-name="eth" unicode="&#xf0;" horiz-adv-x="1216" 
d="M618.5 86q86.5 0 160 30.5t130 83t92 123t48 150.5t-4 150.5t-57.5 123t-106.5 83t-151.5 30.5t-159.5 -30.5t-130 -83t-92.5 -123t-48 -150.5t4 -150.5t57 -123t106.5 -83t152 -30.5zM264.5 116.5q-120.5 141.5 -88.5 356.5q27 213 187 355.5t380 142.5q182 0 289 -113
l6 4q-115 266 -270 424l-236 -117l-55 68l230 115q-84 88 -170 159l114 62q118 -101 172 -164l230 115l65 -62l-233 -116q133 -140 195.5 -268t91 -261t8.5 -277t-70.5 -245.5t-167 -210.5t-337 -109t-341 141.5z" />
    <glyph glyph-name="ntilde" unicode="&#xf1;" horiz-adv-x="1138" 
d="M258 680q9 58 14 127t13 139h123q-4 -53 -10 -102t-5 -64h6q121 188 377 190q84 0 150 -34q66 -35 98 -91q53 -95 29 -282l-78 -563h-123l78 557q43 306 -195 303q-143 0 -250 -99t-133 -288l-65 -473h-123zM608 1288q-73 0 -119 -98h-73q27 93 76 139q64 68 129 69
t155 -50q91 -47 129 -47q39 -1 66 30t39 68h73q-25 -94 -60 -133q-66 -76 -140 -76q-58 0 -207 78q-37 20 -68 20z" />
    <glyph glyph-name="ograve" unicode="&#xf2;" horiz-adv-x="1216" 
d="M903 196q118 110 145 276q26 166 -63 277q-88 111 -256 111t-286 -110q-119 -110 -144 -276q-25 -165 63 -277q88 -111 256 -111q167 0 285 110zM742 971q219 0 339 -141t89 -359t-190 -357t-377 -139t-338 142t-91 356t190 356q159 142 378 142zM889 1155h-103l-233 295
h164z" />
    <glyph glyph-name="oacute" unicode="&#xf3;" horiz-adv-x="1216" 
d="M903 196q118 110 145 276q26 166 -63 277q-88 111 -256 111t-286 -110q-119 -110 -144 -276q-25 -165 63 -277q88 -111 256 -111q167 0 285 110zM742 971q219 0 339 -141t89 -359t-190 -357t-377 -139t-338 142t-91 356t190 356q159 142 378 142zM905 1450h164l-315 -295
h-103z" />
    <glyph glyph-name="ocircumflex" unicode="&#xf4;" horiz-adv-x="1216" 
d="M903 196q118 110 145 276q26 166 -63 277q-88 111 -256 111t-286 -110q-119 -110 -144 -276q-25 -165 63 -277q88 -111 256 -111q167 0 285 110zM742 971q219 0 339 -141t89 -359t-190 -357t-377 -139t-338 142t-91 356t190 356q159 142 378 142zM739 1450h144l180 -295
h-133l-135 221l-197 -221h-121z" />
    <glyph glyph-name="otilde" unicode="&#xf5;" horiz-adv-x="1216" 
d="M903 196q118 110 145 276q26 166 -63 277q-88 111 -256 111t-286 -110q-119 -110 -144 -276q-25 -165 63 -277q88 -111 256 -111q167 0 285 110zM742 971q219 0 339 -141t89 -359t-190 -357t-377 -139t-338 142t-91 356t190 356q159 142 378 142zM647 1288
q-75 0 -119 -98h-73q26 92 75 139q64 68 128 69t156 -48t130 -49q39 -1 66 30t39 68h73q-25 -94 -60 -133q-66 -76 -140 -76q-58 0 -207 78q-37 20 -68 20z" />
    <glyph glyph-name="odieresis" unicode="&#xf6;" horiz-adv-x="1216" 
d="M903 196q118 110 145 276q26 166 -63 277q-88 111 -256 111t-286 -110q-119 -110 -144 -276q-25 -165 63 -277q88 -111 256 -111q167 0 285 110zM742 971q219 0 339 -141t89 -359t-190 -357t-377 -139t-338 142t-91 356t190 356q159 142 378 142zM1004 1434q42 0 66 -29
t18 -70t-40 -69q-32 -28 -73 -29q-41 1 -65 29t-19 69q6 41 39 70t74 29zM614 1434q40 0 66 -29q24 -29 18 -70t-39 -69t-73 -29q-40 1 -66 29q-24 28 -18 69t39 70t73 29z" />
    <glyph glyph-name="divide" unicode="&#xf7;" horiz-adv-x="1363" 
d="M709 201q-43 0 -69 30.5t-20 74.5t40 73t78 30t70 -30t20 -74t-41 -73.5t-78 -30.5zM827 1040q43 0 70 -30.5t20.5 -73.5t-41 -74t-77.5 -31t-70 31t-20.5 74t41 73.5t77.5 30.5zM252 670h1044l-12 -99h-1044z" />
    <glyph glyph-name="oslash" unicode="&#xf8;" horiz-adv-x="1216" 
d="M631 86q156 0 273.5 109.5t144.5 277.5q20 140 -41 242l-617 -545q84 -84 240 -84zM954 778q-86 82 -239 82t-272 -110.5t-142 -264.5q-23 -155 39 -249zM725 971q202 0 326 -109l161 144l56 -60l-166 -145q98 -129 67 -338t-190 -348.5t-364 -139.5t-320 111l-158 -141
l-57 59l164 146q-94 133 -67 334t186.5 344t361.5 143z" />
    <glyph glyph-name="ugrave" unicode="&#xf9;" horiz-adv-x="1138" 
d="M522 86q143 0 250 99q108 99 135 288l66 473h123l-95 -680q-9 -58 -15 -142t-11 -124h-123q4 53 10 102t4 64h-6q-120 -188 -376 -190q-84 0 -150 34q-66 35 -98 91q-53 95 -29 282l78 563h123l-78 -557q-42 -303 192 -303zM850 1155h-102l-234 295h164z" />
    <glyph glyph-name="uacute" unicode="&#xfa;" horiz-adv-x="1138" 
d="M522 86q143 0 250 99q108 99 135 288l66 473h123l-95 -680q-9 -58 -15 -142t-11 -124h-123q4 53 10 102t4 64h-6q-120 -188 -376 -190q-84 0 -150 34q-66 35 -98 91q-53 95 -29 282l78 563h123l-78 -557q-42 -303 192 -303zM866 1450h164l-315 -295h-103z" />
    <glyph glyph-name="ucircumflex" unicode="&#xfb;" horiz-adv-x="1138" 
d="M522 86q143 0 250 99q108 99 135 288l66 473h123l-95 -680q-9 -58 -15 -142t-11 -124h-123q4 53 10 102t4 64h-6q-120 -188 -376 -190q-84 0 -150 34q-66 35 -98 91q-53 95 -29 282l78 563h123l-78 -557q-42 -303 192 -303zM700 1450h144l180 -295h-133l-135 221
l-197 -221h-121z" />
    <glyph glyph-name="udieresis" unicode="&#xfc;" horiz-adv-x="1138" 
d="M522 86q143 0 250 99q108 99 135 288l66 473h123l-95 -680q-9 -58 -15 -142t-11 -124h-123q4 53 10 102t4 64h-6q-120 -188 -376 -190q-84 0 -150 34q-66 35 -98 91q-53 95 -29 282l78 563h123l-78 -557q-42 -303 192 -303zM965 1434q41 0 65 -29t19 -70q-6 -41 -39 -69
t-74 -29q-42 1 -66 29t-18 69t39 70t74 29zM576 1434q40 0 65 -29t19 -70t-40 -69q-32 -28 -73 -29q-41 1 -65 29t-19 69q6 41 39 70q34 29 74 29z" />
    <glyph glyph-name="yacute" unicode="&#xfd;" horiz-adv-x="948" 
d="M116 -381q85 0 149 101q17 28 32 57l117 219l-252 950h137l203 -796l416 796h131l-662 -1239q-101 -197 -287 -199q-54 0 -116 19l26 115q72 -23 106 -23zM772 1450h164l-315 -295h-103z" />
    <glyph glyph-name="thorn" unicode="&#xfe;" horiz-adv-x="1251" 
d="M1021 747.5q-88 112.5 -256 112.5q-169 0 -297.5 -112.5t-153.5 -273.5t74 -274.5t267 -113.5q167 0 285 110.5t143.5 274.5t-62.5 276.5zM806 971q81 0 167 -37t174.5 -139.5t57.5 -321.5t-190.5 -358.5t-358.5 -139.5t-274 71t-95 120h-4l-90 -633h-123l284 2015h123
l-108 -768h4q136 191 433 191z" />
    <glyph glyph-name="ydieresis" unicode="&#xff;" horiz-adv-x="948" 
d="M116 -381q85 0 149 101q17 28 32 57l117 219l-252 950h137l203 -796l416 796h131l-662 -1239q-101 -197 -287 -199q-54 0 -116 19l26 115q72 -23 106 -23zM870 1434q40 0 66 -29q24 -29 18 -70t-39 -69t-73 -29q-40 1 -66 29q-24 28 -18 69t39 70t73 29zM482 1434
q40 0 65 -29t19 -70t-40 -69t-74 -29q-40 1 -64 29t-19 69q6 41 39 70q34 29 74 29z" />
    <glyph glyph-name="Amacron" unicode="&#x100;" horiz-adv-x="1402" 
d="M889 1303l-451 -795h666zM846 1450h139l408 -1450h-152l-104 385h-768l-217 -385h-142zM1206 1636h-540l14 99h541z" />
    <glyph glyph-name="amacron" unicode="&#x101;" horiz-adv-x="1062" 
d="M719 475q-275 0 -390 -110q-42 -41 -49 -93q-18 -134 113 -175q37 -11 105 -11t137 29q182 78 211 297l8 63h-135zM807 154q-129 -179 -327 -179q-253 0 -313 152q-21 53 -9 145t78 156q66 63 174 104t315 41h143l9 58q16 123 -52 176t-182 53q-166 0 -305 -106l-59 84
q78 66 182 100t196 33q171 0 263 -81t67 -261l-33 -232q-36 -252 -36 -397h-115q-4 71 8 154h-4zM1001 1241h-540l12 98h541z" />
    <glyph glyph-name="Abreve" unicode="&#x102;" horiz-adv-x="1402" 
d="M889 1303l-451 -795h666zM846 1450h139l408 -1450h-152l-104 385h-768l-217 -385h-142zM958 1546q-122 0 -194 68t-62 190h86q4 -162 189 -160q86 0 141 34t88 126h86q-31 -122 -121 -190t-213 -68z" />
    <glyph glyph-name="abreve" unicode="&#x103;" horiz-adv-x="1062" 
d="M719 475q-275 0 -390 -110q-42 -41 -49 -93q-18 -134 113 -175q37 -11 105 -11t137 29q182 78 211 297l8 63h-135zM807 154q-129 -179 -327 -179q-253 0 -313 152q-21 53 -9 145t78 156q66 63 174 104t315 41h143l9 58q16 123 -52 176t-182 53q-166 0 -305 -106l-59 84
q78 66 182 100t196 33q171 0 263 -81t67 -261l-33 -232q-36 -252 -36 -397h-115q-4 71 8 154h-4zM720 1192q-122 0 -194 68t-61 190h86q4 -160 188 -160q86 0 142 35q55 35 88 125h86q-31 -122 -122 -190t-213 -68z" />
    <glyph glyph-name="Aogonek" unicode="&#x104;" horiz-adv-x="1402" 
d="M889 1303l-451 -795h666zM1223 -344q71 0 118 47l29 -78q-85 -67 -176 -67q-90 0 -137 45t-35 123q18 131 219 274l-104 385h-768l-217 -385h-142l836 1450h139l408 -1450h-60q-54 -35 -114.5 -106.5t-71.5 -141.5q-12 -96 76 -96z" />
    <glyph glyph-name="aogonek" unicode="&#x105;" horiz-adv-x="1062" 
d="M719 475q-277 0 -354.5 -75.5t-84.5 -127.5q-12 -93 46.5 -139.5t149.5 -46.5q171 0 261.5 94t108.5 232l8 63h-135zM807 154q-127 -179 -325 -179q-168 0 -257 70t-69 211q44 317 569 317h143l9 58q16 123 -50.5 176t-183.5 53q-166 0 -305 -106l-59 84q78 66 182 99.5
t196 33.5q172 0 263.5 -81t66.5 -261l-33 -232q-33 -231 -34.5 -293.5t-1.5 -103.5h-23q-54 -35 -114.5 -106.5t-71.5 -141.5q-12 -96 75 -96q72 0 119 47l29 -78q-85 -67 -176 -67q-90 0 -137.5 45t-34.5 123q18 131 219 274q-4 76 8 154h-4z" />
    <glyph glyph-name="Cacute" unicode="&#x106;" horiz-adv-x="1441" 
d="M1423 227q-228 -262 -568 -263t-518 212t-130 548t289 549t565 214q325 0 469 -227l-123 -93q-53 101 -153 149t-226 48q-125 0 -246 -49t-213 -135q-190 -178 -228 -455t104 -458t419 -181q186 0 357 124q57 42 104 101zM1167 1835h164l-315 -295h-103z" />
    <glyph glyph-name="cacute" unicode="&#x107;" horiz-adv-x="985" 
d="M176 473q27 214 188 356q160 142 372 142q213 0 337 -164l-108 -74q-101 127 -236 127q-167 0 -286 -110t-144 -276q-25 -165 63 -277q88 -111 247 -111t282 131l84 -78q-160 -164 -375 -164t-336 143q-121 144 -88 355zM901 1450h164l-315 -295h-103z" />
    <glyph glyph-name="Ccircumflex" unicode="&#x108;" horiz-adv-x="1441" 
d="M1423 227q-228 -262 -568 -263t-518 212t-130 548t289 549t565 214q325 0 469 -227l-123 -93q-53 101 -153 149t-226 48q-125 0 -246 -49t-213 -135q-190 -178 -228 -455t104 -458t419 -181q186 0 357 124q57 42 104 101zM1038 1835h144l180 -295h-133l-135 221
l-197 -221h-121z" />
    <glyph glyph-name="ccircumflex" unicode="&#x109;" horiz-adv-x="985" 
d="M176 473q27 214 188 356q160 142 372 142q213 0 337 -164l-108 -74q-101 127 -236 127q-167 0 -286 -110t-144 -276q-25 -165 63 -277q88 -111 247 -111t282 131l84 -78q-160 -164 -375 -164t-336 143q-121 144 -88 355zM733 1450h144l180 -295h-133l-136 221l-196 -221
h-121z" />
    <glyph glyph-name="Cdotaccent" unicode="&#x10a;" horiz-adv-x="1441" 
d="M1423 227q-228 -262 -568 -263t-518 212t-130 548t289 549t565 214q325 0 469 -227l-123 -93q-53 101 -153 149t-226 48q-125 0 -246 -49t-213 -135q-190 -178 -228 -455t104 -458t419 -181q186 0 357 124q57 42 104 101zM1114 1819q41 0 66 -29q26 -29 20 -70
q-6 -42 -39 -70t-74 -28t-65 28t-18 70q4 41 36 70q33 29 74 29z" />
    <glyph glyph-name="cdotaccent" unicode="&#x10b;" horiz-adv-x="985" 
d="M176 473q27 214 188 356q160 142 372 142q213 0 337 -164l-108 -74q-101 127 -236 127q-167 0 -286 -110t-144 -276q-25 -165 63 -277q88 -111 247 -111t282 131l84 -78q-160 -164 -375 -164t-336 143q-121 144 -88 355zM809 1434q41 0 65 -29t19 -70q-6 -41 -39 -69
t-74 -29q-42 1 -66 29t-18 69t39 70t74 29z" />
    <glyph glyph-name="Ccaron" unicode="&#x10c;" horiz-adv-x="1441" 
d="M1423 227q-228 -262 -568 -263t-518 212t-130 548t289 549t565 214q325 0 469 -227l-123 -93q-53 101 -153 149t-226 48q-125 0 -246 -49t-213 -135q-190 -178 -228 -455t104 -458t419 -181q186 0 357 124q57 42 104 101zM1137 1540h-144l-182 295h127l137 -233l209 233
h111z" />
    <glyph glyph-name="ccaron" unicode="&#x10d;" horiz-adv-x="985" 
d="M176 473q27 214 188 356q160 142 372 142q213 0 337 -164l-108 -74q-101 127 -236 127q-167 0 -286 -110t-144 -276q-25 -165 63 -277q88 -111 247 -111t282 131l84 -78q-160 -164 -375 -164t-336 143q-121 144 -88 355zM831 1155h-143l-182 295h127l137 -233l209 233
h111z" />
    <glyph glyph-name="Dcaron" unicode="&#x10e;" horiz-adv-x="1517" 
d="M610 123q302 0 514 151q211 151 255 449q43 298 -133 459q-159 145 -466 145h-278l-170 -1204h278zM831 1450q341 0 520 -168t170 -466q-12 -266 -173 -493q-134 -191 -393 -277q-138 -46 -326 -46h-449l203 1450h448zM952 1540h-143l-182 295h127l137 -233l209 233h110z
" />
    <glyph glyph-name="dcaron" unicode="&#x10f;" horiz-adv-x="1251" 
d="M727 860q-166 0 -284 -110q-119 -110 -144 -276q-25 -165 63 -277q88 -111 255 -111t298 113q130 113 154 276t-76 274t-266 111zM716 971q291 0 380 -191h4l108 768h123l-217 -1548h-123l23 166h-4q-67 -94 -177 -142q-110 -47 -224 -48q-223 -2 -345 142
q-121 144 -88 355q27 214 190 357q75 67 172 104q98 37 178 37zM1571 1450h133l-184 -379h-109z" />
    <glyph glyph-name="Dcroat" unicode="&#x110;" horiz-adv-x="1517" 
d="M831 1450q341 0 495 -145t180 -308.5t5.5 -284t-154.5 -416.5t-728 -296h-449l99 700h-160l14 111h160l90 639h448zM610 123q303 0 514 150t254 449.5t-124.5 452t-473.5 152.5h-278l-74 -516h528l-14 -111h-528l-82 -577h278z" />
    <glyph glyph-name="dcroat" unicode="&#x111;" horiz-adv-x="1251" 
d="M361.5 197.5q87.5 -111.5 254.5 -111.5t297.5 112t155 273.5t-74.5 275t-266 113.5q-166 0 -285 -110.5t-144 -275.5t62.5 -276.5zM176 473q27 213 187 355.5t362 142.5t275 -71t96 -120h4l57 410h-332l17 108h332l34 250h123l-35 -250h148l-17 -108h-147l-166 -1190
h-123l23 166h-4q-136 -191 -434 -191q-81 0 -167.5 37t-175.5 141.5t-57 319.5z" />
    <glyph glyph-name="Emacron" unicode="&#x112;" horiz-adv-x="1214" 
d="M401 1450h887l-16 -123h-752l-74 -516h705l-16 -123h-705l-80 -565h785l-17 -123h-919zM1157 1636h-541l15 99h540z" />
    <glyph glyph-name="emacron" unicode="&#x113;" horiz-adv-x="1138" 
d="M981 553q17 130 -66 220q-83 89 -217 87q-175 0 -292 -135q-47 -53 -71 -103t-26 -69h672zM176 475q28 211 183 353q155 143 360 143t307 -132t76 -311l-12 -86h-795q-18 -114 41 -217q80 -139 266 -139q94 0 190 45t152 123l80 -76q-162 -201 -438 -203q-215 0 -329 141
q-114 142 -81 359zM1047 1241h-541l12 98h541z" />
    <glyph glyph-name="Ebreve" unicode="&#x114;" horiz-adv-x="1214" 
d="M401 1450h887l-16 -123h-752l-74 -516h705l-16 -123h-705l-80 -565h785l-17 -123h-919zM870 1546q-122 0 -194 68t-62 190h86q4 -162 189 -160q86 0 141 34t88 126h86q-31 -122 -121 -190t-213 -68z" />
    <glyph glyph-name="ebreve" unicode="&#x115;" horiz-adv-x="1138" 
d="M981 553q17 130 -66 220q-83 89 -217 87q-175 0 -292 -135q-47 -53 -71 -103t-26 -69h672zM176 475q28 211 183 353q155 143 360 143t307 -132t76 -311l-12 -86h-795q-18 -114 41 -217q80 -139 266 -139q94 0 190 45t152 123l80 -76q-162 -201 -438 -203q-215 0 -329 141
q-114 142 -81 359zM765 1192q-122 0 -194 68t-61 190h86q4 -160 188 -160q86 0 142 35q55 35 88 125h86q-31 -122 -122 -190t-213 -68z" />
    <glyph glyph-name="Edotaccent" unicode="&#x116;" horiz-adv-x="1214" 
d="M401 1450h887l-16 -123h-752l-74 -516h705l-16 -123h-705l-80 -565h785l-17 -123h-919zM918 1819q42 0 66 -29t19 -70q-5 -42 -38 -70t-74 -28t-65 28t-19 70q4 41 37 70t74 29z" />
    <glyph glyph-name="edotaccent" unicode="&#x117;" horiz-adv-x="1138" 
d="M981 553q17 130 -66 220q-83 89 -217 87q-175 0 -292 -135q-47 -53 -71 -103t-26 -69h672zM176 475q28 211 183 353q155 143 360 143t307 -132t76 -311l-12 -86h-795q-18 -114 41 -217q80 -139 266 -139q94 0 190 45t152 123l80 -76q-162 -201 -438 -203q-215 0 -329 141
q-114 142 -81 359zM809 1434q41 0 65 -29t19 -70q-6 -41 -39 -69t-74 -29q-42 1 -66 29t-18 69t39 70t74 29z" />
    <glyph glyph-name="Eogonek" unicode="&#x118;" horiz-adv-x="1214" 
d="M873 -442q-91 0 -138 45t-35 123q18 130 220 274h-721l202 1450h887l-16 -123h-752l-74 -516h705l-16 -123h-705l-80 -565h785l-17 -123h-106q-53 -34 -114.5 -105.5t-72.5 -142.5q-12 -96 76 -96q72 0 119 47l29 -78q-85 -67 -176 -67z" />
    <glyph glyph-name="eogonek" unicode="&#x119;" horiz-adv-x="1138" 
d="M682 860q-84 0 -156.5 -41t-120 -94t-71 -103.5t-25.5 -68.5h672q16 129 -65.5 218t-233.5 89zM565 -442q-90 0 -137 45t-36 122q19 131 186 250q-212 4 -323 143.5t-81 353.5t185.5 356.5t360.5 142.5t306.5 -134t75.5 -309l-12 -86h-795q-18 -114 51.5 -235t255.5 -121
q94 0 188.5 45t153.5 123l80 -76q-137 -167 -346 -196q-88 -64 -121 -129.5t-39 -100.5q-12 -96 76 -96q69 0 119 47l28 -78q-86 -67 -176 -67z" />
    <glyph glyph-name="Ecaron" unicode="&#x11a;" horiz-adv-x="1214" 
d="M401 1450h887l-16 -123h-752l-74 -516h705l-16 -123h-705l-80 -565h785l-17 -123h-919zM940 1540h-143l-183 295h127l138 -233l208 233h111z" />
    <glyph glyph-name="ecaron" unicode="&#x11b;" horiz-adv-x="1138" 
d="M981 553q17 130 -66 220q-83 89 -217 87q-175 0 -292 -135q-47 -53 -71 -103t-26 -69h672zM176 475q28 211 183 353q155 143 360 143t307 -132t76 -311l-12 -86h-795q-18 -114 41 -217q80 -139 266 -139q94 0 190 45t152 123l80 -76q-162 -201 -438 -203q-215 0 -329 141
q-114 142 -81 359zM831 1155h-143l-182 295h127l137 -233l209 233h111z" />
    <glyph glyph-name="Gcircumflex" unicode="&#x11c;" horiz-adv-x="1593" 
d="M1062 1487q325 0 494 -201l-112 -102q-94 126 -281 167q-59 13 -119 13q-278 0 -472 -181q-193 -181 -231 -458t104 -458t411 -181t426 86l70 487h-348l16 123h483l-96 -688q-249 -131 -571 -131q-154 0 -284 56q-264 114 -335 400q-35 140 -12 306q50 333 291 548
q241 214 566 214zM1034 1835h144l180 -295h-133l-135 221l-197 -221h-121z" />
    <glyph glyph-name="gcircumflex" unicode="&#x11d;" horiz-adv-x="1251" 
d="M742 860q-152 0 -282 -109q-127 -109 -147 -267t75 -266q95 -109 249 -108q153 1 279 110q127 109 147 268t-74 265q-94 107 -247 107zM764 971q123 0 207 -49t125 -136h4l22 160h123l-123 -885q-24 -177 -92 -285q-125 -202 -327 -247q-91 -21 -198 -21t-227 52
t-180 147l111 90q51 -92 143 -135t194 -43q254 0 365 177q52 81 67 156t19 101l19 131h-4q-141 -184 -383 -184q-211 0 -339 144t-100 343t198 342q169 142 376 142zM805 1450h143l180 -295h-133l-135 221l-196 -221h-121z" />
    <glyph glyph-name="Gbreve" unicode="&#x11e;" horiz-adv-x="1593" 
d="M1062 1487q325 0 494 -201l-112 -102q-94 126 -281 167q-59 13 -119 13q-278 0 -472 -181q-193 -181 -231 -458t104 -458t411 -181t426 86l70 487h-348l16 123h483l-96 -688q-249 -131 -571 -131q-154 0 -284 56q-264 114 -335 400q-35 140 -12 306q50 333 291 548
q241 214 566 214zM1063 1546q-123 0 -195 68t-61 190h86q4 -162 188 -160q86 0 142 34q55 34 88 126h86q-31 -122 -121 -190t-213 -68z" />
    <glyph glyph-name="gbreve" unicode="&#x11f;" horiz-adv-x="1251" 
d="M742 860q-152 0 -282 -109q-127 -109 -147 -267t75 -266q95 -109 249 -108q153 1 279 110q127 109 147 268t-74 265q-94 107 -247 107zM764 971q123 0 207 -49t125 -136h4l22 160h123l-123 -885q-24 -177 -92 -285q-125 -202 -327 -247q-91 -21 -198 -21t-227 52
t-180 147l111 90q51 -92 143 -135t194 -43q254 0 365 177q52 81 67 156t19 101l19 131h-4q-141 -184 -383 -184q-211 0 -339 144t-100 343t198 342q169 142 376 142zM837 1192q-122 0 -194 68t-61 190h86q4 -160 188 -160q86 0 141 35t88 125h86q-31 -122 -121 -190
t-213 -68z" />
    <glyph glyph-name="Gdotaccent" unicode="&#x120;" horiz-adv-x="1593" 
d="M1062 1487q325 0 494 -201l-112 -102q-94 126 -281 167q-59 13 -119 13q-278 0 -472 -181q-193 -181 -231 -458t104 -458t411 -181t426 86l70 487h-348l16 123h483l-96 -688q-249 -131 -571 -131q-154 0 -284 56q-264 114 -335 400q-35 140 -12 306q50 333 291 548
q241 214 566 214zM1110 1819q41 0 66 -29q26 -29 20 -70q-6 -42 -39 -70t-74 -28t-65 28t-19 70q4 41 37 70t74 29z" />
    <glyph glyph-name="gdotaccent" unicode="&#x121;" horiz-adv-x="1251" 
d="M742 860q-152 0 -282 -109q-127 -109 -147 -267t75 -266q95 -109 249 -108q153 1 279 110q127 109 147 268t-74 265q-94 107 -247 107zM764 971q123 0 207 -49t125 -136h4l22 160h123l-123 -885q-24 -177 -92 -285q-125 -202 -327 -247q-91 -21 -198 -21t-227 52
t-180 147l111 90q51 -92 143 -135t194 -43q254 0 365 177q52 81 67 156t19 101l19 131h-4q-141 -184 -383 -184q-211 0 -339 144t-100 343t198 342q169 142 376 142zM881 1434q41 0 65 -29t19 -70q-6 -41 -39 -69t-74 -29q-42 1 -66 29t-18 69t39 70t74 29z" />
    <glyph glyph-name="Gcommaaccent" unicode="&#x122;" horiz-adv-x="1593" 
d="M1062 1487q325 0 494 -201l-112 -102q-94 126 -281 167q-59 13 -119 13q-278 0 -472 -181q-193 -181 -231 -458t104 -458t411 -181t426 86l70 487h-348l16 123h483l-96 -688q-249 -131 -571 -131q-154 0 -284 56q-264 114 -335 400q-35 140 -12 306q50 333 291 548
q241 214 566 214zM772 -135h133l-174 -338h-108z" />
    <glyph glyph-name="gcommaaccent" unicode="&#x123;" horiz-adv-x="1251" 
d="M742 860q-152 0 -282 -109q-127 -109 -147 -267t75 -266q95 -109 249 -108q153 1 279 110q127 109 147 268t-74 265q-94 107 -247 107zM764 971q123 0 207 -49t125 -136h4l22 160h123l-123 -885q-24 -177 -92 -285q-125 -202 -327 -247q-91 -21 -198 -21t-227 52
t-180 147l111 90q51 -92 143 -135t194 -43q254 0 365 177q52 81 67 156t19 101l19 131h-4q-141 -184 -383 -184q-211 0 -339 144t-100 343t198 342q169 142 376 142zM887 1217h-133l176 337h108z" />
    <glyph glyph-name="Hcircumflex" unicode="&#x124;" horiz-adv-x="1478" 
d="M401 1450h136l-91 -639h811l91 639h135l-203 -1450h-135l96 688h-811l-96 -688h-135zM922 1835h143l180 -295h-133l-135 221l-197 -221h-121z" />
    <glyph glyph-name="hcircumflex" unicode="&#x125;" horiz-adv-x="1138" 
d="M381 1548h123l-109 -768h4q121 188 377 190q84 0 150 -34q66 -35 98 -91q53 -95 29 -282l-78 -563h-123l78 557q43 306 -195 303q-143 0 -250 -99t-133 -288l-65 -473h-123zM698 1917h144l180 -295h-133l-135 221l-197 -221h-121z" />
    <glyph glyph-name="Hbar" unicode="&#x126;" horiz-adv-x="1478" 
d="M1257 811l46 313h-811l-46 -313h811zM401 1450h136l-33 -227h811l33 227h135l-203 -1450h-135l96 688h-811l-96 -688h-135z" />
    <glyph glyph-name="hbar" unicode="&#x127;" horiz-adv-x="1138" 
d="M776 971q84 0 148.5 -35t108.5 -110.5t20 -262.5l-78 -563h-123l78 557q43 303 -192 303q-147 0 -252 -98t-134 -289l-65 -473h-123l166 1190h-148l17 108h147l35 250h123l-35 -250h332l-17 -108h-331l-58 -410h4q122 191 377 191z" />
    <glyph glyph-name="Itilde" unicode="&#x128;" horiz-adv-x="532" 
d="M401 1450h136l-203 -1450h-135zM360 1673q-72 0 -116 -98h-74q27 93 74 139q64 68 129 69t155 -50q35 -15 65 -31q31 -16 67 -16t64 30t40 68h74q-38 -142 -128 -191q-34 -18 -74 -18t-102 28t-102 49q-41 21 -72 21z" />
    <glyph glyph-name="itilde" unicode="&#x129;" 
d="M315 946h123l-131 -946h-123zM289 1288q-75 0 -119 -98h-74q26 91 76 139q64 68 128 69t157 -50q31 -16 63 -32q84 -42 131 15q27 31 39 68h74q-38 -141 -127 -191q-33 -18 -74 -18t-101 27t-101 49q-42 22 -72 22z" />
    <glyph glyph-name="Imacron" unicode="&#x12a;" horiz-adv-x="532" 
d="M401 1450h136l-203 -1450h-135zM764 1636h-541l15 99h540z" />
    <glyph glyph-name="imacron" unicode="&#x12b;" 
d="M315 946h123l-131 -946h-123zM692 1241h-540l12 98h541z" />
    <glyph glyph-name="Iogonek" unicode="&#x12e;" horiz-adv-x="532" 
d="M197 -344q71 0 118 47l29 -78q-85 -67 -176 -67q-90 0 -136 45t-34 123q16 112 99 180.5t118 93.5h-16l202 1450h136l-203 -1450h-27q-54 -35 -114.5 -106.5t-71.5 -141.5q-12 -96 76 -96z" />
    <glyph glyph-name="iogonek" unicode="&#x12f;" 
d="M442 1413q39 0 62.5 -26.5t18.5 -65.5t-35.5 -65.5t-69.5 -26.5t-61.5 26.5t-18.5 65.5q6 39 35.5 65.5t68.5 26.5zM148 -442q-91 0 -137 45t-34 123q18 131 218 274h-11l131 946h123l-131 -946h-20q-53 -34 -114.5 -105.5t-72.5 -142.5q-12 -96 76 -96q72 0 119 47
l29 -78q-85 -67 -176 -67z" />
    <glyph glyph-name="Idotaccent" unicode="&#x130;" horiz-adv-x="532" 
d="M401 1450h136l-203 -1450h-135zM528 1819q40 0 66 -29t20 -70q-6 -42 -39 -70t-73 -28t-66 28q-24 28 -18 70q4 41 37 70t73 29z" />
    <glyph glyph-name="dotlessi" unicode="&#x131;" 
d="M315 946h123l-131 -946h-123z" />
    <glyph glyph-name="IJ" unicode="&#x132;" horiz-adv-x="1449" 
d="M401 1450h136l-203 -1450h-135zM838 -37q-150 0 -232 81t-94 216l139 25q20 -199 213 -199q134 0 210 83t95 224l150 1057h135l-143 -1024q-11 -66 -31 -146t-70 -150q-50 -71 -135 -119q-87 -48 -237 -48z" />
    <glyph glyph-name="ij" unicode="&#x133;" horiz-adv-x="931" 
d="M442 1413q38 0 63 -27q25 -28 19 -66t-37 -65t-69 -27t-62 27q-22 27 -18 66q6 39 36 65t68 27zM315 946h123l-131 -946h-123zM883 1413q39 0 63 -27q24 -28 18 -66q-5 -38 -36 -65t-70 -27q-40 0 -62 28q-22 26 -18 65q6 39 36 65t69 27zM428 -381q119 0 155 127
q9 37 15 78l158 1122h123l-156 -1112q-22 -160 -93 -243t-220 -83q-51 0 -97 19l33 108q40 -16 82 -16z" />
    <glyph glyph-name="Jcircumflex" unicode="&#x134;" horiz-adv-x="987" 
d="M376 -37q-150 0 -233 81q-82 81 -94 216l139 25q20 -199 213 -199q134 0 209 82t97 225l149 1057h135l-143 -1024q-10 -66 -31 -145q-45 -182 -205 -270q-86 -48 -236 -48zM901 1835h143l181 -295h-133l-136 221l-196 -221h-121z" />
    <glyph glyph-name="jcircumflex" unicode="&#x135;" 
d="M-16 -492q-66 0 -111 19l33 108q45 -16 85 -16q76 0 122 63q27 38 45 142l157 1122h123l-155 -1112q-10 -74 -30 -133q-41 -123 -147 -169q-56 -24 -122 -24zM377 1450h143l180 -295h-133l-135 221l-196 -221h-121z" />
    <glyph glyph-name="Kcommaaccent" unicode="&#x136;" horiz-adv-x="1251" 
d="M401 1450h136l-91 -639h13l792 639h187l-828 -664l666 -786h-195l-630 750h-13l-104 -750h-135zM616 -135h134l-175 -338h-108z" />
    <glyph glyph-name="kcommaaccent" unicode="&#x137;" horiz-adv-x="985" 
d="M381 1548h123l-146 -1032l527 428h180l-547 -432l473 -512h-186l-449 500l-69 -500h-123zM412 -135h133l-174 -338h-109z" />
    <glyph glyph-name="Lacute" unicode="&#x139;" horiz-adv-x="1024" 
d="M401 1450h136l-187 -1327h676l-16 -123h-811zM616 1835h164l-315 -295h-103z" />
    <glyph glyph-name="lacute" unicode="&#x13a;" 
d="M401 1548h123l-217 -1548h-123zM653 1917h164l-315 -295h-103z" />
    <glyph glyph-name="Lcommaaccent" unicode="&#x13b;" horiz-adv-x="1024" 
d="M401 1450h136l-187 -1327h676l-16 -123h-811zM532 -135h134l-174 -338h-109z" />
    <glyph glyph-name="lcommaaccent" unicode="&#x13c;" 
d="M401 1548h123l-217 -1548h-123zM211 -135h133l-174 -338h-109z" />
    <glyph glyph-name="Lcaron" unicode="&#x13d;" horiz-adv-x="1024" 
d="M401 1450h136l-187 -1327h676l-16 -123h-811zM782 1450h133l-184 -379h-108z" />
    <glyph glyph-name="lcaron" unicode="&#x13e;" 
d="M401 1548h123l-217 -1548h-123zM756 1450h133l-184 -379h-109z" />
    <glyph glyph-name="Ldot" unicode="&#x13f;" horiz-adv-x="1024" 
d="M401 1450h136l-187 -1327h676l-16 -123h-811zM866 850q40 0 66 -29q24 -29 18 -69t-39 -70q-33 -29 -73 -29t-66 29q-24 29 -18 70q6 42 39 70t73 28z" />
    <glyph glyph-name="ldot" unicode="&#x140;" horiz-adv-x="688" 
d="M401 1548h123l-217 -1548h-123zM688 885q41 0 66 -29q24 -29 18 -70q-6 -42 -39 -70t-74 -28t-65 28t-19 70q6 41 39 70t74 29z" />
    <glyph glyph-name="Lslash" unicode="&#x141;" horiz-adv-x="1024" 
d="M264 473l-166 -131l19 133l166 129l118 846h136l-103 -733l496 387l-17 -127l-497 -387l-66 -467h676l-16 -123h-811z" />
    <glyph glyph-name="lslash" unicode="&#x142;" 
d="M276 664l-196 -175l20 138l195 174l106 747h123l-88 -624l197 176l-19 -137l-196 -175l-111 -788h-123z" />
    <glyph glyph-name="Nacute" unicode="&#x143;" horiz-adv-x="1593" 
d="M401 1450h174l705 -1270h4l178 1270h135l-202 -1450h-174l-705 1270h-4l-178 -1270h-135zM1169 1835h164l-315 -295h-103z" />
    <glyph glyph-name="nacute" unicode="&#x144;" horiz-adv-x="1138" 
d="M258 680q9 58 14 127t13 139h123q-4 -53 -10 -102t-5 -64h6q121 188 377 190q84 0 150 -34q66 -35 98 -91q53 -95 29 -282l-78 -563h-123l78 557q43 306 -195 303q-143 0 -250 -99t-133 -288l-65 -473h-123zM842 1450h164l-316 -295h-102z" />
    <glyph glyph-name="Ncommaaccent" unicode="&#x145;" horiz-adv-x="1593" 
d="M401 1450h174l705 -1270h4l178 1270h135l-202 -1450h-174l-705 1270h-4l-178 -1270h-135zM723 -135h133l-174 -338h-109z" />
    <glyph glyph-name="ncommaaccent" unicode="&#x146;" horiz-adv-x="1138" 
d="M258 680q9 58 14 127t13 139h123q-4 -53 -10 -102t-5 -64h6q121 188 377 190q84 0 150 -34q66 -35 98 -91q53 -95 29 -282l-78 -563h-123l78 557q43 306 -195 303q-143 0 -250 -99t-133 -288l-65 -473h-123zM502 -135h133l-174 -338h-109z" />
    <glyph glyph-name="Ncaron" unicode="&#x147;" horiz-adv-x="1593" 
d="M401 1450h174l705 -1270h4l178 1270h135l-202 -1450h-174l-705 1270h-4l-178 -1270h-135zM1085 1540h-143l-182 295h127l137 -233l209 233h110z" />
    <glyph glyph-name="ncaron" unicode="&#x148;" horiz-adv-x="1138" 
d="M258 680q9 58 14 127t13 139h123q-4 -53 -10 -102t-5 -64h6q121 188 377 190q84 0 150 -34q66 -35 98 -91q53 -95 29 -282l-78 -563h-123l78 557q43 306 -195 303q-143 0 -250 -99t-133 -288l-65 -473h-123zM813 1155h-143l-183 295h127l138 -233l209 233h110z" />
    <glyph glyph-name="napostrophe" unicode="&#x149;" horiz-adv-x="1138" 
d="M258 680q9 58 14 127t13 139h123q-4 -53 -10 -102t-5 -64h6q121 188 377 190q84 0 150 -34q66 -35 98 -91q53 -95 29 -282l-78 -563h-123l78 557q43 306 -195 303q-143 0 -250 -99t-133 -288l-65 -473h-123zM336 1450h133l-184 -379h-109z" />
    <glyph glyph-name="Omacron" unicode="&#x14c;" horiz-adv-x="1708" 
d="M865 86q277 0 471 181t232 460q38 278 -104 458q-142 179 -420 179t-473 -182t-231 -458q-37 -276 105 -457q143 -181 420 -181zM1063 1487q166 0 296 -57q261 -114 334 -400q36 -139 12 -305q-48 -334 -288 -548t-571 -214t-509 213t-130 548t289 549t567 214z
M1356 1636h-541l14 99h541z" />
    <glyph glyph-name="omacron" unicode="&#x14d;" horiz-adv-x="1216" 
d="M903 196q118 110 145 276q26 166 -63 277q-88 111 -256 111t-286 -110q-119 -110 -144 -276q-25 -165 63 -277q88 -111 256 -111q167 0 285 110zM742 971q219 0 339 -141t89 -359t-190 -357t-377 -139t-338 142t-91 356t190 356q159 142 378 142zM1055 1241h-541l12 98
h541z" />
    <glyph glyph-name="Obreve" unicode="&#x14e;" horiz-adv-x="1708" 
d="M865 86q277 0 471 181t232 460q38 278 -104 458q-142 179 -420 179t-473 -182t-231 -458q-37 -276 105 -457q143 -181 420 -181zM1063 1487q166 0 296 -57q261 -114 334 -400q36 -139 12 -305q-48 -334 -288 -548t-571 -214t-509 213t-130 548t289 549t567 214z
M1069 1546q-123 0 -195 68t-61 190h86q4 -162 188 -160q86 0 142 34q55 34 88 126h86q-31 -122 -121 -190t-213 -68z" />
    <glyph glyph-name="obreve" unicode="&#x14f;" horiz-adv-x="1216" 
d="M903 196q118 110 145 276q26 166 -63 277q-88 111 -256 111t-286 -110q-119 -110 -144 -276q-25 -165 63 -277q88 -111 256 -111q167 0 285 110zM742 971q219 0 339 -141t89 -359t-190 -357t-377 -139t-338 142t-91 356t190 356q159 142 378 142zM773 1192
q-121 0 -193 68t-62 190h86q4 -160 188 -160q86 0 142 35q55 35 88 125h86q-31 -122 -122 -190t-213 -68z" />
    <glyph glyph-name="Ohungarumlaut" unicode="&#x150;" horiz-adv-x="1708" 
d="M865 86q277 0 471 181t232 460q38 278 -104 458q-142 179 -420 179t-473 -182t-231 -458q-37 -276 105 -457q143 -181 420 -181zM1063 1487q166 0 296 -57q261 -114 334 -400q36 -139 12 -305q-48 -334 -288 -548t-571 -214t-509 213t-130 548t289 549t567 214z
M1399 1835h164l-316 -295h-102zM1100 1835h164l-316 -295h-102z" />
    <glyph glyph-name="ohungarumlaut" unicode="&#x151;" horiz-adv-x="1216" 
d="M903 196q118 110 145 276q26 166 -63 277q-88 111 -256 111t-286 -110q-119 -110 -144 -276q-25 -165 63 -277q88 -111 256 -111q167 0 285 110zM742 971q219 0 339 -141t89 -359t-190 -357t-377 -139t-338 142t-91 356t190 356q159 142 378 142zM1106 1450h164
l-316 -295h-102zM807 1450h164l-316 -295h-102z" />
    <glyph glyph-name="OE" unicode="&#x152;" horiz-adv-x="1933" 
d="M1081 1327q-245 0 -464 -155t-261 -447q-30 -209 52 -344t219.5 -196.5t271.5 -61.5h172l170 1204h-160zM846 0q-145 0 -270 51t-211 146.5t-126.5 229.5t-16.5 306t110 307.5t209 226.5t272.5 137t300.5 46h885l-17 -123h-606l-73 -516h571l-16 -123h-572l-80 -565h623
l-17 -123h-966z" />
    <glyph glyph-name="oe" unicode="&#x153;" horiz-adv-x="1857" 
d="M575.5 86q81.5 0 150.5 30.5t122 83t87 123t46 150.5t-2 150.5t-52 123t-98.5 83t-142.5 30.5t-151.5 -31.5t-123 -86t-88 -124t-45 -145.5t4 -145.5t52.5 -123.5t98.5 -86t142 -32zM734.5 971q242.5 0 336.5 -236q144 236 404 236q186 0 290 -113.5t74 -343.5l-10 -72
h-729q-25 -155 45.5 -255.5t239.5 -100.5t286 152l86 -70q-135 -152 -242.5 -172.5t-173.5 -20.5q-273 0 -340 234h-4q-76 -115 -190.5 -174.5t-232.5 -59.5q-221 0 -336 143t-82 355q27 213 181.5 355.5t397 142.5zM1467 860q-139 0 -238 -90t-115 -217h606
q27 213 -75.5 260t-177.5 47z" />
    <glyph glyph-name="Racute" unicode="&#x154;" horiz-adv-x="1214" 
d="M782 1450q280 0 393 -113q92 -94 69 -274q-41 -311 -423 -367l326 -696h-154l-311 688h-252l-96 -688h-135l202 1450h381zM733 811q188 0 290 92q67 63 87 166q27 164 -134 231q-62 27 -169 27h-287l-74 -516h287zM936 1835h164l-316 -295h-102z" />
    <glyph glyph-name="racute" unicode="&#x155;" horiz-adv-x="681" 
d="M721 971q33 0 70 -10l-31 -121q-23 8 -74 8q-50 0 -112 -26q-183 -77 -216 -306l-71 -516h-123l94 680q9 58 14 127t13 139h123q-4 -53 -10 -102t-5 -64q134 191 328 191zM680 1450h164l-316 -295h-102z" />
    <glyph glyph-name="Rcommaaccent" unicode="&#x156;" horiz-adv-x="1214" 
d="M782 1450q280 0 393 -113q92 -94 69 -274q-41 -311 -423 -367l326 -696h-154l-311 688h-252l-96 -688h-135l202 1450h381zM733 811q188 0 290 92q67 63 87 166q27 164 -134 231q-62 27 -169 27h-287l-74 -516h287zM530 -135h134l-175 -338h-108z" />
    <glyph glyph-name="rcommaaccent" unicode="&#x157;" horiz-adv-x="681" 
d="M721 971q33 0 70 -10l-31 -121q-23 8 -74 8q-50 0 -112 -26q-183 -77 -216 -306l-71 -516h-123l94 680q9 58 14 127t13 139h123q-4 -53 -10 -102t-5 -64q134 191 328 191zM242 -135h133l-174 -338h-109z" />
    <glyph glyph-name="Rcaron" unicode="&#x158;" horiz-adv-x="1214" 
d="M782 1450q280 0 393 -113q92 -94 69 -274q-41 -311 -423 -367l326 -696h-154l-311 688h-252l-96 -688h-135l202 1450h381zM733 811q188 0 290 92q67 63 87 166q27 164 -134 231q-62 27 -169 27h-287l-74 -516h287zM889 1540h-144l-182 295h127l137 -233l209 233h111z" />
    <glyph glyph-name="rcaron" unicode="&#x159;" horiz-adv-x="681" 
d="M721 971q33 0 70 -10l-31 -121q-23 8 -74 8q-50 0 -112 -26q-183 -77 -216 -306l-71 -516h-123l94 680q9 58 14 127t13 139h123q-4 -53 -10 -102t-5 -64q134 191 328 191zM616 1155h-143l-182 295h127l137 -233l209 233h110z" />
    <glyph glyph-name="Sacute" unicode="&#x15a;" horiz-adv-x="1138" 
d="M274 268q81 -182 306 -182q140 0 244 79q103 79 121 210q19 132 -86 202q-48 33 -113 55l-132 44q-171 58 -238 126q-104 104 -77 290t179 291q152 104 343 104q258 0 369 -182l-129 -84q-81 143 -262 143q-218 0 -321 -154q-34 -50 -45 -126t15 -128q47 -97 184 -142
l132 -44t129 -48q226 -95 188 -351q-27 -188 -175 -298t-312 -110t-279 50t-182 169zM956 1835h164l-315 -295h-103z" />
    <glyph glyph-name="sacute" unicode="&#x15b;" horiz-adv-x="872" 
d="M743 727q-55 133 -177 133q-155 0 -220 -86q-23 -28 -30 -78t30 -82q57 -49 222 -76q165 -28 228 -121q34 -51 22 -137q-20 -148 -128 -226q-108 -77 -243 -78q-285 -2 -367 192l119 74q29 -76 99 -116t130 -40q156 0 235 101q23 32 29 77t-13 75q-31 49 -141 79
q-48 12 -100 23q-126 27 -183 73q-80 64 -62 189t124 195q106 71 231 72q250 2 316 -177zM748 1450h163l-315 -295h-102z" />
    <glyph glyph-name="Scircumflex" unicode="&#x15c;" horiz-adv-x="1138" 
d="M274 268q81 -182 306 -182q140 0 244 79q103 79 121 210q19 132 -86 202q-48 33 -113 55l-132 44q-171 58 -238 126q-104 104 -77 290t179 291q152 104 343 104q258 0 369 -182l-129 -84q-81 143 -262 143q-218 0 -321 -154q-34 -50 -45 -126t15 -128q47 -97 184 -142
l132 -44t129 -48q226 -95 188 -351q-27 -188 -175 -298t-312 -110t-279 50t-182 169zM795 1835h143l180 -295h-133l-135 221l-197 -221h-121z" />
    <glyph glyph-name="scircumflex" unicode="&#x15d;" horiz-adv-x="872" 
d="M743 727q-55 133 -177 133q-155 0 -220 -86q-23 -28 -30 -78t30 -82q57 -49 222 -76q165 -28 228 -121q34 -51 22 -137q-20 -148 -128 -226q-108 -77 -243 -78q-285 -2 -367 192l119 74q29 -76 99 -116t130 -40q156 0 235 101q23 32 29 77t-13 75q-31 49 -141 79
q-48 12 -100 23q-126 27 -183 73q-80 64 -62 189t124 195q106 71 231 72q250 2 316 -177zM575 1450h144l180 -295h-133l-135 221l-197 -221h-121z" />
    <glyph glyph-name="Scedilla" unicode="&#x15e;" horiz-adv-x="1138" 
d="M821 1487q258 0 369 -182l-129 -84q-80 143 -262 143q-138 0 -242 -71t-123 -203q-29 -200 116.5 -248.5t265 -87t206 -119t61.5 -263.5t-166 -291t-315 -116l-82 -96l2 -4q29 14 64 14q73 0 117.5 -38.5t36.5 -96.5q-15 -99 -91 -142.5t-172 -43.5t-182 43l39 65
q63 -35 147 -35q129 -1 146 99q6 36 -29 55.5t-77 19.5t-91 -16l-29 31l123 145q-129 8 -228 57.5t-163 159.5l141 86q81 -182 306 -182q138 0 242.5 79t122.5 211q19 132 -57.5 182t-141 72.5t-183 62.5t-204 125.5t-59.5 271.5t175.5 291.5t345.5 105.5z" />
    <glyph glyph-name="scedilla" unicode="&#x15f;" horiz-adv-x="872" 
d="M607 135q74 49 82 111q9 63 -10.5 93t-56 48.5t-85 30.5t-138.5 32.5t-157.5 75t-48.5 178.5q19 125 126.5 196t229.5 71q247 0 315 -178l-121 -66q-27 66 -71.5 99.5t-123.5 33.5t-148 -39.5t-83 -111.5q-8 -63 29 -94t97.5 -48.5t131 -30t129 -40t92 -80t22.5 -134.5
q-19 -143 -116.5 -218.5t-230.5 -86.5l-94 -108l2 -4q29 14 63 14q74 0 118.5 -38.5t36.5 -96.5q-15 -99 -91 -142.5t-172 -43.5t-182 43l38 65q63 -35 148 -35t112 31.5t33 67.5t-28.5 55.5t-76.5 19.5t-91 -16l-29 31l135 157q-237 13 -313 191l119 74q29 -76 97.5 -116
t152.5 -40t158 49z" />
    <glyph glyph-name="Scaron" unicode="&#x160;" horiz-adv-x="1138" 
d="M274 268q81 -182 306 -182q140 0 244 79q103 79 121 210q19 132 -86 202q-48 33 -113 55l-132 44q-171 58 -238 126q-104 104 -77 290t179 291q152 104 343 104q258 0 369 -182l-129 -84q-81 143 -262 143q-218 0 -321 -154q-34 -50 -45 -126t15 -128q47 -97 184 -142
l132 -44t129 -48q226 -95 188 -351q-27 -188 -175 -298t-312 -110t-279 50t-182 169zM852 1540h-143l-183 295h127l138 -233l208 233h111z" />
    <glyph glyph-name="scaron" unicode="&#x161;" horiz-adv-x="872" 
d="M743 727q-55 133 -177 133q-155 0 -220 -86q-23 -28 -30 -78t30 -82q57 -49 222 -76q165 -28 228 -121q34 -51 22 -137q-20 -148 -128 -226q-108 -77 -243 -78q-285 -2 -367 192l119 74q29 -76 99 -116t130 -40q156 0 235 101q23 32 29 77t-13 75q-31 49 -141 79
q-48 12 -100 23q-126 27 -183 73q-80 64 -62 189t124 195q106 71 231 72q250 2 316 -177zM666 1155h-144l-182 295h127l137 -233l209 233h111z" />
    <glyph glyph-name="Tcommaaccent" unicode="&#x162;" horiz-adv-x="1175" 
d="M707 1327h-496l16 123h1127l-17 -123h-495l-187 -1327h-135zM510 -135h133l-174 -338h-109z" />
    <glyph glyph-name="tcommaaccent" unicode="&#x163;" horiz-adv-x="681" 
d="M502 86q64 0 141 33l-6 -111q-171 -60 -273 -14q-126 56 -100 225l86 617h-205l15 110h205l38 273h123l-39 -273h271l-15 -110h-270l-86 -617q-10 -63 20 -98q31 -35 95 -35zM303 -135h133l-174 -338h-108z" />
    <glyph glyph-name="Tcaron" unicode="&#x164;" horiz-adv-x="1175" 
d="M707 1327h-496l16 123h1127l-17 -123h-495l-187 -1327h-135zM879 1540h-144l-182 295h127l137 -233l209 233h111z" />
    <glyph glyph-name="tcaron" unicode="&#x165;" horiz-adv-x="681" 
d="M502 86q64 0 141 33l-6 -111q-171 -60 -273 -14q-126 56 -100 225l86 617h-205l15 110h205l38 273h123l-39 -273h271l-15 -110h-270l-86 -617q-10 -63 20 -98q31 -35 95 -35zM772 1450h133l-184 -379h-109z" />
    <glyph glyph-name="Tbar" unicode="&#x166;" horiz-adv-x="1175" 
d="M1081 848h-307l-119 -848h-135l119 848h-303l12 98h303l56 381h-496l16 123h1127l-17 -123h-495l-56 -381h308z" />
    <glyph glyph-name="tbar" unicode="&#x167;" horiz-adv-x="681" 
d="M501 86q65 0 142 33l-6 -111q-102 -33 -166 -33q-123 0 -173.5 68t-33.5 176l47 348h-178l14 99h179l24 170h-205l15 110h205l38 273h123l-39 -273h271l-15 -110h-270l-24 -170h239l-14 -99h-240l-47 -348q-10 -63 19.5 -98t94.5 -35z" />
    <glyph glyph-name="Utilde" unicode="&#x168;" horiz-adv-x="1400" 
d="M307 143q-93 149 -57 412l125 895h135l-121 -860q-65 -504 322 -504q227 0 348 174q92 131 117 330l120 860h136l-125 -895q-35 -254 -174 -412q-162 -180 -437 -180t-389 180zM795 1673q-73 0 -117 -98h-74q27 93 74 139q64 68 139 70q41 0 77 -16t70 -34q34 -16 64 -32
t66 -16t64 30t40 68h74q-38 -142 -128 -191q-34 -18 -74 -18t-97 25t-103 49q-45 24 -75 24z" />
    <glyph glyph-name="utilde" unicode="&#x169;" horiz-adv-x="1138" 
d="M522 86q143 0 250 99q108 99 135 288l66 473h123l-95 -680q-9 -58 -15 -142t-11 -124h-123q4 53 10 102t4 64h-6q-120 -188 -376 -190q-84 0 -150 34q-66 35 -98 91q-53 95 -29 282l78 563h123l-78 -557q-42 -303 192 -303zM606 1288q-75 0 -119 -98h-73q26 92 75 139
q64 68 129 69t156 -50q91 -47 129 -47q39 -1 66 30t39 68h73q-25 -94 -60 -133q-66 -76 -140 -76q-58 0 -207 78q-37 20 -68 20z" />
    <glyph glyph-name="Umacron" unicode="&#x16a;" horiz-adv-x="1400" 
d="M307 143q-93 149 -57 412l125 895h135l-121 -860q-65 -504 322 -504q227 0 348 174q92 131 117 330l120 860h136l-125 -895q-35 -254 -174 -412q-162 -180 -437 -180t-389 180zM1202 1636h-540l14 99h541z" />
    <glyph glyph-name="umacron" unicode="&#x16b;" horiz-adv-x="1138" 
d="M522 86q143 0 250 99q108 99 135 288l66 473h123l-95 -680q-9 -58 -15 -142t-11 -124h-123q4 53 10 102t4 64h-6q-120 -188 -376 -190q-84 0 -150 34q-66 35 -98 91q-53 95 -29 282l78 563h123l-78 -557q-42 -303 192 -303zM1012 1241h-541l12 98h541z" />
    <glyph glyph-name="Ubreve" unicode="&#x16c;" horiz-adv-x="1400" 
d="M307 143q-93 149 -57 412l125 895h135l-121 -860q-65 -504 322 -504q227 0 348 174q92 131 117 330l120 860h136l-125 -895q-35 -254 -174 -412q-162 -180 -437 -180t-389 180zM915 1546q-123 0 -195 68t-61 190h86q4 -162 189 -160q86 0 141 34t88 126h86
q-31 -122 -121 -190t-213 -68z" />
    <glyph glyph-name="ubreve" unicode="&#x16d;" horiz-adv-x="1138" 
d="M522 86q143 0 250 99q108 99 135 288l66 473h123l-95 -680q-9 -58 -15 -142t-11 -124h-123q4 53 10 102t4 64h-6q-120 -188 -376 -190q-84 0 -150 34q-66 35 -98 91q-53 95 -29 282l78 563h123l-78 -557q-42 -303 192 -303zM730 1192q-122 0 -194 68t-61 190h86
q4 -160 188 -160q86 0 142 35q55 35 88 125h86q-31 -122 -122 -190t-213 -68z" />
    <glyph glyph-name="Uring" unicode="&#x16e;" horiz-adv-x="1400" 
d="M307 143q-93 149 -57 412l125 895h135l-121 -860q-65 -504 322 -504q227 0 348 174q92 131 117 330l120 860h136l-125 -895q-35 -254 -174 -412q-162 -180 -437 -180t-389 180zM958 1835q-51 0 -88 -36t-45 -87t22 -85t80 -34t87 35t45 86t-21 86t-80 35zM916 1520
q-78 0 -126 57t-37 139t74 137q62 54 142 55t127 -59t35 -139t-74 -135q-63 -55 -141 -55z" />
    <glyph glyph-name="uring" unicode="&#x16f;" horiz-adv-x="1138" 
d="M522 86q143 0 250 99q108 99 135 288l66 473h123l-95 -680q-9 -58 -15 -142t-11 -124h-123q4 53 10 102t4 64h-6q-120 -188 -376 -190q-84 0 -150 34q-66 35 -98 91q-53 95 -29 282l78 563h123l-78 -557q-42 -303 192 -303zM770 1450q-51 0 -89 -36t-45 -87
q-6 -51 22 -85t78 -34t88 35t46 86q6 51 -21 86q-28 35 -79 35zM869 1194q-66 -59 -144 -59t-126 57t-36 139q12 81 75 136q62 55 143 56t127 -60q73 -93 11 -208q-19 -35 -50 -61z" />
    <glyph glyph-name="Uhungarumlaut" unicode="&#x170;" horiz-adv-x="1400" 
d="M307 143q-93 149 -57 412l125 895h135l-121 -860q-65 -504 322 -504q227 0 348 174q92 131 117 330l120 860h136l-125 -895q-35 -254 -174 -412q-162 -180 -437 -180t-389 180zM1223 1835h163l-315 -295h-102zM924 1835h163l-315 -295h-102z" />
    <glyph glyph-name="uhungarumlaut" unicode="&#x171;" horiz-adv-x="1138" 
d="M522 86q143 0 250 99q108 99 135 288l66 473h123l-95 -680q-9 -58 -15 -142t-11 -124h-123q4 53 10 102t4 64h-6q-120 -188 -376 -190q-84 0 -150 34q-66 35 -98 91q-53 95 -29 282l78 563h123l-78 -557q-42 -303 192 -303zM1034 1450h164l-315 -295h-103zM735 1450h164
l-315 -295h-103z" />
    <glyph glyph-name="Uogonek" unicode="&#x172;" horiz-adv-x="1400" 
d="M676 -442q-90 0 -137 45t-36 120q18 124 169 242q-262 7 -360.5 172.5t-61.5 417.5l125 895h135l-121 -860q-65 -504 322 -504q227 0 331.5 150.5t133.5 353.5l120 860h136l-125 -895q-55 -376 -231.5 -475.5t-305.5 -112.5q-123 -102 -141 -215q-12 -96 76 -96
q71 0 118 47l29 -78q-86 -67 -176 -67z" />
    <glyph glyph-name="uogonek" unicode="&#x173;" horiz-adv-x="1138" 
d="M860 166q-122 -191 -377 -191q-84 0 -149.5 35t-108 111t-18.5 262l78 563h123l-78 -557q-42 -303 192 -303q148 0 253 99.5t132 287.5l66 473h123l-95 -680q-9 -58 -15.5 -142t-10.5 -124h-31q-54 -35 -114.5 -106.5t-71.5 -141.5q-12 -96 76 -96q71 0 118 47l29 -78
q-85 -67 -176 -67q-90 0 -137 45t-35 123q18 131 219 274q4 53 11 102.5t3 63.5h-6z" />
    <glyph glyph-name="Wcircumflex" unicode="&#x174;" horiz-adv-x="1933" 
d="M213 1450h139l180 -1284h5l546 1284h172l187 -1284h4l541 1284h139l-625 -1450h-166l-186 1290h-4l-547 -1290h-166zM1151 1835h143l181 -295h-134l-135 221l-196 -221h-121z" />
    <glyph glyph-name="wcircumflex" unicode="&#x175;" horiz-adv-x="1441" 
d="M162 946h135l119 -792h4l375 792h116l170 -792h4l334 792h123l-409 -946h-127l-175 774h-4l-372 -774h-127zM854 1450h143l181 -295h-134l-135 221l-196 -221h-121z" />
    <glyph glyph-name="Ycircumflex" unicode="&#x176;" horiz-adv-x="1175" 
d="M606 625l-416 825h162l342 -688l545 688h152l-650 -825l-86 -625h-135zM772 1835h143l181 -295h-133l-136 221l-196 -221h-121z" />
    <glyph glyph-name="ycircumflex" unicode="&#x177;" horiz-adv-x="948" 
d="M116 -381q85 0 149 101q17 28 32 57l117 219l-252 950h137l203 -796l416 796h131l-662 -1239q-101 -197 -287 -199q-54 0 -116 19l26 115q72 -23 106 -23zM616 1450h144l180 -295h-133l-135 221l-197 -221h-121z" />
    <glyph glyph-name="Ydieresis" unicode="&#x178;" horiz-adv-x="1175" 
d="M606 625l-416 825h162l342 -688l545 688h152l-650 -825l-86 -625h-135zM1036 1819q40 0 66 -29t20 -70q-6 -42 -39 -70t-73 -28t-66 28q-24 28 -18 70q4 41 37 70t73 29zM647 1819q41 0 66 -29t19 -70q-6 -42 -38 -70q-34 -28 -74 -28t-64 28t-19 70q4 41 36 70
q33 29 74 29z" />
    <glyph glyph-name="Zacute" unicode="&#x179;" horiz-adv-x="1138" 
d="M61 106l1020 1221h-835l16 123h1010l-17 -111l-1024 -1216h877l-16 -123h-1045zM930 1835h164l-316 -295h-102z" />
    <glyph glyph-name="zacute" unicode="&#x17a;" horiz-adv-x="872" 
d="M66 74l673 762h-538l14 110h709l-11 -74l-671 -761h589l-14 -111h-762zM748 1450h163l-315 -295h-102z" />
    <glyph glyph-name="Zdotaccent" unicode="&#x17b;" horiz-adv-x="1138" 
d="M61 106l1020 1221h-835l16 123h1010l-17 -111l-1024 -1216h877l-16 -123h-1045zM856 1819q41 0 66 -29q26 -29 20 -70q-6 -42 -39 -70t-74 -28t-65 28t-19 70q4 41 37 70t74 29z" />
    <glyph glyph-name="zdotaccent" unicode="&#x17c;" horiz-adv-x="872" 
d="M66 74l673 762h-538l14 110h709l-11 -74l-671 -761h589l-14 -111h-762zM676 1434q42 0 66 -29t18 -70t-39 -69t-74 -29q-41 1 -65 29t-19 69q6 41 39 70t74 29z" />
    <glyph glyph-name="Zcaron" unicode="&#x17d;" horiz-adv-x="1138" 
d="M61 106l1020 1221h-835l16 123h1010l-17 -111l-1024 -1216h877l-16 -123h-1045zM852 1540h-143l-183 295h127l138 -233l208 233h111z" />
    <glyph glyph-name="zcaron" unicode="&#x17e;" horiz-adv-x="872" 
d="M66 74l673 762h-538l14 110h709l-11 -74l-671 -761h589l-14 -111h-762zM666 1155h-144l-182 295h127l137 -233l209 233h111z" />
    <glyph glyph-name="florin" unicode="&#x192;" horiz-adv-x="1064" 
d="M998 1364q-68 0 -115 -54.5t-72 -129.5l-104 -322h221l-13 -98h-239l-260 -801q-41 -119 -119 -186.5t-195 -67.5t-168 49l72 96q43 -34 115 -34t118 58t80 169l234 717h-221l12 98h240l104 316q70 206 167 253.5t183 47.5t160 -62l-78 -92q-54 43 -122 43z" />
    <glyph glyph-name="Scommaaccent" unicode="&#x218;" horiz-adv-x="1138" 
d="M274 268q81 -182 306 -182q140 0 244 79q103 79 121 210q19 132 -86 202q-48 33 -113 55l-132 44q-171 58 -238 126q-104 104 -77 290t179 291q152 104 343 104q258 0 369 -182l-129 -84q-81 143 -262 143q-218 0 -321 -154q-34 -50 -45 -126t15 -128q47 -97 184 -142
l132 -44t129 -48q226 -95 188 -351q-27 -188 -175 -298t-312 -110t-279 50t-182 169zM500 -135h133l-174 -338h-109z" />
    <glyph glyph-name="scommaaccent" unicode="&#x219;" horiz-adv-x="872" 
d="M743 727q-55 133 -177 133q-155 0 -220 -86q-23 -28 -30 -78t30 -82q57 -49 222 -76q165 -28 228 -121q34 -51 22 -137q-20 -148 -128 -226q-108 -77 -243 -78q-285 -2 -367 192l119 74q29 -76 99 -116t130 -40q156 0 235 101q23 32 29 77t-13 75q-31 49 -141 79
q-48 12 -100 23q-126 27 -183 73q-80 64 -62 189t124 195q106 71 231 72q250 2 316 -177zM373 -135h133l-174 -338h-109z" />
    <glyph glyph-name="uni021A" unicode="&#x21a;" horiz-adv-x="1175" 
d="M707 1327h-496l16 123h1127l-17 -123h-495l-187 -1327h-135zM510 -135h133l-174 -338h-109z" />
    <glyph glyph-name="uni021B" unicode="&#x21b;" horiz-adv-x="681" 
d="M502 86q64 0 141 33l-6 -111q-171 -60 -273 -14q-126 56 -100 225l86 617h-205l15 110h205l38 273h123l-39 -273h271l-15 -110h-270l-86 -617q-10 -63 20 -98q31 -35 95 -35zM303 -135h133l-174 -338h-108z" />
    <glyph glyph-name="dotlessj" unicode="&#x237;" 
d="M-9 -381q75 0 113.5 52t53.5 153l157 1122h123l-155 -1112q-21 -157 -91 -241.5t-208 -84.5q-66 0 -111 19l33 108q45 -16 85 -16z" />
    <glyph glyph-name="circumflex" unicode="&#x2c6;" 
d="M377 1450h143l180 -295h-133l-135 221l-196 -221h-121z" />
    <glyph glyph-name="caron" unicode="&#x2c7;" 
d="M475 1155h-143l-182 295h126l138 -233l209 233h110z" />
    <glyph glyph-name="uni02C9" unicode="&#x2c9;" 
d="M690 1241h-540l12 98h540z" />
    <glyph glyph-name="breve" unicode="&#x2d8;" 
d="M408 1192q-122 0 -193.5 67.5t-60.5 190.5h86q4 -160 188 -160q86 0 141.5 35t87.5 125h86q-31 -123 -122 -190.5t-213 -67.5z" />
    <glyph glyph-name="dotaccent" unicode="&#x2d9;" 
d="M453 1434q41 0 65.5 -29t18 -70t-39 -69.5t-73.5 -28.5t-65.5 28.5t-18.5 69.5t39 70t74 29z" />
    <glyph glyph-name="ring" unicode="&#x2da;" 
d="M448.5 1450q-51.5 0 -89 -36t-45.5 -87t21.5 -85t79.5 -34t88 35t46 86q6 51 -21.5 86t-79 35zM600 1446q61 -78 9 -170t-108.5 -116.5t-96.5 -24.5t-71.5 15t-54 42t-32.5 62.5t-4 74.5t25.5 75t66.5 78t126 42t140 -78z" />
    <glyph glyph-name="ogonek" unicode="&#x2db;" 
d="M154 -442q-91 0 -137 45t-33 123q16 117 99 183t118 91h92q-103 -66 -141.5 -137.5t-45.5 -110.5q-12 -96 76 -96q72 0 119 47l29 -78q-85 -67 -176 -67z" />
    <glyph glyph-name="tilde" unicode="&#x2dc;" 
d="M285 1288q-77 0 -119 -98h-74q25 88 76 139q65 70 128 70t157 -51q31 -16 63 -32t68 -16t63 31t39 68h74q-25 -92 -59.5 -132t-67.5 -58.5t-74 -18.5t-75.5 16.5t-69.5 32.5t-67 32.5t-62 16.5z" />
    <glyph glyph-name="hungarumlaut" unicode="&#x2dd;" 
d="M692 1450h164l-315 -295h-103zM393 1450h164l-315 -295h-103z" />
    <glyph glyph-name="uni0394" unicode="&#x394;" horiz-adv-x="1372" 
d="M864 1321l-631 -1194h932zM31 0l780 1458h152l383 -1458h-1315z" />
    <glyph glyph-name="uni03A9" unicode="&#x3a9;" horiz-adv-x="1523" 
d="M551.5 1209q-169.5 -143 -199.5 -359q-39 -293 90 -379t220 -100l-52 -371h-514l17 119h403l23 168q-182 53 -267.5 208.5t-56.5 356.5q18 137 87 252t227 244t429 129q131 0 244 -46.5t189.5 -129t112.5 -198t20 -231.5q-30 -221 -157.5 -377t-328.5 -208l-22 -168h403
l-16 -119h-514l51 371q279 48 355.5 217.5t89.5 271.5t-13 193.5t-120 195t-312.5 103.5t-388 -143z" />
    <glyph glyph-name="uni03BC" unicode="&#x3bc;" horiz-adv-x="1138" 
d="M510 -25q-153 0 -229 78l-74 -520h-121l199 1413h123l-78 -557q-42 -303 192 -303q148 0 253 99.5t132 287.5l66 473h123l-95 -680q-9 -58 -15.5 -142t-10.5 -124h-123l14 166h-6q-84 -130 -188.5 -160.5t-161.5 -30.5z" />
    <glyph glyph-name="pi" unicode="&#x3c0;" horiz-adv-x="1153" 
d="M932 153.5q0 -22.5 9.5 -49t68.5 -26.5q28 0 75 14l-10 -74q-71 -30 -124 -30q-95 0 -115.5 55t-4.5 172l91 635h-476l-118 -850h-107l119 850h-143l12 96h987l-12 -96h-156l-92 -649q-4 -25 -4 -47.5z" />
    <glyph glyph-name="endash" unicode="&#x2013;" horiz-adv-x="1024" 
d="M76 541h1024l-17 -111h-1024z" />
    <glyph glyph-name="emdash" unicode="&#x2014;" horiz-adv-x="2048" 
d="M76 541h2048l-17 -111h-2048z" />
    <glyph glyph-name="quoteleft" unicode="&#x2018;" horiz-adv-x="532" 
d="M412 983h-148l221 467h123z" />
    <glyph glyph-name="quoteright" unicode="&#x2019;" horiz-adv-x="532" 
d="M459 1450h149l-223 -467h-121z" />
    <glyph glyph-name="quotesinglbase" unicode="&#x201a;" horiz-adv-x="532" 
d="M281 184h149l-223 -467h-121z" />
    <glyph glyph-name="quotedblleft" unicode="&#x201c;" horiz-adv-x="1064" 
d="M858 983h-149l223 467h121zM502 983h-150l223 467h121z" />
    <glyph glyph-name="quotedblright" unicode="&#x201d;" horiz-adv-x="1064" 
d="M547 1450h149l-223 -467h-121zM903 1450h150l-224 -467h-120z" />
    <glyph glyph-name="quotedblbase" unicode="&#x201e;" horiz-adv-x="1064" 
d="M369 184h149l-223 -467h-121zM725 184h149l-223 -467h-121z" />
    <glyph glyph-name="dagger" unicode="&#x2020;" horiz-adv-x="1064" 
d="M602 944h-393l14 98h393l58 408h123l-58 -408h394l-15 -98h-393l-168 -1202h-123z" />
    <glyph glyph-name="daggerdbl" unicode="&#x2021;" horiz-adv-x="1064" 
d="M492 150h-394l15 98h393l96 696h-393l14 98h393l58 408h123l-58 -408h394l-15 -98h-393l-96 -696h393l-14 -98h-394l-57 -408h-123z" />
    <glyph glyph-name="bullet" unicode="&#x2022;" horiz-adv-x="1024" 
d="M663.5 1087q75.5 0 137 -28.5t104.5 -77.5t61.5 -114.5t8.5 -141.5t-48 -141.5t-94.5 -114.5t-126 -78t-145.5 -29t-137.5 29t-104.5 78t-61 114.5t-8 141.5t48 141.5t94.5 114.5t126 77.5t145 28.5z" />
    <glyph glyph-name="ellipsis" unicode="&#x2026;" horiz-adv-x="2048" 
d="M1731 184q41 0 65.5 -28.5t19.5 -69.5t-38 -69.5t-74 -28.5t-65.5 28.5t-20.5 69.5q6 41 39 69.5t74 28.5zM1049 184q41 0 65.5 -28.5t19.5 -69.5t-38 -69.5t-74 -28.5t-65.5 28.5t-20.5 69.5q6 41 39 69.5t74 28.5zM367 184q41 0 65.5 -28.5t19.5 -69.5t-38 -69.5
t-74 -28.5t-65.5 28.5t-20.5 69.5q6 41 39 69.5t74 28.5z" />
    <glyph glyph-name="perthousand" unicode="&#x2030;" horiz-adv-x="2009" 
d="M702 1313.5q-53 62.5 -141 62.5t-162 -63t-86 -153q-12 -89 41.5 -151.5t143.5 -62.5t161.5 63.5t83.5 152.5t-41 151.5zM780.5 1382.5q77.5 -92.5 59.5 -222.5t-122 -221t-234 -91t-209 93.5t-62 218.5t123.5 220t236.5 95t207.5 -92.5zM1653 74q139 0 188 85t55 130
q12 90 -41 152.5t-141 62.5t-162 -63t-86 -153q-12 -89 42.5 -151.5t144.5 -62.5zM1934 510q77 -92 62 -219q-16 -127 -121.5 -221.5t-235.5 -94.5t-208.5 92t-62.5 219t121.5 221.5t236.5 94.5t208 -92zM950 74q140 0 189 85t55 130q12 90 -41 152.5t-141 62.5t-162 -62.5
t-86 -152.5t42 -152.5t144 -62.5zM1231.5 510.5q76.5 -91.5 61.5 -220.5q-16 -128 -121.5 -221.5t-235.5 -93.5q-129 0 -207.5 91t-62.5 220t121.5 222.5t236.5 93.5t207.5 -91.5zM1282 1520l86 -58l-1151 -1532l-84 58z" />
    <glyph glyph-name="guilsinglleft" unicode="&#x2039;" horiz-adv-x="645" 
d="M197 485l338 416l77 -59l-286 -357l190 -360l-98 -55z" />
    <glyph glyph-name="guilsinglright" unicode="&#x203a;" horiz-adv-x="645" 
d="M584 485l-340 -415l-78 59l289 356l-191 361l96 55z" />
    <glyph glyph-name="fraction" unicode="&#x2044;" horiz-adv-x="344" 
d="M805 1520l86 -58l-1149 -1532l-84 58z" />
    <glyph glyph-name="Euro" unicode="&#x20ac;" horiz-adv-x="962" 
d="M885 1366q-141 0 -251 -106.5t-175 -315.5h456l-38 -98h-447q-24 -65 -39 -238h410l-37 -98h-375q-4 -199 78 -310.5t223 -111.5q104 0 207 55l8 -116q-102 -60 -227 -60t-201 40t-151.5 148t-75.5 355h-129l39 98h98q-3 34 11 118t26 120h-121l35 98h106
q88 274 236.5 406.5t345.5 132.5q122 0 207 -41l-47 -113q-66 37 -172 37z" />
    <glyph glyph-name="afii61289" unicode="&#x2113;" horiz-adv-x="1024" 
d="M782.5 1391q-53.5 0 -103.5 -60.5t-69 -189.5l-69 -490q150 147 235 289t99 246t-12.5 154.5t-80 50.5zM784 1464q103 0 153.5 -67t30.5 -201q-39 -272 -440 -629l-43 -311q-15 -103 28.5 -146.5t122.5 -43.5t177 69l31 -49q-127 -102 -250 -102t-183.5 60t-41.5 189
l37 265l-150 -140l-35 58l197 168l74 534q23 160 106 253t186 93z" />
    <glyph glyph-name="trademark" unicode="&#x2122;" horiz-adv-x="2027" 
d="M1182 1450h176l172 -672l358 672h170l-119 -844h-110l104 740h-4l-395 -740h-66l-186 740h-4l-104 -740h-111zM633 1352h-273l15 98h655l-14 -98h-273l-104 -746h-111z" />
    <glyph glyph-name="Omega" unicode="&#x2126;" horiz-adv-x="1523" 
d="M551.5 1209q-169.5 -143 -199.5 -359q-39 -293 90 -379t220 -100l-52 -371h-514l17 119h403l23 168q-182 53 -267.5 208.5t-56.5 356.5q18 137 87 252t227 244t429 129q131 0 244 -46.5t189.5 -129t112.5 -198t20 -231.5q-30 -221 -157.5 -377t-328.5 -208l-22 -168h403
l-16 -119h-514l51 371q279 48 355.5 217.5t89.5 271.5t-13 193.5t-120 195t-312.5 103.5t-388 -143z" />
    <glyph glyph-name="estimated" unicode="&#x212e;" horiz-adv-x="1024" 
d="M918 604v297q-129 123 -301.5 123t-294.5 -123v-297h596zM322 530v-370q121 -121 296 -121q129 0 223.5 58.5t172.5 187.5l71 -43q-96 -151 -202 -214t-246 -63t-237 44t-166.5 121t-106.5 179.5t-37 284t146.5 342t382.5 160.5q235 0 382.5 -159t147.5 -407h-827z" />
    <glyph glyph-name="partialdiff" unicode="&#x2202;" horiz-adv-x="1015" 
d="M592 756q-148 0 -235.5 -96.5t-104.5 -229.5t40.5 -239.5t190.5 -106.5q160 0 255.5 151t131.5 334q-47 74 -120.5 130.5t-157.5 56.5zM631 1477q153 0 240 -70t156.5 -248.5t-27 -603t-266 -502.5t-266.5 -78q-188 0 -279 135t-66 322t150.5 312.5t308.5 125.5
q100 0 182 -47t133 -125q4 27 9 53.5t13 82.5t4.5 153.5t-55 237t-241.5 139.5q-72 0 -127.5 -26.5t-114.5 -67.5l-61 88q154 119 307 119z" />
    <glyph glyph-name="Delta" unicode="&#x2206;" horiz-adv-x="1372" 
d="M864 1321l-631 -1194h932zM31 0l780 1458h152l383 -1458h-1315z" />
    <glyph glyph-name="product" unicode="&#x220f;" horiz-adv-x="1456" 
d="M1178 -438v1921h-897v-1921h-136v2048h1168v-2048h-135z" />
    <glyph glyph-name="summation" unicode="&#x2211;" horiz-adv-x="1236" 
d="M51 -438v112l674 918l-645 903v115h1079v-127h-905l633 -891l-672 -905h969v-125h-1133z" />
    <glyph glyph-name="minus" unicode="&#x2212;" horiz-adv-x="1363" 
d="M252 670h1044l-12 -99h-1044z" />
    <glyph glyph-name="uni2215" unicode="&#x2215;" horiz-adv-x="344" 
d="M592 1520l94 -58l-936 -1532l-92 58z" />
    <glyph glyph-name="uni2219" unicode="&#x2219;" horiz-adv-x="532" 
d="M371 750q41 0 65.5 -29t18.5 -70t-39 -69.5t-74 -28.5t-65.5 28.5t-18.5 69.5t39 70t74 29z" />
    <glyph glyph-name="radical" unicode="&#x221a;" horiz-adv-x="1009" 
d="M598 -438h-135l-336 696l-94 -45l-49 102l204 99l324 -680l387 1876h129z" />
    <glyph glyph-name="infinity" unicode="&#x221e;" horiz-adv-x="1517" 
d="M244.5 641q-43.5 -55 -43.5 -131t45 -127t139 -51t181 75.5t116 102.5q-101 88 -173 137t-147 49q-74 0 -117.5 -55zM1317 511q0 77 -42 132t-123 55t-151 -53t-163 -137q98 -86 166 -131t147 -45q80 0 123 51t43 128zM1355.5 300q-78.5 -87 -218.5 -87t-239 90t-138 129
q-45 -37 -145.5 -128t-235.5 -91t-215 84t-80 212t77 216t212 88q134 0 240 -95t147 -134q41 39 139.5 135t234.5 96q137 0 218.5 -83.5t81.5 -214t-78.5 -217.5z" />
    <glyph glyph-name="integral" unicode="&#x222b;" horiz-adv-x="1112" 
d="M831 1504q0 -32 -21.5 -49t-51.5 -17t-45 12t-24 27.5t-17 29t-28 13.5t-34 -27t-25.5 -91.5t-8 -160.5t3.5 -113v-1032q0 -66 -2.5 -157t-41 -233t-206.5 -142q-43 0 -83 22.5t-40 62.5t19.5 58.5t47.5 18.5t42 -12.5t23 -27t17.5 -26.5t20.5 -12q65 0 65 65v260l2 43
v1014q0 47 -2 108.5t7.5 266.5t238.5 205q94 0 118.5 -37t24.5 -69z" />
    <glyph glyph-name="approxequal" unicode="&#x2248;" horiz-adv-x="1363" 
d="M186 190q72 263 276 263q92 0 278 -75q185 -75 272 -75q136 0 192 160h66q-50 -177 -134 -217.5t-144 -40.5t-133 23.5t-144.5 52t-139 51t-133.5 22.5t-116 -49t-72 -115h-68zM236 541q72 262 276 262q90 1 220 -51q129 -52 198 -75.5t131 -23.5q136 0 192 160h66
q-50 -177 -133.5 -217.5t-143.5 -40.5t-133 23.5t-145 52t-139 51.5t-133 23t-116 -49.5t-73 -114.5h-67z" />
    <glyph glyph-name="notequal" unicode="&#x2260;" horiz-adv-x="1363" 
d="M637 258l-195 -291l-80 43l166 248h-313l14 98h365l194 291h-518l15 98h571l199 297l78 -45l-168 -252h323l-14 -98h-375l-197 -291h531l-14 -98h-582z" />
    <glyph glyph-name="lessequal" unicode="&#x2264;" horiz-adv-x="1363" 
d="M266 616l17 115l1056 377l-16 -107l-928 -329l836 -328l-14 -104zM182 25l15 96h1003l-14 -96h-1004z" />
    <glyph glyph-name="greaterequal" unicode="&#x2265;" horiz-adv-x="1363" 
d="M182 25l15 96h1003l-14 -96h-1004zM213 240l14 104l930 328l-838 329l17 107l950 -377l-16 -115z" />
    <glyph glyph-name="lozenge" unicode="&#x25ca;" horiz-adv-x="1214" 
d="M606 1395l-278 -666l278 -666l281 666zM670 -72h-129l-346 801l346 801h129l350 -801z" />
    <glyph glyph-name="grave.cap" unicode="&#xe300;" 
d="M580 1540h-103l-233 295h164z" />
    <glyph glyph-name="acute.cap" unicode="&#xe301;" 
d="M596 1835h164l-316 -295h-102z" />
    <glyph glyph-name="circumflex.cap" unicode="&#xe302;" 
d="M430 1835h143l181 -295h-133l-136 221l-196 -221h-121z" />
    <glyph glyph-name="caron.cap" unicode="&#xe303;" 
d="M528 1540h-143l-182 295h127l137 -233l209 233h110z" />
    <glyph glyph-name="tilde.cap" unicode="&#xe304;" 
d="M360 1784q41 0 77 -16.5t70 -33.5t63.5 -32.5t66.5 -15.5t64.5 30.5t39.5 67.5h74q-38 -142 -100 -175.5t-102 -33.5t-75.5 16.5t-70.5 32.5t-66.5 32.5t-70.5 16.5q-64 0 -109 -98h-74q27 91 65 131t72.5 59t75.5 19z" />
    <glyph glyph-name="dieresis.cap" unicode="&#xe305;" 
d="M694 1819q41 0 65.5 -29t19.5 -70t-37.5 -69.5t-73.5 -28.5t-65.5 28.5t-18.5 69.5q4 41 36.5 70t73.5 29zM305 1819q41 0 65.5 -29t19.5 -70t-38 -69.5t-73.5 -28.5t-65 28.5t-18.5 69.5q4 41 36.5 70t73.5 29z" />
    <glyph glyph-name="macron.cap" unicode="&#xe306;" 
d="M745 1636h-540l14 99h541z" />
    <glyph glyph-name="breve.cap" unicode="&#xe307;" 
d="M477 1645q86 0 141.5 33.5t88.5 125.5h86q-31 -123 -121 -190.5t-213 -67.5t-194.5 67.5t-61.5 190.5h86q4 -159 188 -159z" />
    <glyph glyph-name="ring.cap" unicode="&#xe308;" 
d="M502 1835q-51 0 -88 -36t-45.5 -87t21.5 -85t80 -34t87 35t45 86t-20.5 86t-79.5 35zM653 1832.5q61 -76.5 11 -169.5t-107 -118t-96 -25q-80 0 -128 57t-37 138t74.5 137.5t142.5 56.5t140 -76.5z" />
    <glyph glyph-name="hungarumlaut.cap" unicode="&#xe309;" 
d="M745 1835h164l-315 -295h-102zM446 1835h164l-315 -295h-102z" />
    <glyph glyph-name="dotaccent.cap" unicode="&#xe30a;" 
d="M506 1819q41 0 65.5 -29t19.5 -70t-38 -69.5t-74 -28.5t-65.5 28.5t-18.5 69.5q4 41 37 70t74 29z" />
    <glyph glyph-name="caron.alt" unicode="&#xe30b;" 
d="M391 1450h133l-184 -379h-109z" />
    <glyph glyph-name="commaaccent" unicode="&#xe30c;" 
d="M168 -135h133l-174 -338h-109z" />
    <glyph glyph-name="commaaccent.alt" unicode="&#xe30d;" 
d="M446 1217h-133l176 337h109z" />
    <glyph glyph-name="uniF8FF" unicode="&#xf8ff;" horiz-adv-x="1048" 
d="M1049 1470v-1470h-1049v1470h1049zM946 102v1264h-844v-1264h844zM680 971q0 74 -46 124t-109.5 50t-109.5 -45t-59 -150l-102 17q14 147 90 213.5t186.5 66.5t182 -72.5t71.5 -195.5q0 -66 -25.5 -120t-102.5 -124q-77 -69 -89 -109t-12 -147h-94l-4 35q0 115 27 167
t94 120q66 61 84 97t18 73zM455 240v137h114v-137h-114z" />
    <glyph glyph-name="fi" unicode="&#xfb01;" horiz-adv-x="1062" 
d="M756 1573q66 0 118 -25l-40 -106q-39 20 -107 20q-168 0 -201 -252l-39 -264h222l-15 -110h-221l-117 -836h-123l117 836h-196l14 110h197l45 309q21 162 118 240t228 78zM1014 1413q39 0 62.5 -26.5t18.5 -65.5t-36 -65.5t-70 -26.5t-61.5 26.5t-18.5 65.5q6 39 36 65.5
t69 26.5zM887 946h123l-131 -946h-123z" />
    <glyph glyph-name="fl" unicode="&#xfb02;" horiz-adv-x="1062" 
d="M973 1548h123l-217 -1548h-123zM756 1573q66 0 118 -25l-40 -106q-39 20 -107 20q-168 0 -201 -252l-39 -264h222l-15 -110h-221l-117 -836h-123l117 836h-196l14 110h197l45 309q21 162 118 240t228 78z" />
    </font>
</defs>
</svg>
