<?xml version="1.0" encoding="utf-8"?>
<!-- Generator: Adobe Illustrator 19.2.1, SVG Export Plug-In . SVG Version: 6.00 Build 0)  -->
<svg version="1.1" id="Calque_1" xmlns="http://www.w3.org/2000/svg" xmlns:xlink="http://www.w3.org/1999/xlink" x="0px" y="0px"
	 viewBox="0 0 78 77.7" style="enable-background:new 0 0 78 77.7;" xml:space="preserve">
<style type="text/css">
	.st0{fill:#F9F9FA;}
</style>
<path class="st0" d="M76.4,60C72.8,54.1,62.1,45,57.7,45c-0.1,0-0.2,0-0.3,0c-3.8,0.3-7.5,5.2-9.4,8.1L24.6,29.8
	c1.9-1.4,4.9-4.1,7.9-8.5c1-1.4,1.7-3.8-0.2-7.4C29,7.5,17.9,0,13.3,0c-0.6,0-1,0.1-1.5,0.3C8.3,2,4.3,7.4,3.6,8.5
	C-3.5,15.7,1,32.6,7.8,39.9c1.8,1.9,3.9,4.4,6.2,7c5.8,6.6,13,14.7,19.8,20.8c6.8,6,17.2,10.1,25.5,10.1l0,0c4.3,0,7.8-1.2,10.1-3.3
	c1-0.7,6-3.9,8.2-8.3C78.4,64.5,78,62.5,76.4,60z M74.4,64.5c-2,3.9-7,6.9-7,7l-0.2,0.1l-0.2,0.2c-1.6,1.6-4.3,2.5-7.7,2.5
	c-7.4,0-17.1-3.9-23.2-9.3c-6.7-5.9-13.8-14-19.5-20.4c-2.3-2.6-4.5-5.1-6.3-7c-5.6-6-9.9-20.9-4.2-26.6l0.2-0.2
	c1.1-1.6,4.5-5.9,6.9-7.1c0,0,0,0,0,0c2.8,0,12.9,6.5,15.9,12.1c0.8,1.6,1,2.9,0.4,3.7c-4.2,6.2-8.5,8.6-8.6,8.6L19,29.1l29.8,29.8
	l1.1-2c1.8-3.2,5.5-8.1,7.8-8.3c2.4,0,12,7.4,15.6,13.1C74.7,63.8,74.4,64.5,74.4,64.5z"/>
<path class="st0" d="M65.8,31.9c0.9,0,1.9-0.9,1.9-1.9c0-0.9-0.9-1.9-1.9-1.9l-11-0.1l14.5-14.2c0.8-0.8,0.8-2,0-2.8
	c-0.8-0.8-2-0.8-2.8,0L52,25.2l0.1-11c0-0.9-0.9-1.9-1.9-1.9c-0.6,0-0.9,0.3-1.3,0.6s-0.6,0.9-0.6,1.3l-0.2,17.3L65.8,31.9z"/>
</svg>
