<svg id="Calque_1" data-name="Calque 1" xmlns="http://www.w3.org/2000/svg" viewBox="0 0 78.5 63.5"><defs><style>.cls-1{fill:none;stroke:#f9f9f9;stroke-miterlimit:10;stroke-width:0.5px;}</style></defs><title>back-heat</title><path class="cls-1" d="M86,25H14a3,3,0,0,0-3,3V69a3,3,0,0,0,3,3H31.3a15.08,15.08,0,0,1-1.1,4.2A23.24,23.24,0,0,0,28.6,85a3,3,0,0,0,6,0,17.4,17.4,0,0,1,1.2-6.7A23.24,23.24,0,0,0,37.3,72h11a15.08,15.08,0,0,1-1.1,4.2A23.24,23.24,0,0,0,45.6,85a3,3,0,0,0,6,0,17.4,17.4,0,0,1,1.2-6.7A23.24,23.24,0,0,0,54.3,72h11a15.08,15.08,0,0,1-1.1,4.2A23.24,23.24,0,0,0,62.6,85a3,3,0,0,0,6,0,17.41,17.41,0,0,1,1.2-6.7A23.24,23.24,0,0,0,71.3,72H86a3,3,0,0,0,3-3V28A3,3,0,0,0,86,25ZM83,66H71.2a20.17,20.17,0,0,0-1.4-5.3A16,16,0,0,1,68.6,54a14.75,14.75,0,0,1,.6-4.8l3,0.6L68.5,38.4l-8,8.9,2.9,0.6a22.89,22.89,0,0,0-.7,6,21.79,21.79,0,0,0,1.6,8.8,15,15,0,0,1,.9,3.2h-11a20.17,20.17,0,0,0-1.4-5.3,16,16,0,0,1-1.2-6.7,14.75,14.75,0,0,1,.6-4.8l3,0.6L51.5,38.3l-8,8.9,2.9,0.6a22.89,22.89,0,0,0-.7,6,21.79,21.79,0,0,0,1.6,8.8,15,15,0,0,1,.9,3.2h-11a20.17,20.17,0,0,0-1.4-5.3,16,16,0,0,1-1.2-6.7,14.75,14.75,0,0,1,.6-4.8l3,0.6L34.5,38.2l-8,8.9,2.9,0.6a22.89,22.89,0,0,0-.7,6,21.79,21.79,0,0,0,1.6,8.8,15,15,0,0,1,.9,3.2H17V31H83V66Z" transform="translate(-10.75 -24.75)"/></svg>