<svg id="Calque_1" data-name="Calque 1" xmlns="http://www.w3.org/2000/svg" viewBox="0 0 54.96 61.78"><defs><style>.cls-1{fill:#f9f9f9;}</style></defs><title>bank</title><path class="cls-1" d="M42.3,18.8l-1.49-.62a24.1,24.1,0,0,0-18.57,0l-1.49.62L20,17.36a12.71,12.71,0,0,1-1.35-5.7c0-6.39,4.68-10.05,12.84-10.05S44.36,5.27,44.36,11.66A12.71,12.71,0,0,1,43,17.36ZM31.53,5c-6.24,0-9.4,2.23-9.4,6.62a9.24,9.24,0,0,0,.41,2.73,27.7,27.7,0,0,1,18,0,9.24,9.24,0,0,0,.41-2.73C40.93,7.27,37.76,5,31.53,5Z" transform="translate(-4.05 -1.6)"/><path class="cls-1" d="M31.53,63.39c-16.69,0-27.48-9-27.48-23a27.48,27.48,0,0,1,55,0C59,54.35,48.22,63.39,31.53,63.39Zm0-47.07a24.07,24.07,0,0,0-24,24C7.48,54.81,19.9,60,31.53,60s24-5.15,24-19.59A24.07,24.07,0,0,0,31.53,16.32Z" transform="translate(-4.05 -1.6)"/><path class="cls-1" d="M38.21,41c-0.45-4.11-3.69-5.47-6.46-6.21V30.41a5.5,5.5,0,0,1,2,.45A1.2,1.2,0,0,0,35.45,30l0.47-2.13a1.19,1.19,0,0,0-.68-1.35,8.93,8.93,0,0,0-3.48-.65v-2a0.92,0.92,0,1,0-1.84,0V26c-4.16.59-6.87,3.6-6.46,7.26,0.33,3,2.45,4.94,6.46,6v5a7.35,7.35,0,0,1-3.22-.7,1.2,1.2,0,0,0-1.7.84l-0.43,2.19a1.2,1.2,0,0,0,.62,1.29,10.75,10.75,0,0,0,4.73.91v2a0.92,0.92,0,0,0,1.84,0V48.56C36.69,47.71,38.57,44.2,38.21,41Zm-9.87-8.51a1.78,1.78,0,0,1,1.57-1.87v3.58C28.59,33.61,28.41,33.1,28.34,32.45Zm3.41,11.48V39.84a2.09,2.09,0,0,1,1.56,1.88A2,2,0,0,1,31.75,43.93Z" transform="translate(-4.05 -1.6)"/></svg>