<svg id="Calque_1" data-name="Calque 1" xmlns="http://www.w3.org/2000/svg" viewBox="0 0 47.37 51.93"><defs><style>.cls-1{fill:#f9f9f9;}</style></defs><title>bar</title><path class="cls-1" d="M32.74,56h6.19a1.22,1.22,0,0,1,1.22,1.24,1.25,1.25,0,0,1-1.24,1.24H24.09a1.24,1.24,0,0,1,0-2.47h6.19V37.2L8.46,9.45C7.2,7.84,7.84,6.54,9.9,6.54H53.1c2.07,0,2.7,1.31,1.43,2.92L32.74,37.2V56Zm19-47H11.26L31.5,34.77Z" transform="translate(-7.81 -6.54)"/><path class="cls-1" d="M50,14l-2.47,2.47H15.43L13,14H50Z" transform="translate(-7.81 -6.54)"/></svg>