<svg id="Calque_1" data-name="Calque 1" xmlns="http://www.w3.org/2000/svg" viewBox="0 0 52.73 20.5"><defs><style>.cls-1{fill:#f9f9f9;stroke:#f9f9f9;stroke-miterlimit:10;}</style></defs><title>battery</title><path class="cls-1" d="M57.08,26.6a1.08,1.08,0,0,0-.79-0.79l0,0H54.41V22a1.9,1.9,0,0,0-1.9-1.9H7.28A1.9,1.9,0,0,0,5.39,22V37.69a1.9,1.9,0,0,0,1.9,1.9H52.51a1.9,1.9,0,0,0,1.9-1.9V33.9h1.85l0,0a1.08,1.08,0,0,0,.79-0.79l0,0V26.63ZM53.32,37.69a0.81,0.81,0,0,1-.81.81H7.28a0.81,0.81,0,0,1-.81-0.81V22a0.81,0.81,0,0,1,.81-0.81H52.51a0.81,0.81,0,0,1,.81.81V37.69Z" transform="translate(-4.89 -19.58)"/><path class="cls-1" d="M16.43,23.38H8.38a0.86,0.86,0,0,0-1,.69V35.6a0.86,0.86,0,0,0,1,.69H40.5L29.43,23.38h-13Z" transform="translate(-4.89 -19.58)"/></svg>