<svg id="Calque_1" data-name="Calque 1" xmlns="http://www.w3.org/2000/svg" viewBox="0 0 58.26 26.74"><defs><style>.cls-1{fill:none;stroke:#f9f9f9;stroke-miterlimit:10;}</style></defs><title>blackhole</title><path class="cls-1" d="M41.34,34.3a5.3,5.3,0,0,1-.46,1.91,10,10,0,0,1-17.77,0,5.32,5.32,0,0,1-.46-1.91l-1.63,0A4.11,4.11,0,0,0,20.89,36S22,44.87,32,44.87h0C42.05,44.87,43.11,36,43.11,36A4.12,4.12,0,0,0,43,34.26Zm-3.06,0c-2,0-3.67,0-4.73,0H30.45c-1.06,0-2.73,0-4.73,0A6.74,6.74,0,0,0,38.28,34.35ZM32,25.15a6.74,6.74,0,0,0-6.74,6.74c0,0.06,0,.12,0,0.18,1.85,0,4.08.07,6.74,0.07s4.88,0,6.74-.07c0-.06,0-0.12,0-0.18A6.74,6.74,0,0,0,32,25.15Zm7.22,6.17h0A7.25,7.25,0,0,0,32,24.65h0a7.25,7.25,0,0,0-7.22,6.66h0a0.74,0.74,0,0,1-.49.62l-0.37.1,0.59,0A0.91,0.91,0,0,0,25,31.33a7.07,7.07,0,0,1,14.09,0,0.91,0.91,0,0,0,.45.73l0.59,0-0.37-.1A0.74,0.74,0,0,1,39.22,31.33ZM55,30.91s-7,0-9.07-3.24C41.34,20.4,36.39,19.13,32,19.13s-9.34,1.27-13.93,8.55C16,30.95,9,30.91,9,30.91s-10.1.58-3.23,1.86S32,33.93,32,33.93s19.37,0.13,26.24-1.15S55,30.91,55,30.91Zm-8.55,1.2c-2,.22-6.44.49-14.45,0.49h0c-8,0-12.49-.27-14.45-0.49s1.33-1,1.33-1a3.62,3.62,0,0,0,2.57-2.21c3.48-7.58,10.55-7,10.55-7s7.07-.53,10.55,7a3.62,3.62,0,0,0,2.57,2.21S48.4,31.9,46.45,32.11Z" transform="translate(-2.87 -18.63)"/></svg>