<?xml version="1.0" encoding="utf-8"?>
<!-- Generator: Adobe Illustrator 19.2.1, SVG Export Plug-In . SVG Version: 6.00 Build 0)  -->
<svg version="1.1" id="Calque_1" xmlns="http://www.w3.org/2000/svg" xmlns:xlink="http://www.w3.org/1999/xlink" x="0px" y="0px"
	 viewBox="0 0 48 80" style="enable-background:new 0 0 48 80;" xml:space="preserve">
<style type="text/css">
	.st0{fill:#F9F9F9;}
</style>
<path class="st0" d="M24,80c-0.6,0-1.1-0.1-1.6-0.3C20.9,79,20,77.6,20,76V49L6.7,61C5,62.5,2.5,62.3,1,60.7
	C-0.5,59-0.3,56.5,1.3,55L18,40L1.3,25c-1.6-1.5-1.8-4-0.3-5.6c1.5-1.6,4-1.8,5.6-0.3L20,31V4c0-1.6,0.9-3,2.4-3.7
	C23.8-0.3,25.5,0,26.7,1l20,18c0.8,0.8,1.3,1.8,1.3,3c0,1.1-0.5,2.2-1.3,3L30,40l16.7,15c0.8,0.8,1.3,1.8,1.3,3s-0.5,2.2-1.3,3
	l-20,18C25.9,79.6,25,80,24,80z M28,49v18l10-9L28,49z M28,13v18l10-9L28,13z"/>
</svg>
