<svg id="Calque_1" data-name="Calque 1" xmlns="http://www.w3.org/2000/svg" viewBox="0 0 58.13 58.92"><defs><style>.cls-1{fill:none;stroke:#f9f9f9;stroke-miterlimit:10;stroke-width:0.8px;}</style></defs><title>contact</title><path class="cls-1" d="M13.37,32.39a0.73,0.73,0,0,1-.73-0.73,20.19,20.19,0,0,1,1.85-8.48,20.36,20.36,0,0,1,37,0,0.73,0.73,0,1,1-1.33.61,18.9,18.9,0,0,0-34.37,0,18.74,18.74,0,0,0-1.72,7.87A0.73,0.73,0,0,1,13.37,32.39Z" transform="translate(-3.94 -2.54)"/><path class="cls-1" d="M58.25,39.85a14.78,14.78,0,0,0,2-7.53,14.57,14.57,0,0,0-2.25-8,25.35,25.35,0,0,1,.29,3.83V39.85Z" transform="translate(-3.94 -2.54)"/><path class="cls-1" d="M8,24.36a14.55,14.55,0,0,0-2.25,8,14.78,14.78,0,0,0,2,7.53V28.18A25.41,25.41,0,0,1,8,24.36Z" transform="translate(-3.94 -2.54)"/><path class="cls-1" d="M57.3,21.35a25.24,25.24,0,0,0-48.6,0,14.91,14.91,0,0,0-4.36,11,15.43,15.43,0,0,0,3.42,10C7.85,54.4,16.8,61.06,33,61.06S58.15,54.4,58.24,42.31a15.43,15.43,0,0,0,3.42-10A14.92,14.92,0,0,0,57.3,21.35ZM7.75,28.18V39.85a14.78,14.78,0,0,1-2-7.53,14.56,14.56,0,0,1,2.25-8A25.41,25.41,0,0,0,7.75,28.18ZM32.27,55V59.6c-10.26-.13-22.06-3.1-23-15.82,0-.53-0.07-1.08-0.07-1.65V28.18a23.74,23.74,0,0,1,.78-6q0.3-1.13.7-2.21A23.83,23.83,0,0,1,32.27,4.42v4a0.72,0.72,0,0,0,0,.2A23.15,23.15,0,0,0,13.7,19c-0.35.53-.68,1.08-1,1.65s-0.48.91-.69,1.37a23,23,0,0,0,1.6,22.11c0.33,0.51.68,1,1.06,1.5a23,23,0,0,0,17.66,9.06A0.73,0.73,0,0,0,32.27,55ZM16.34,45.43c-0.34-.41-0.67-0.84-1-1.28a21.37,21.37,0,0,1-.83-23.7q0.44-.72.92-1.4a21.58,21.58,0,0,1,35.08,0q0.49,0.68.92,1.4a21.12,21.12,0,0,1,3.16,11.21,21.49,21.49,0,0,1-4,12.48c-0.31.44-.63,0.87-1,1.28A21.59,21.59,0,0,1,16.34,45.43ZM33.73,59.6V55a0.72,0.72,0,0,0-.06-0.29,23.05,23.05,0,0,0,17.66-9.06q0.56-.73,1.05-1.5A23,23,0,0,0,54,22.05c-0.21-.47-0.45-0.93-0.69-1.37s-0.64-1.11-1-1.65A23.16,23.16,0,0,0,33.69,8.61a0.68,0.68,0,0,0,0-.2v-4A23.83,23.83,0,0,1,55.31,19.94q0.4,1.08.7,2.21a23.74,23.74,0,0,1,.78,6V42.13c0,0.57,0,1.11-.07,1.65C55.79,56.5,44,59.47,33.73,59.6ZM58,24.35a14.57,14.57,0,0,1,2.25,8,14.78,14.78,0,0,1-2,7.53V28.18A25.43,25.43,0,0,0,58,24.35Z" transform="translate(-3.94 -2.54)"/><ellipse class="cls-1" cx="29.82" cy="6.68" rx="1.16" ry="0.5" transform="translate(-4.67 3.38) rotate(-11.21)"/><path class="cls-1" d="M34.86,6.45a1.08,1.08,0,0,0,1,.72,1.07,1.07,0,0,0,1.23-.27,1.07,1.07,0,0,0-1-.72A1.07,1.07,0,0,0,34.86,6.45Z" transform="translate(-3.94 -2.54)"/><ellipse class="cls-1" cx="29.73" cy="57.39" rx="0.5" ry="1.16" transform="translate(-38 65.21) rotate(-71.84)"/><ellipse class="cls-1" cx="26.21" cy="56.92" rx="0.5" ry="1.16" transform="translate(-39.98 61.56) rotate(-71.86)"/><path class="cls-1" d="M35,57.75a1.07,1.07,0,0,0,1.26.12A1.07,1.07,0,0,0,37.16,57a1.07,1.07,0,0,0-1.26-.12A1.07,1.07,0,0,0,35,57.75Z" transform="translate(-3.94 -2.54)"/><ellipse class="cls-1" cx="39.58" cy="56.92" rx="1.16" ry="0.5" transform="translate(-19.69 12.61) rotate(-18.14)"/></svg>