<svg id="Calque_1" data-name="Calque 1" xmlns="http://www.w3.org/2000/svg" viewBox="0 0 89.52 57.3"><defs><style>.cls-1{fill:none;stroke:#f9f9f9;stroke-miterlimit:10;stroke-width:0.5px;}</style></defs><title>controls</title><path class="cls-1" d="M17.7,38.1l-1.5-.7C16.2,34,18,32,15,31.6L9.6,31c-1.4-.1-2.3-0.4-3.1.8a5.78,5.78,0,0,0-1,3.2c1.3,0.7,5.9,2.2,7.7,2.9,1.2,0.4,1.5.5,1.7,1.9-1.4,1.1-1.9.9-3,2.3-2.7,3.1-3.5,8.8-3.7,13C8,57.1,7.9,63.4,8,68.9V77a1.37,1.37,0,0,0,1.4,1.4H27.2A1.43,1.43,0,0,0,28.6,77V72.2c18.5,1.2,24.3,1.2,42.8,0V77a1.37,1.37,0,0,0,1.4,1.4H90.6A1.43,1.43,0,0,0,92,77V68.9c0-5.4-.1-11.8-0.2-13.8-0.2-4.2-1-9.9-3.7-13-1.1-1.3-1.7-1.2-3-2.3,0.2-1.4.5-1.5,1.7-1.9A62.09,62.09,0,0,0,94.5,35a5.78,5.78,0,0,0-1-3.2c-0.8-1.2-1.7-1-3.1-.8l-5.4.6c-3,.3-1.1,2.3-1.2,5.8l-1.5.7c-1.4-2.8-2.7-5.7-4.2-8.6-2-4-1.5-4.9-6.5-6.1C61.2,21,38.9,21,28.5,23.4c-5,1.1-4.5,2.1-6.5,6.1-1.5,2.9-2.8,5.8-4.3,8.6h0ZM82.5,61.4a2.7,2.7,0,1,1-2.7,2.7,2.69,2.69,0,0,1,2.7-2.7h0Zm-65,0a2.7,2.7,0,1,1-2.7,2.7,2.69,2.69,0,0,1,2.7-2.7h0Zm69-16c1,0.8,1.7,4.5.3,6.1l-4,3.8c-1.4,1.2-7.4,1.7-9.8,1.8a2.47,2.47,0,0,1-2.2-.7c-0.2-.2-0.3-0.4-0.5-0.6-4.3-6.1-1.9-5.1,10-9,1.4-.5,5.2-2.2,6.2-1.4h0Zm-73,0c1.1-.9,4.8.9,6.1,1.3,11.9,3.9,14.2,2.9,10,9a3.17,3.17,0,0,1-.5.6,2.47,2.47,0,0,1-2.2.7c-2.4-.1-8.3-0.6-9.8-1.8l-4-3.8c-1.4-1.5-.7-5.2.4-6h0ZM68.9,56.7c-4.6,1-33.2,1-37.8,0l3.2-5.4a127.7,127.7,0,0,0,31.5,0l3.1,5.4h0Zm4.2,3.1L72.7,68c-10.8,1.6-34.5,1.6-45.3,0L27,59.8a9.48,9.48,0,0,1,3.8-.4H69.4a11.68,11.68,0,0,1,3.7.4h0ZM30.3,70.4c-6.9-.7-3.7,1.5-9.5.9-2-.2-8.5-0.6-9.9-1.1-1.4-3.4-1.9-19.4,1-25.1,1.5-2.9,2.1-2.7,5.1-4,1.2-.6,1.7-1.6,3.1-1.8a31.68,31.68,0,0,1,4.3.2c18.9,0.8,32.2.8,51.1,0a31.68,31.68,0,0,1,4.3-.2c1.3,0.2,1.8,1.2,3.1,1.8,3,1.4,3.6,1.1,5.1,4,2.9,5.7,2.4,21.7,1.1,25.1-1.4.5-7.9,0.9-9.9,1.1-5.8.6-2.6-1.6-9.5-.9A199.51,199.51,0,0,1,30.3,70.4Z" transform="translate(-5.24 -21.35)"/></svg>