<?xml version="1.0" encoding="utf-8"?>
<!-- Generator: Adobe Illustrator 19.2.1, SVG Export Plug-In . SVG Version: 6.00 Build 0)  -->
<svg version="1.1" id="Calque_1" xmlns="http://www.w3.org/2000/svg" xmlns:xlink="http://www.w3.org/1999/xlink" x="0px" y="0px"
	 viewBox="0 0 523 523" style="enable-background:new 0 0 523 523;" xml:space="preserve">
<style type="text/css">
	.st0{fill:#F9F9F9;stroke:#F9F9F9;stroke-width:11;stroke-miterlimit:10;}
</style>
<path class="st0" d="M442.5,80.5c-48.3-48.3-112.6-75-181-75c-68.4,0-132.7,26.6-181,75c-48.4,48.3-75,112.6-75,181
	s26.6,132.7,75,181c48.3,48.3,112.6,75,181,75c68.4,0,132.7-26.6,181-75s75-112.6,75-181S490.9,128.8,442.5,80.5z M440,104.4
	c17.7,20.1,31.8,42.9,41.8,67.6c10.3,25.5,16.1,52.4,17.2,80l0.2,5.5l-5.5,0.4c-56.6,4.3-108.9,26.5-151.1,64.3l-4,3.6l-64.3-64.3
	L436,99.8L440,104.4z M265.1,29.2l0.4-5.5l5.5,0.2c27.6,1.1,54.5,6.9,80,17.2c24.8,10,47.5,24.1,67.6,41.8l4.6,4L261.5,248.6
	l-64.3-64.3l3.6-4C238.6,138,260.8,85.8,265.1,29.2z M104.4,83c20.1-17.7,42.8-31.8,67.6-41.8c22-8.9,45-14.5,68.5-16.5l6.8-0.6
	l-0.6,6.8c-2,23.5-7.6,46.5-16.5,68.4c-10,24.7-24.1,47.5-41.8,67.6l-4,4.6L99.9,87L104.4,83z M24.6,240.5
	c2.1-23.6,7.6-46.6,16.5-68.5c10-24.7,24.1-47.5,41.8-67.6l4-4.6l84.4,84.4l-4.6,4c-20.1,17.7-42.8,31.8-67.6,41.9
	c-21.9,8.9-44.9,14.4-68.5,16.5l-6.8,0.6L24.6,240.5z M83,418.6c-17.7-20.1-31.8-42.9-41.8-67.6c-10.3-25.5-16.1-52.4-17.2-80
	l-0.2-5.5l5.5-0.4c56.6-4.3,108.8-26.5,151.1-64.3l4-3.6l64.3,64.3L87,423.1L83,418.6z M257.9,493.8l-0.4,5.5l-5.5-0.2
	c-27.6-1.1-54.5-6.9-80-17.2c-24.7-10-47.5-24.1-67.5-41.8l-4.6-4l161.6-161.6l64.3,64.3l-3.6,4C284.4,385,262.2,437.2,257.9,493.8z
	 M418.6,440c-20.1,17.7-42.8,31.8-67.6,41.8c-21.8,8.9-44.9,14.5-68.5,16.5l-6.8,0.6l0.6-6.8c2-23.5,7.6-46.6,16.5-68.5
	c10-24.7,24.1-47.5,41.8-67.6l4-4.6l84.4,84.4L418.6,440z M498.4,282.5c-2,23.6-7.6,46.6-16.5,68.5c-10,24.7-24.1,47.5-41.8,67.6
	l-4,4.6l-84.4-84.4l4.6-4c20.1-17.8,42.8-31.8,67.6-41.8c21.9-8.9,45-14.4,68.4-16.5l6.8-0.6L498.4,282.5z"/>
</svg>
