<?xml version="1.0" encoding="utf-8"?>
<!-- Generator: Adobe Illustrator 19.2.1, SVG Export Plug-In . SVG Version: 6.00 Build 0)  -->
<svg version="1.1" id="Calque_1" xmlns="http://www.w3.org/2000/svg" xmlns:xlink="http://www.w3.org/1999/xlink" x="0px" y="0px"
	 viewBox="0 0 55.6 99.9" style="enable-background:new 0 0 55.6 99.9;" xml:space="preserve">
<style type="text/css">
	.st0{fill:#F9F9F9;}
</style>
<path class="st0" d="M36.4,0C6.3,0,9.1,25.1,9.1,25.1H0V51h9.1v48.9h29.1V51h12.5V27.7l4.9-23.3C46.1,0.5,36.4,0,36.4,0z M45.5,18.8
	c0,0-9.9-1.7-12.2,1.1C29.9,21.6,31,32.5,31,32.5h12.3v11.1H31v49.2H16.3V43.6H7.2V32.5c0,0,9.2,0,9.2,0c-0.8,0,0.5-10.9,0.6-11.9
	c0.5-5.4,4.5-10.2,9.7-12c7.1-2.4,13.5-1.1,20.6,0.6C46.7,12.4,46.1,15.6,45.5,18.8z"/>
</svg>
