<?xml version="1.0" encoding="utf-8"?>
<!-- Generator: Adobe Illustrator 19.2.1, SVG Export Plug-In . SVG Version: 6.00 Build 0)  -->
<svg version="1.1" id="Calque_1" xmlns="http://www.w3.org/2000/svg" xmlns:xlink="http://www.w3.org/1999/xlink" x="0px" y="0px"
	 viewBox="0 0 80 68.9" style="enable-background:new 0 0 80 68.9;" xml:space="preserve">
<style type="text/css">
	.st0{fill:#F9F9F9;}
</style>
<path class="st0" d="M73.2,7.1c-4.4-4.6-9.7-7-15.7-7c-7.1,0-12.9,3.1-17.5,9.2c-4.6-6.1-10.4-9.2-17.5-9.2c-6,0-11.3,2.3-15.7,7
	S0.1,17.1,0,23.3c0,0.1,0,0.2,0,0.2s0,0.1,0,0.1c0,0.1,0,0.2,0,0.2c0,0.1,0,0.3,0.1,0.5s0.1,0.4,0.1,0.5C0.3,29,1.1,33,2.7,37
	S6.1,44.2,8.4,47s4.9,5.5,7.9,8s5.8,4.6,8.2,6.2s5,3,7.7,4.2s4.5,2.1,5.4,2.4s1.7,0.7,2.2,0.9c0.5-0.2,1.2-0.5,2.2-0.8
	s2.8-1.1,5.5-2.4s5.3-2.7,7.8-4.3s5.3-3.6,8.4-6.1s5.7-5.2,8-8c2.2-2.9,4.2-6.2,5.8-10.2c1.6-3.9,2.5-8,2.6-12.3
	c0-0.1,0-0.3,0.1-0.5s0.1-0.4,0.1-0.5c0,0,0-0.1,0-0.2s0-0.2,0-0.2s0-0.1,0-0.2C79.9,17.1,77.6,11.7,73.2,7.1z"/>
</svg>
