<?xml version="1.0" encoding="utf-8"?>
<!-- Generator: Adobe Illustrator 19.2.1, SVG Export Plug-In . SVG Version: 6.00 Build 0)  -->
<svg version="1.1" id="Calque_1" xmlns="http://www.w3.org/2000/svg" xmlns:xlink="http://www.w3.org/1999/xlink" x="0px" y="0px"
	 viewBox="0 0 80 68.9" style="enable-background:new 0 0 80 68.9;" xml:space="preserve">
<style type="text/css">
	.st0{fill:#F9F9F9;}
</style>
<path class="st0" d="M74.8,24.5c-0.1,4.5-1.2,8.8-3.4,13c-2.1,4.2-4.6,7.6-7.3,10.3s-5.9,5.3-9.5,7.7c-3.6,2.4-6.5,4.1-8.8,5.2
	c-2.2,1-4.3,2-6.3,2.8c-2-0.8-4.1-1.8-6.2-2.8s-5.1-2.8-8.6-5.2s-6.6-4.9-9.3-7.7c-2.7-2.7-5-6.1-7.1-10.3C6.4,33.3,5.3,29,5.2,24.4
	c0-0.2-0.1-0.4-0.2-0.6c0-0.1,0-0.2,0-0.3c0.1-5,1.9-9.3,5.3-12.9c3.4-3.6,7.5-5.4,12.2-5.4c5.4,0,9.9,2.4,13.4,7.2
	c1,1.4,2.4,2,4.1,2s3-0.7,4.1-2c3.5-4.8,8-7.2,13.4-7.2c4.7,0,8.7,1.8,12.2,5.4c3.4,3.6,5.2,7.9,5.3,12.9c0,0.1,0,0.2,0,0.3
	C74.9,24,74.8,24.2,74.8,24.5z M80,23.3c-0.1-6.1-2.4-11.5-6.8-16.2c-4.4-4.6-9.7-7-15.7-7c-7.1,0-12.9,3.1-17.5,9.2
	c-4.6-6.1-10.4-9.2-17.5-9.2c-6,0-11.3,2.3-15.7,7S0.1,17.1,0,23.3c0,0.1,0,0.2,0,0.2c0,0.1,0,0.1,0,0.1c0,0.1,0,0.2,0,0.2
	c0,0.1,0,0.3,0.1,0.5s0.1,0.4,0.1,0.5C0.3,29,1.1,33,2.7,37c1.6,3.9,3.5,7.3,5.7,10.1s4.9,5.5,7.9,8c3,2.6,5.8,4.6,8.2,6.2
	c2.4,1.6,5,3,7.7,4.2c2.7,1.3,4.5,2.1,5.4,2.4s1.7,0.7,2.2,0.9c0.5-0.2,1.2-0.5,2.2-0.8s2.8-1.1,5.5-2.4s5.3-2.7,7.8-4.3
	s5.3-3.6,8.4-6.1c3.1-2.5,5.7-5.2,8-8c2.2-2.9,4.2-6.2,5.8-10.2c1.6-3.9,2.5-8,2.6-12.3c0-0.1,0-0.3,0.1-0.5C80,24,80,23.9,80,23.8
	c0,0,0-0.1,0-0.2s0-0.2,0-0.2S80,23.4,80,23.3z"/>
</svg>
