<?xml version="1.0" encoding="utf-8"?>
<!-- Generator: Adobe Illustrator 19.2.1, SVG Export Plug-In . SVG Version: 6.00 Build 0)  -->
<svg version="1.1" id="Calque_1" xmlns="http://www.w3.org/2000/svg" xmlns:xlink="http://www.w3.org/1999/xlink" x="0px" y="0px"
	 viewBox="0 0 126.6 126.6" style="enable-background:new 0 0 126.6 126.6;" xml:space="preserve">
<style type="text/css">
	.st0{fill:#EF6566;stroke:#EF6566;stroke-miterlimit:10;}
	.st1{fill:none;stroke:#EF6566;stroke-width:4;stroke-miterlimit:10;}
</style>
<path class="st0" d="M32,77.4c5.1,1.2,15.7,0.3,18.1-2c0.1-0.1,0.1-0.1,0.2-0.2c1.9-2.2,1.2-6.8,0.7-9.4l25.1,0
	c-0.3,1.8-0.4,4.8,0.3,8.8c0.2,1.3,1.1,3,4,3.9c5.3,1.6,15.3-0.2,17.7-2.7c0.3-0.3,0.5-0.6,0.6-1c1-2.8,0.2-7.9,0.1-8.8
	c-0.1-7.7-11.6-14.3-19.1-14.6c-2-0.1-4.4-0.2-7.1-0.4c-6.6-0.4-14.9-0.9-21.8-0.5c-6.8,0.4-14.7,3.8-19.1,8.2l0,0
	c-2.3,2.3-3.6,4.8-3.6,7.2c-0.2,0.9-1.1,5.3,0.1,8.9C28.5,76,29.8,76.8,32,77.4z M30.7,73.9c-1.1-3.1,0-7.5,0-7.5l0-0.2V66
	c0-1.7,1-3.6,2.8-5.5c3.9-3.9,11.3-7.1,17.4-7.5c6.7-0.4,14.9,0.1,21.4,0.5c2.6,0.2,5.1,0.3,7.2,0.4c6.2,0.2,16.5,5.9,16.5,12l0,0.2
	c0.2,1.4,0.7,5.6,0.1,7.5c0,0,0,0,0,0c-1.5,1.5-10.4,3.5-15,2.1c-1.3-0.4-2-1-2.2-1.8c-1.1-5.6,0-9.2,0-9.2l0.5-1.7h-32l0.5,1.7
	c0.8,2.7,1.4,7.3,0.3,8.6c-1.3,1.3-10.4,2.5-15.4,1.4C30.9,74.4,30.7,73.9,30.7,73.9z"/>
<circle class="st1" cx="63.3" cy="63.3" r="61.3"/>
</svg>
