<svg id="Calque_1" data-name="Calque 1" xmlns="http://www.w3.org/2000/svg" viewBox="0 0 83.38 53.4"><defs><style>.cls-1{fill:#f9f9f9;stroke:#f9f9f9;stroke-miterlimit:10;stroke-width:0.5px;}</style></defs><title>heat-front</title><path class="cls-1" d="M73.2,62.8L71.4,61a30.16,30.16,0,0,0-21.6-8.9A30.58,30.58,0,0,0,28.2,61l-1.7,1.7L8.5,41.1,10,39.6a56.37,56.37,0,0,1,79.7,0l1.5,1.5ZM14.6,41.4L26.9,56.1a35.06,35.06,0,0,1,46,0L85.2,41.4A52,52,0,0,0,14.6,41.4Z" transform="translate(-8.16 -22.85)"/><path class="cls-1" d="M49.7,73a1.54,1.54,0,0,1-1.5-1.5V70.3a13.27,13.27,0,0,1,1.4-5.8,3.91,3.91,0,0,0-.7-4.4l-0.2-.2a7.11,7.11,0,0,1-2.1-5.1,7.54,7.54,0,0,1,2.1-5.1,4,4,0,0,0,.9-4.5,15.59,15.59,0,0,1-1.4-6V37a1.5,1.5,0,0,1,3,0v2.2a13.32,13.32,0,0,0,1.2,4.9,7.07,7.07,0,0,1-1.6,7.8,4,4,0,0,0-1.2,2.9,3.85,3.85,0,0,0,1.2,2.9L51,57.9a7,7,0,0,1,1.4,7.7,10.93,10.93,0,0,0-1.1,4.6v1.2A1.72,1.72,0,0,1,49.7,73Z" transform="translate(-8.16 -22.85)"/><path class="cls-1" d="M54,36.1l-3.5-3.5a1.15,1.15,0,0,0-1.7,0l-3.5,3.5a1.19,1.19,0,0,0,.8,2h7A1.17,1.17,0,0,0,54,36.1Z" transform="translate(-8.16 -22.85)"/><path class="cls-1" d="M38.1,76a1.54,1.54,0,0,1-1.5-1.5V73.3A13.27,13.27,0,0,1,38,67.5a3.91,3.91,0,0,0-.7-4.4L37,62.9a7.11,7.11,0,0,1-2.1-5.1A7.54,7.54,0,0,1,37,52.7a4,4,0,0,0,.9-4.5,15.59,15.59,0,0,1-1.4-6V40a1.5,1.5,0,0,1,3,0v2.2a13.32,13.32,0,0,0,1.2,4.9,7.07,7.07,0,0,1-1.6,7.8,4,4,0,0,0-1.2,2.9,3.85,3.85,0,0,0,1.2,2.9l0.2,0.2a7,7,0,0,1,1.4,7.7,10.93,10.93,0,0,0-1.1,4.6v1.2A1.56,1.56,0,0,1,38.1,76Z" transform="translate(-8.16 -22.85)"/><path class="cls-1" d="M42.4,39.1L39,35.6a1.15,1.15,0,0,0-1.7,0l-3.5,3.5a1.19,1.19,0,0,0,.8,2h7A1.14,1.14,0,0,0,42.4,39.1Z" transform="translate(-8.16 -22.85)"/><path class="cls-1" d="M61.3,76a1.54,1.54,0,0,1-1.5-1.5V73.3a13.27,13.27,0,0,1,1.4-5.8,3.91,3.91,0,0,0-.7-4.4l-0.2-.2a7.11,7.11,0,0,1-2.1-5.1,7.54,7.54,0,0,1,2.1-5.1,4,4,0,0,0,.9-4.5,15.59,15.59,0,0,1-1.4-6V40a1.5,1.5,0,0,1,3,0v2.2A13.32,13.32,0,0,0,64,47.1a7.07,7.07,0,0,1-1.6,7.8,4,4,0,0,0-1.2,2.9,3.85,3.85,0,0,0,1.2,2.9l0.2,0.2A7,7,0,0,1,64,68.6a10.93,10.93,0,0,0-1.1,4.6v1.2A1.72,1.72,0,0,1,61.3,76Z" transform="translate(-8.16 -22.85)"/><path class="cls-1" d="M65.6,39.1l-3.5-3.5a1.15,1.15,0,0,0-1.7,0L57,39.1a1.19,1.19,0,0,0,.8,2h7A1.19,1.19,0,0,0,65.6,39.1Z" transform="translate(-8.16 -22.85)"/></svg>