<svg id="Calque_1" data-name="Calque 1" xmlns="http://www.w3.org/2000/svg" viewBox="0 0 57.12 57.12"><defs><style>.cls-1{fill:#f9f9f9;}.cls-2,.cls-3{fill:none;stroke:#f9f9f9;stroke-miterlimit:10;}.cls-2{stroke-width:4px;}</style></defs><title>Historique</title><path class="cls-1" d="M33.08,31.82a1.41,1.41,0,0,0-.55-0.26V24.89H31.9v6.66a1.42,1.42,0,0,0-.47.21L19.53,23h-0.9l0.26,0.84,11.94,8.83a1.42,1.42,0,0,0,1.07,1.67v7.51h0.63V34.31a1.41,1.41,0,0,0,1.08-1.58l16.74-9.4-0.52-.92Z" transform="translate(-3.44 -3.56)"/><circle class="cls-2" cx="28.56" cy="28.56" r="26.56"/><line class="cls-3" x1="28.56" y1="2" x2="28.56" y2="8.94"/><line class="cls-3" x1="1.12" y1="29.78" x2="8.06" y2="29.78"/><line class="cls-3" x1="28.9" y1="56.22" x2="28.9" y2="49.28"/><line class="cls-3" x1="56.34" y1="29.44" x2="49.4" y2="29.44"/></svg>