<svg id="Calque_1" data-name="Calque 1" xmlns="http://www.w3.org/2000/svg" viewBox="0 0 56.74 30.19"><defs><style>.cls-1{fill:#f9f9f9;}</style></defs><title>hopital</title><path class="cls-1" d="M11.39,47.19l-0.34-1.06C9.9,42.47,8.73,39.48,7.59,36.6s-2.35-6-3.53-9.71L3.8,26l0.75-.49A50.19,50.19,0,0,1,32.16,17a50.18,50.18,0,0,1,27.62,8.54L60.53,26l-0.27.86c-1.18,3.75-2.37,6.77-3.52,9.7s-2.32,5.87-3.47,9.54l-0.33,1.06-1.08-.27a78.77,78.77,0,0,0-19.63-2.67,80.16,80.16,0,0,0-19.76,2.67ZM6.59,27c1.06,3.28,2.15,6,3.2,8.69S11.91,41.1,13,44.36a81.46,81.46,0,0,1,19.26-2.48,79.73,79.73,0,0,1,19.13,2.48c1.07-3.27,2.14-6,3.18-8.64s2.13-5.4,3.19-8.68a47.62,47.62,0,0,0-25.57-7.67A47.63,47.63,0,0,0,6.59,27Z" transform="translate(-3.8 -17.01)"/><path class="cls-1" d="M38,32H26.31a1.18,1.18,0,1,1,0-2.36H38A1.18,1.18,0,0,1,38,32Z" transform="translate(-3.8 -17.01)"/><path class="cls-1" d="M32.17,37.94A1.18,1.18,0,0,1,31,36.76V25a1.18,1.18,0,1,1,2.36,0V36.76A1.18,1.18,0,0,1,32.17,37.94Z" transform="translate(-3.8 -17.01)"/></svg>