<svg id="Calque_1" data-name="Calque 1" xmlns="http://www.w3.org/2000/svg" viewBox="0 0 57 34.14"><defs><style>.cls-1{fill:none;stroke:#f9f9f9;stroke-miterlimit:10;stroke-width:2px;}.cls-2{fill:#f9f9f9;}</style></defs><title>hotel</title><path class="cls-1" d="M9.77,39.75a5.06,5.06,0,1,1,5.06,5.06A5.06,5.06,0,0,1,9.77,39.75Z" transform="translate(-3.06 -23.93)"/><path class="cls-1" d="M51.81,44.8H22.19V38.3a3.49,3.49,0,0,1,3.35-3.61H48.46a3.5,3.5,0,0,1,3.36,3.61v6.5Z" transform="translate(-3.06 -23.93)"/><path class="cls-2" d="M60.06,34.95v21a2.17,2.17,0,0,1-4.34,0V52.29H7v3.8a2,2,0,0,1-4,0V25.92a2,2,0,0,1,3.39-1.41A2,2,0,0,1,7,25.92V48.67H55.72V34.95A2.17,2.17,0,0,1,60.06,34.95Z" transform="translate(-3.06 -23.93)"/></svg>