<svg id="Calque_1" data-name="Calque 1" xmlns="http://www.w3.org/2000/svg" viewBox="0 0 43.97 43.96"><defs><style>.cls-1{fill:#f9f9f9;}</style></defs><title>internet</title><path class="cls-1" d="M32,53.8A21.79,21.79,0,1,1,53.8,32,21.82,21.82,0,0,1,32,53.8Zm0-41.4A19.61,19.61,0,1,0,51.61,32,19.63,19.63,0,0,0,32,12.4Z" transform="translate(-10.02 -10.02)"/><path class="cls-1" d="M13.82,54A3.76,3.76,0,0,1,11,53c-1.83-1.83-1.2-5.45,1.85-10.77a1.09,1.09,0,1,1,1.9,1.09c-2.79,4.85-2.93,7.41-2.21,8.14S16,52,20.94,49.1A82,82,0,0,0,36.55,36.55c12-12,16.78-22.07,14.88-24-0.7-.7-3.16-0.59-7.8,2a1.09,1.09,0,1,1-1.07-1.9C47.68,9.81,51.19,9.26,53,11c4,4-4.46,16.63-14.88,27.05A84.09,84.09,0,0,1,22,51C18.63,53,15.86,54,13.82,54Z" transform="translate(-10.02 -10.02)"/></svg>