<svg id="Calque_1" data-name="Calque 1" xmlns="http://www.w3.org/2000/svg" viewBox="0 0 56.67 54.43"><defs><style>.cls-1{fill:#f9f9f9;stroke:#f9f9f9;stroke-miterlimit:10;}</style></defs><title>library</title><path class="cls-1" d="M59.67,56.53a0.4,0.4,0,0,0,0-.08,0.38,0.38,0,0,0,0-.06L59.83,7.76a0.42,0.42,0,0,0,0-.06,0.48,0.48,0,0,0,0-.08v0l0-.07,0-.05h0v0l-0.07-.05-0.06,0h0l-0.07,0-0.09,0h0l-49.22-2H10l-0.05,0,0,0,0,0,0,0L4.3,10.85h0l0,0h0l0,0.05,0,0,0,0v0a0.44,0.44,0,0,0,0,.08,0.42,0.42,0,0,0,0,.07h0l0.38,42h0a0.48,0.48,0,0,0,0,.06,0.44,0.44,0,0,0,0,.08v0l0,0.06,0,0.05h0l0,0h0l5.57,5.06h0l0.06,0,0,0h0l0.15,0h0l48.68-1.87,0.07,0,0.09,0h0l0.06,0,0.07-.05v0h0l0-.06,0-.07v0ZM22.49,41.18L20,40.64l-0.1-16.8,2.45-.62M19.6,23L10.69,15.6,10.62,7.12,22.08,22.36ZM19,23.69l0.1,17.1-8.2,6.85L10.7,16.79ZM22.16,42L11,56.9l-0.06-8.08,8.76-7.32m3.69-.21L23.31,23.09l17.47,0.27L40.8,41Zm18.31,0,0-18.15,2.76-2.3V43.55Zm3.66,3V20.07L58.92,8.73,58.79,55.42Zm-4.3-21.85-18-.28L11.1,6.24,58.18,8.16ZM9.77,14.84L5.3,11.14,9.71,6.82Zm0,1.19L10,48.4,5.45,52.23,5.09,12.15ZM10,49.58l0.06,7.64-4.41-4ZM41.1,42L58,56,11.51,57.76,23.18,42.2" transform="translate(-3.67 -4.79)"/></svg>