<svg id="Calque_1" data-name="Calque 1" xmlns="http://www.w3.org/2000/svg" viewBox="0 0 47 53.94"><defs><style>.cls-1{fill:#5a85c1;}</style></defs><title>nav</title><path class="cls-1" d="M8.83,50.31a1.53,1.53,0,0,0,1.4,1.52l12.41,1h0l0.17,0v-4h-14v1.47" transform="translate(-8.83 -4.89)"/><path class="cls-1" d="M32.27,12.83a7.08,7.08,0,0,1,5.89,3.44l0.14,0.16L37.54,12c-0.44-2.65-1.52-4-3-5.8l-0.37-.46a2.47,2.47,0,0,0-3.73,0l-0.37.46C28.58,8,27.51,9.35,27.07,12l-0.73,4.26,0.16-.16a7.05,7.05,0,0,1,5.78-3.25" transform="translate(-8.83 -4.89)"/><path class="cls-1" d="M41.83,53a0.14,0.14,0,0,1,.11-0.14l12.49-1a1.53,1.53,0,0,0,1.4-1.52V48.83h-14V53" transform="translate(-8.83 -4.89)"/><path class="cls-1" d="M41.83,46.83H55.74c-1.07-5-7.1-9.17-10.38-11.45a7.58,7.58,0,0,1-2.24-3.2l-0.39-.8A42.31,42.31,0,0,1,39,20.75l-0.1-.59-2.42-2.74a5.14,5.14,0,0,0-4.25-2.58,5.11,5.11,0,0,0-4.18,2.46L28,17.45l-2.21,2.16-0.2,1.15a41.6,41.6,0,0,1-3.61,10.63L21.63,32a8.29,8.29,0,0,1-2.39,3.37c-4.83,3.36-9.39,7.07-10.32,11.45H22.83v-2a1,1,0,0,1,2,0v11h1l0.79,2.06a1.47,1.47,0,0,0,1.36.94h8.56a1.47,1.47,0,0,0,1.36-.94l0.79-2.06h1.1v-11a1,1,0,0,1,2,0v2h0Z" transform="translate(-8.83 -4.89)"/></svg>