<svg id="Calque_1" data-name="Calque 1" xmlns="http://www.w3.org/2000/svg" viewBox="0 0 60 55.2"><defs><style>.cls-1{fill:#f9f9f9;}</style></defs><title>market</title><path class="cls-1" d="M26.2,59.6a6.87,6.87,0,1,1,6.87-6.87A6.86,6.86,0,0,1,26.2,59.6Zm0-10.07a3.2,3.2,0,1,0,3.2,3.2A3.16,3.16,0,0,0,26.2,49.53Z" transform="translate(-3 -4.4)"/><path class="cls-1" d="M49.8,59.6a6.87,6.87,0,1,1,6.87-6.87A6.86,6.86,0,0,1,49.8,59.6Zm0-10.07a3.2,3.2,0,1,0,0,6.4,3.24,3.24,0,0,0,3.2-3.2A3.2,3.2,0,0,0,49.8,49.53Z" transform="translate(-3 -4.4)"/><path class="cls-1" d="M54.93,40.53H19.8L10.07,8.07H3V4.4h9.8l2.8,9.33H63ZM22.6,36.87H52.2l5.87-19.4H16.73Z" transform="translate(-3 -4.4)"/></svg>