<?xml version="1.0" encoding="utf-8"?>
<!-- Generator: Adobe Illustrator 19.2.1, SVG Export Plug-In . SVG Version: 6.00 Build 0)  -->
<svg version="1.1" id="Calque_1" xmlns="http://www.w3.org/2000/svg" xmlns:xlink="http://www.w3.org/1999/xlink" x="0px" y="0px"
	 viewBox="0 0 100 100" style="enable-background:new 0 0 100 100;" xml:space="preserve">
<style type="text/css">
	.st0{fill:none;stroke:#F9F9F9;stroke-width:3;stroke-miterlimit:10;}
	.st1{fill:#F9F9F9;}
</style>
<circle class="st0" cx="49.7" cy="51.5" r="40.7"/>
<path class="st1" d="M59.7,66.4L59.7,66.4c-1.7,0-3.2-1.4-3.2-3.2V39.7c0-1.7,1.4-3.2,3.2-3.2h0c1.7,0,3.2,1.4,3.2,3.2v23.5
	C62.9,65,61.5,66.4,59.7,66.4z"/>
<path class="st1" d="M39.7,66.4L39.7,66.4c-1.7,0-3.2-1.4-3.2-3.2V39.7c0-1.7,1.4-3.2,3.2-3.2h0c1.7,0,3.2,1.4,3.2,3.2v23.5
	C42.9,65,41.5,66.4,39.7,66.4z"/>
</svg>
