<?xml version="1.0" encoding="utf-8"?>
<!-- Generator: Adobe Illustrator 19.2.1, SVG Export Plug-In . SVG Version: 6.00 Build 0)  -->
<svg version="1.1" id="Calque_1" xmlns="http://www.w3.org/2000/svg" xmlns:xlink="http://www.w3.org/1999/xlink" x="0px" y="0px"
	 viewBox="0 0 100 100" style="enable-background:new 0 0 100 100;" xml:space="preserve">
<style type="text/css">
	.st0{fill:none;stroke:#F9F9F9;stroke-width:3;stroke-miterlimit:10;}
	.st1{fill:#F9F9F9;}
</style>
<circle class="st0" cx="49.7" cy="51.5" r="40.7"/>
<path class="st1" d="M59.7,68.8L59.7,68.8c-1.7,0-3.2-1.4-3.2-3.2V37.4c0-1.7,1.4-3.2,3.2-3.2h0c1.7,0,3.2,1.4,3.2,3.2v28.2
	C62.9,67.3,61.5,68.8,59.7,68.8z"/>
<path class="st1" d="M39.7,68.8L39.7,68.8c-1.7,0-3.2-1.4-3.2-3.2V37.4c0-1.7,1.4-3.2,3.2-3.2h0c1.7,0,3.2,1.4,3.2,3.2v28.2
	C42.9,67.3,41.5,68.8,39.7,68.8z"/>
</svg>
