<?xml version="1.0" encoding="utf-8"?>
<!-- Generator: Adobe Illustrator 19.2.1, SVG Export Plug-In . SVG Version: 6.00 Build 0)  -->
<svg version="1.1" id="Calque_1" xmlns:sketch="http://www.bohemiancoding.com/sketch/ns"
	 xmlns="http://www.w3.org/2000/svg" xmlns:xlink="http://www.w3.org/1999/xlink" x="0px" y="0px" viewBox="0 0 60 70"
	 style="enable-background:new 0 0 60 70;" xml:space="preserve">
<style type="text/css">
	.st0{fill:#F9F9F9;}
</style>
<title>55 - Repeat (Solid)</title>
<desc>Created with Sketch.</desc>
<g sketch:type="MSPage">
	<g sketch:type="MSLayerGroup">
		<path sketch:type="MSShapeGroup" class="st0" d="M4,28c0,8.3,6.7,15,15,15h19.2l-5.6-5.6c-0.8-0.8-0.8-2,0-2.8
			C33,34.2,33.5,34,34,34s1,0.2,1.4,0.6l9,9c0.1,0.1,0.2,0.2,0.3,0.3c0,0,0.1,0.1,0.1,0.1c0,0.1,0.1,0.1,0.1,0.2
			c0,0.1,0,0.1,0.1,0.2c0,0.1,0,0.1,0.1,0.2c0.1,0.3,0.1,0.5,0,0.8c0,0.1,0,0.1-0.1,0.2c0,0.1,0,0.1-0.1,0.2c0,0.1-0.1,0.1-0.1,0.2
			c0,0,0,0.1-0.1,0.1c-0.1,0.1-0.2,0.2-0.3,0.3l-9,9c-0.8,0.8-2,0.8-2.8,0c-0.8-0.8-0.8-2,0-2.8l5.6-5.6H19C8.5,47,0,38.5,0,28
			c0-5.1,2-9.8,5.6-13.4C6,14.2,6.5,14,7,14s1,0.2,1.4,0.6c0.8,0.8,0.8,2,0,2.8C5.6,20.3,4,24,4,28"/>
		<path sketch:type="MSShapeGroup" class="st0" d="M55.5,40.3c-0.7,0.8-2,0.9-2.8,0.2c-0.8-0.7-0.9-2-0.2-2.8C54.7,35,56,31.5,56,28
			c0-8.3-6.7-15-15-15H19.8l5.6,5.6c0.8,0.8,0.8,2,0,2.8c-0.8,0.8-2,0.8-2.8,0l-9-9c-0.8-0.8-0.8-2,0-2.8l9-9C23,0.2,23.5,0,24,0
			c0.5,0,1,0.2,1.4,0.6c0.8,0.8,0.8,2,0,2.8L19.8,9H41c10.5,0,19,8.5,19,19C60,32.5,58.4,36.9,55.5,40.3"/>
	</g>
</g>
</svg>
