<svg id="Calque_1" data-name="Calque 1" xmlns="http://www.w3.org/2000/svg" viewBox="0 0 51.44 51.43"><defs><style>.cls-1{fill:none;stroke:#f9f9f9;stroke-miterlimit:10;stroke-width:2px;}.cls-2{fill:#f9f9f9;}</style></defs><title>restaurant</title><path class="cls-1" d="M25.46,33.3a8.67,8.67,0,0,1-1.29-2.46A8.55,8.55,0,0,1,23.9,26a8.43,8.43,0,0,1,2.38-4.18,8.63,8.63,0,0,1,2.26-1.62,8.63,8.63,0,0,1,1.3,2.46,8.45,8.45,0,0,1,.26,4.8,8.57,8.57,0,0,1-2.38,4.17A8.69,8.69,0,0,1,25.46,33.3Z" transform="translate(-6.78 -5.93)"/><path class="cls-1" d="M17.8,41.36a9.23,9.23,0,0,1-1.57-2.47,10,10,0,0,1-.83-5.16,9.89,9.89,0,0,1,1.88-4.88,9.21,9.21,0,0,1,2.06-2.09,9.17,9.17,0,0,1,1.58,2.47,10,10,0,0,1-1.06,10A9.27,9.27,0,0,1,17.8,41.36Z" transform="translate(-6.78 -5.93)"/><path class="cls-1" d="M33.74,25.57a8.3,8.3,0,0,1-1-2.48,7.49,7.49,0,0,1,.32-4.47,7.4,7.4,0,0,1,2.85-3.45,8.19,8.19,0,0,1,2.42-1.12,8.31,8.31,0,0,1,1,2.48A7.4,7.4,0,0,1,39,21a7.5,7.5,0,0,1-2.85,3.45A8.21,8.21,0,0,1,33.74,25.57Z" transform="translate(-6.78 -5.93)"/><path class="cls-1" d="M41.61,18.7A8,8,0,0,1,41,16.18,6.82,6.82,0,0,1,42,12a6.71,6.71,0,0,1,3.27-2.72,8,8,0,0,1,2.52-.6,8,8,0,0,1,.6,2.52,6.73,6.73,0,0,1-1,4.14,6.83,6.83,0,0,1-3.28,2.72A8.06,8.06,0,0,1,41.61,18.7Z" transform="translate(-6.78 -5.93)"/><path class="cls-1" d="M30.84,38.68A8.67,8.67,0,0,0,33.3,40a8.56,8.56,0,0,0,4.8.27,8.42,8.42,0,0,0,4.17-2.38,8.62,8.62,0,0,0,1.62-2.26,8.66,8.66,0,0,0-2.46-1.3,8.45,8.45,0,0,0-4.8-.26,8.57,8.57,0,0,0-4.17,2.38A8.71,8.71,0,0,0,30.84,38.68Z" transform="translate(-6.78 -5.93)"/><path class="cls-1" d="M22.78,46.34a9.25,9.25,0,0,0,2.47,1.57,10,10,0,0,0,5.16.83,9.89,9.89,0,0,0,4.88-1.88,9.16,9.16,0,0,0,2.09-2.06,9.18,9.18,0,0,0-2.47-1.58,9.88,9.88,0,0,0-5.16-.82,10,10,0,0,0-4.87,1.88A9.2,9.2,0,0,0,22.78,46.34Z" transform="translate(-6.78 -5.93)"/><path class="cls-1" d="M38.58,30.41a8.28,8.28,0,0,0,2.48,1,7.48,7.48,0,0,0,4.47-.32A7.39,7.39,0,0,0,49,28.22,8.19,8.19,0,0,0,50.1,25.8a8.26,8.26,0,0,0-2.48-1,7.4,7.4,0,0,0-4.47.33A7.49,7.49,0,0,0,39.7,28,8.18,8.18,0,0,0,38.58,30.41Z" transform="translate(-6.78 -5.93)"/><path class="cls-1" d="M45.45,22.54a8,8,0,0,0,2.51.59,6.81,6.81,0,0,0,4.15-1,6.72,6.72,0,0,0,2.72-3.27,8,8,0,0,0,.6-2.52,8,8,0,0,0-2.52-.6,6.74,6.74,0,0,0-4.14,1A6.83,6.83,0,0,0,46.05,20,8.09,8.09,0,0,0,45.45,22.54Z" transform="translate(-6.78 -5.93)"/><path class="cls-2" d="M8,57.35a1.23,1.23,0,0,1-.87-2.1L42.42,20a1.23,1.23,0,0,1,1.74,1.74L8.88,57A1.23,1.23,0,0,1,8,57.35Z" transform="translate(-6.78 -5.93)"/><path class="cls-1" d="M50,14.18a7.57,7.57,0,0,1-.19-2.39A5,5,0,0,1,54.6,7a7.67,7.67,0,0,1,2.39.2,7.61,7.61,0,0,1,.2,2.39,5.16,5.16,0,0,1-1.45,3.37,5.23,5.23,0,0,1-3.38,1.45A7.56,7.56,0,0,1,50,14.18Z" transform="translate(-6.78 -5.93)"/></svg>