<svg id="Calque_1" data-name="Calque 1" xmlns="http://www.w3.org/2000/svg" viewBox="0 0 79.34 84.8"><defs><style>.cls-1{fill:#f9f9f9;}</style></defs><title>seat-left</title><path class="cls-1" d="M89.7,14.4c-0.6-.8-3.5-5-7.8-5a5.58,5.58,0,0,0-3.3,1C75.7,12.1,63,31.8,60.5,57.1c-1.1-.2-2.5-0.5-4-0.8,0-.5-0.1-1.1-0.1-1.7a22,22,0,0,1,1.2-7.5l3,0.6L56.7,36.4l-7.8,9.1L51.7,46a25.42,25.42,0,0,0-1.3,8.6v0.7c-2.8-.5-5.9-0.9-9-1.4a21.32,21.32,0,0,1,1.2-6.8l3,0.6L41.7,36.4l-7.8,9.1L36.7,46a27.4,27.4,0,0,0-1.3,7.2c-3.1-.3-6.2-0.6-9-0.7a18,18,0,0,1,1.2-5.4l3,0.6L26.7,36.4l-7.8,9.1L21.7,46a21.18,21.18,0,0,0-1.2,6.7c-3.1.3-5.1,1-6.4,2.2-8.2,7.4,1.4,26,3.4,29.7a2.88,2.88,0,0,0,2.6,1.6h0.7a33.72,33.72,0,0,0-.4,5,3,3,0,0,0,6,0,21.4,21.4,0,0,1,.5-5h8.9a33.72,33.72,0,0,0-.4,5,3,3,0,0,0,6,0,21.4,21.4,0,0,1,.5-5h8.9a33.72,33.72,0,0,0-.4,5,3,3,0,0,0,6,0,21.4,21.4,0,0,1,.5-5H79a3,3,0,0,0,3-3c0-31.9,8-66,8.1-66.3A3.36,3.36,0,0,0,89.7,14.4ZM52.2,64.7a20.07,20.07,0,0,1,1.5,8.1A18,18,0,0,1,52.5,80H43.8a25.84,25.84,0,0,0,.9-7.2,26.69,26.69,0,0,0-1.8-10.1c-0.3-.9-0.6-1.7-0.9-2.6,3.2,0.5,6.4,1,9.2,1.5A28.11,28.11,0,0,0,52.2,64.7ZM27.8,62.6a21,21,0,0,1-1.2-4.2c2.8,0.1,5.9.4,9,.7a26.69,26.69,0,0,0,1.5,5.5,20.07,20.07,0,0,1,1.5,8.1,18,18,0,0,1-1.2,7.2H28.7a25.84,25.84,0,0,0,.9-7.2A25.6,25.6,0,0,0,27.8,62.6ZM18,59.2a6.48,6.48,0,0,1,2.6-.6,25.44,25.44,0,0,0,1.6,6.1,20.07,20.07,0,0,1,1.5,8.1A18,18,0,0,1,22.5,80H21.8C18.2,72.8,14.8,62.1,18,59.2ZM76,80H58.8a25.84,25.84,0,0,0,.9-7.2,27.13,27.13,0,0,0-1.8-10.1c2.8,0.5,4.7.9,4.7,0.9a2.89,2.89,0,0,0,2.4-.5,3,3,0,0,0,1.2-2.2c1.5-23.7,13.1-43,15.7-45.5H82a4,4,0,0,1,2,1.4C82.5,23.3,76.4,52,76,80Z" transform="translate(-10.84 -9.4)"/></svg>