<svg id="Calque_1" data-name="Calque 1" xmlns="http://www.w3.org/2000/svg" viewBox="0 0 78.66 81.3"><defs><style>.cls-1{fill:none;stroke:#f9f9f9;stroke-miterlimit:10;stroke-width:0.5px;}</style></defs><title>seat</title><path class="cls-1" d="M80.9,33.2a8.33,8.33,0,0,0-2.2-.3,7.59,7.59,0,0,0-7.2,5.3L66.4,52l-14.2.2-1-.1H50.8A5.14,5.14,0,0,0,46,55.6L34.6,86.8a3.1,3.1,0,0,0,1.5,3.6,3.71,3.71,0,0,0,1.4.4,3.15,3.15,0,0,0,2.7-1.6L58.4,68.4l12,1a18.48,18.48,0,0,0,2.3.1c5.8,0,7.2-2.7,8.2-5.6l0.2-.6L86,42.8a0.31,0.31,0,0,1,.1-0.2A7.79,7.79,0,0,0,80.9,33.2Zm-2-3A10.1,10.1,0,1,0,68.8,20.1,10.07,10.07,0,0,0,78.9,30.2ZM15.2,69.7l3.5-6.3-6.3-3.5a3,3,0,0,1,2.9-5.3l6.3,3.5,3.5-6.3L35.6,69.2ZM28.8,34a3,3,0,0,1,3-3H42V24.1L59.6,34.3,42,44.4V37H31.8A3,3,0,0,1,28.8,34Z" transform="translate(-10.59 -9.75)"/></svg>