<svg id="Calque_1" data-name="Calque 1" xmlns="http://www.w3.org/2000/svg" viewBox="0 0 34.34 36.7"><defs><style>.cls-1{fill:#f9f9f9;}</style></defs><title>seat-right</title><path class="cls-1" d="M17.37,16.69c0,0.13,3.51,14.89,3.51,28.7a1.28,1.28,0,0,0,1.3,1.3h9.57A9.26,9.26,0,0,1,32,48.85a1.3,1.3,0,1,0,2.6,0,14.59,14.59,0,0,0-.17-2.16h3.85a9.26,9.26,0,0,1,.22,2.16,1.3,1.3,0,1,0,2.6,0,14.59,14.59,0,0,0-.17-2.16h3.85a9.26,9.26,0,0,1,.22,2.16,1.3,1.3,0,1,0,2.6,0,14.59,14.59,0,0,0-.17-2.16h0.3A1.25,1.25,0,0,0,48.79,46c0.87-1.6,5-9.65,1.47-12.85a4.61,4.61,0,0,0-2.77-1,9.17,9.17,0,0,0-.52-2.9l1.21-.22-3.38-3.94L43.12,30l1.3-.26a7.8,7.8,0,0,1,.52,2.34c-1.21,0-2.55.17-3.9,0.3a11.86,11.86,0,0,0-.56-3.12l1.21-.22-3.38-3.94L36.63,30l1.3-.26a9.23,9.23,0,0,1,.52,2.94c-1.34.22-2.68,0.39-3.9,0.61V33A11,11,0,0,0,34,29.29l1.21-.22-3.38-3.94L30.14,30l1.3-.26A9.5,9.5,0,0,1,32,33c0,0.26,0,.52,0,0.74l-1.73.35c-1.08-11-6.58-19.48-7.83-20.21a2.42,2.42,0,0,0-1.43-.43c-1.86,0-3.12,1.82-3.38,2.16A1.45,1.45,0,0,0,17.37,16.69ZM34.21,36c1.21-.22,2.6-0.43,4-0.65-0.13.39-.26,0.74-0.39,1.13A11.55,11.55,0,0,0,37,40.89,11.18,11.18,0,0,0,37.41,44H33.65a7.8,7.8,0,0,1-.52-3.12,8.69,8.69,0,0,1,.65-3.51A12.17,12.17,0,0,0,34.21,36Zm9.35,4.8A11.18,11.18,0,0,0,43.95,44H40.18a7.8,7.8,0,0,1-.52-3.12,8.69,8.69,0,0,1,.65-3.51A11.55,11.55,0,0,0,41,35c1.34-.13,2.68-0.26,3.9-0.3a9.1,9.1,0,0,1-.52,1.82A11.08,11.08,0,0,0,43.56,40.85ZM46.93,44h-0.3a7.8,7.8,0,0,1-.52-3.12,8.69,8.69,0,0,1,.65-3.51,11,11,0,0,0,.69-2.64,2.8,2.8,0,0,1,1.13.26C50,36.26,48.49,40.89,46.93,44ZM20,16.65A1.74,1.74,0,0,1,20.88,16h0c1.13,1.08,6.15,9.44,6.8,19.69a1.32,1.32,0,0,0,.52,1,1.25,1.25,0,0,0,1,.22s0.82-.17,2-0.39a11.74,11.74,0,0,0-.78,4.37A11.18,11.18,0,0,0,30.92,44H23.47A145.17,145.17,0,0,0,20,16.65Z" transform="translate(-17.34 -13.45)"/></svg>