<svg id="Calque_1" data-name="Calque 1" xmlns="http://www.w3.org/2000/svg" viewBox="0 0 58.56 58.56"><defs><style>.cls-1{fill:#fff;stroke:#f9f9f9;stroke-miterlimit:10;}</style></defs><title>settings</title><path class="cls-1" d="M14.94,54l3.61-3.61a14.2,14.2,0,0,0,2.06,1.35c0.71,0.39,1.48.77,2.19,1.1l-1.29,5a1.62,1.62,0,0,0,1.16,2l3.48,1a1.62,1.62,0,0,0,2-1.16l1.29-4.9a21.3,21.3,0,0,0,5,0l1.29,4.9a1.67,1.67,0,0,0,2,1.16l3.48-1a1.67,1.67,0,0,0,1.16-2L41,52.9a19.37,19.37,0,0,0,4.32-2.51L49,54a1.63,1.63,0,0,0,2.32,0l2.58-2.58a1.63,1.63,0,0,0,0-2.32l-3.48-3.54a26.06,26.06,0,0,0,2.51-4.32l4.9,1.29a1.62,1.62,0,0,0,2-1.16l1-3.48a1.62,1.62,0,0,0-1.16-2L54.7,34.6a21.3,21.3,0,0,0,0-5l4.9-1.29a1.67,1.67,0,0,0,1.16-2l-1-3.48a1.67,1.67,0,0,0-2-1.16L52.9,23a19.37,19.37,0,0,0-2.51-4.32l3.54-3.54a1.63,1.63,0,0,0,0-2.32l-2.58-2.58a1.63,1.63,0,0,0-2.32,0l-3.61,3.61a14.2,14.2,0,0,0-2.06-1.35,24.73,24.73,0,0,0-2.26-1.16l1.29-4.9a1.62,1.62,0,0,0-1.16-2l-3.42-1.1a1.62,1.62,0,0,0-2,1.16L34.53,9.4a21.86,21.86,0,0,0-5,0L28.22,4.5a1.73,1.73,0,0,0-2-1.16l-3.54,1a1.67,1.67,0,0,0-1.16,2l1.29,4.9a19.37,19.37,0,0,0-4.32,2.51l-3.54-3.61a1.63,1.63,0,0,0-2.32,0L10,12.68A1.63,1.63,0,0,0,10,15l3.61,3.61a21.94,21.94,0,0,0-2.45,4.32l-5-1.35a1.62,1.62,0,0,0-2,1.16l-0.9,3.48a1.62,1.62,0,0,0,1.16,2l5,1.35a21.3,21.3,0,0,0,0,5l-5,1.35a1.67,1.67,0,0,0-1.16,2l1,3.48a1.67,1.67,0,0,0,2,1.16l4.9-1.29a19.37,19.37,0,0,0,2.51,4.32l-3.61,3.61a1.63,1.63,0,0,0,0,2.32l2.58,2.58A1.62,1.62,0,0,0,14.94,54ZM12.75,40.78l1.74-.45a1.67,1.67,0,0,0,1.16-2l-1-3.48a1.67,1.67,0,0,0-2-1.16l-1.74.45a22,22,0,0,1,0-4.12l1.74,0.45a1.62,1.62,0,0,0,2-1.16l1-3.48a1.62,1.62,0,0,0-1.16-2l-1.74-.45a22.56,22.56,0,0,1,2.06-3.61l1.29,1.29a1.63,1.63,0,0,0,2.32,0L21,18.48a1.63,1.63,0,0,0,0-2.32l-1.29-1.29a18.07,18.07,0,0,1,3.61-2.06l0.45,1.74a1.67,1.67,0,0,0,2,1.16l3.48-1a1.67,1.67,0,0,0,1.16-2L30,11a22,22,0,0,1,4.12,0l-0.45,1.8a1.62,1.62,0,0,0,1.16,2l3.48,1a1.62,1.62,0,0,0,2-1.16l0.45-1.8a12.91,12.91,0,0,1,1.87,1c0.58,0.32,1.16.71,1.74,1.1L43,16.16a1.63,1.63,0,0,0,0,2.32l2.58,2.58a1.63,1.63,0,0,0,2.32,0l1.29-1.29a21.88,21.88,0,0,1,2.06,3.61l-1.8.45a1.67,1.67,0,0,0-1.16,2l1,3.48a1.67,1.67,0,0,0,2,1.16L53,30a22,22,0,0,1,0,4.12l-1.68-.52a1.62,1.62,0,0,0-2,1.16l-1,3.48a1.62,1.62,0,0,0,1.16,2l1.74,0.45a28.86,28.86,0,0,1-2.06,3.61L47.94,43a1.63,1.63,0,0,0-2.32,0L43,45.62a1.63,1.63,0,0,0,0,2.32l1.29,1.29a21.88,21.88,0,0,1-3.61,2.06l-0.45-1.74a1.67,1.67,0,0,0-2-1.16l-3.48,1a1.67,1.67,0,0,0-1.16,2l0.45,1.74a22,22,0,0,1-4.12,0l0.45-1.74a1.62,1.62,0,0,0-1.16-2l-3.48-1a1.62,1.62,0,0,0-2,1.16l-0.45,1.74a9.72,9.72,0,0,1-1.8-1c-0.58-.32-1.16-0.71-1.74-1.1l1.29-1.29a1.63,1.63,0,0,0,0-2.32L18.48,43a1.63,1.63,0,0,0-2.32,0l-1.29,1.29A17.83,17.83,0,0,1,12.75,40.78Zm28.16-1.29-1.42,1.42a1.56,1.56,0,0,0,0,2.26l0.77,0.77a1.56,1.56,0,0,0,2.26,0l1.42-1.42a1.56,1.56,0,0,0,0-2.26l-0.77-.77A1.56,1.56,0,0,0,40.91,39.49Zm-4.25-4.25-1.42,1.42a1.56,1.56,0,0,0,0,2.26L36,39.69a1.56,1.56,0,0,0,2.26,0l1.42-1.42a1.56,1.56,0,0,0,0-2.26L39,35.24A1.76,1.76,0,0,0,36.66,35.24Zm-7.93,1.61,2.19-2.19,0.13,0.13,0.77,0.77a1.56,1.56,0,0,0,2.26,0l1.42-1.42a1.56,1.56,0,0,0,0-2.26l-0.77-.77L34.6,31l2.19-2.19a1.56,1.56,0,0,0,0-2.26l-4.7-4.7a1.56,1.56,0,0,0-2.26,0l-8.12,8a1.56,1.56,0,0,0,0,2.26l4.7,4.7A1.7,1.7,0,0,0,28.73,36.85Zm-4-5.54,6.57-6.57,2.51,2.51-6.57,6.57Z" transform="translate(-2.77 -2.77)"/></svg>