<?xml version="1.0" encoding="utf-8"?>
<!-- Generator: Adobe Illustrator 19.2.1, SVG Export Plug-In . SVG Version: 6.00 Build 0)  -->
<svg version="1.1" id="Calque_1" xmlns="http://www.w3.org/2000/svg" xmlns:xlink="http://www.w3.org/1999/xlink" x="0px" y="0px"
	 viewBox="0 0 499.6 260.2" style="enable-background:new 0 0 499.6 260.2;" xml:space="preserve">
<style type="text/css">
	.st0{fill:none;stroke:#F9F9FA;stroke-width:14;stroke-miterlimit:10;}
</style>
<path class="st0" d="M7,86.8C7,59.9,7,33.6,7,7.1c80.6,0,161.2,0,242.1,0c0.1,1.6,0.2,3.2,0.2,4.7c0,23.7,0,47.5,0.1,71.2
	c0,3.4-1.4,3.8-4.3,3.8c-23.5-0.1-47-0.1-70.5-0.1c-5.4,0-5.5,0.1-5.5,5.4c0,51.9,0,103.7,0,155.6c0,5.3,0,5.3-5.3,5.3
	c-23.9,0-47.7-0.1-71.6,0.1c-3.5,0-4.4-1-4.4-4.5C88,196.3,87.9,144,88,91.6c0-3.9-1.2-4.9-4.9-4.9c-23.6,0.1-47.2,0.1-70.8,0.1
	C10.7,86.8,9.1,86.8,7,86.8z"/>
<path class="st0" d="M492.5,169.7c0,1.8,0,3.1,0,4.5c0,24.7-0.1,49.5,0.1,74.2c0,3.9-1.1,4.7-4.8,4.7c-77.5-0.1-155-0.1-232.5,0
	c-3.6,0-4.7-1.1-4.7-4.7c0.1-52.1,0.1-104.2,0-156.4c0-2.9,0.5-4.2,3.8-4.2c23.6,0.1,47.2,0.1,70.9,0c3.3,0,4.5,0.8,4.4,4.4
	c-0.2,24,0,48-0.2,72c0,3.6,1,4.7,4.6,4.7c26.6-0.1,53.2-0.1,79.9,0c25,0.1,50,0.4,74.9,0.6C490,169.5,491,169.6,492.5,169.7z"/>
<path class="st0" d="M331.2,7C385,7,438.5,7,492.3,7c0.1,1.4,0.2,2.6,0.2,3.8c0,24-0.1,48,0.1,72c0,3.3-0.9,4.2-4.2,4.2
	c-51.1-0.1-102.2-0.1-153.3,0c-2.8,0-4.3-0.4-4.2-3.8c0.1-24.2,0.1-48.5,0.1-72.7C330.9,9.3,331.1,8.2,331.2,7z"/>
</svg>
