<?xml version="1.0" encoding="utf-8"?>
<!-- Generator: Adobe Illustrator 19.2.1, SVG Export Plug-In . SVG Version: 6.00 Build 0)  -->
<svg version="1.1" id="Calque_1" xmlns="http://www.w3.org/2000/svg" xmlns:xlink="http://www.w3.org/1999/xlink" x="0px" y="0px"
	 viewBox="0 0 1633 2042" style="enable-background:new 0 0 1633 2042;" xml:space="preserve">
<style type="text/css">
	.st0{fill:none;stroke:#F9F9F9;stroke-width:55;stroke-miterlimit:10;}
</style>
<path class="st0" d="M0,0 M1633,2042 M1570.4,1244.4c-5-1.7-7.5,0.2-9.3,5.2c-11.4,30.3-25.1,59.5-40.9,87.7
	c-68.1,121.6-165.6,210.6-294.2,265c-1.6,0.7-3.2,1.2-5.5,2.1c0-2.5,0-4.1,0-5.7c0-116.5,0-233-0.1-349.5c0-3.5,1-5.8,3.6-8.1
	c63.1-56.6,126.2-113.3,189.2-170c1.7-1.5,3.3-3.1,5.1-4.8c-1.4-1.3-2.3-2.2-3.3-3c-63.6-56.4-127.1-112.7-190.8-169
	c-2.8-2.5-3.8-4.9-3.8-8.5c0.1-78.8,0.1-157.7,0.1-236.5c0-1.9,0-3.9,0-5.9c7.5-0.8,14.2-1.4,21-2.3c52.3-6.5,101.5-22.4,145.4-51.8
	c97-65.1,143.2-156.6,138.4-273.4c-1.8-44-14-85.3-37-123c-30.6-50.1-74.4-85.1-126.9-110c-67.6-32-138.6-42.5-212.6-32.7
	c-11.3,1.5-22.5,4.2-33.4,6.3c0,4,0,7.1,0,10c5.4,0,10.6,0.4,15.7-0.1c27.7-2.5,55.2-2.7,82.4,4.5c26.9,7.2,50.7,19.3,67.8,42.1
	c33.2,44.2,22.7,110.8-22.7,145.5c-27.8,21.2-59.7,27.5-93.7,26.3c-44.3-1.6-87.6-9.9-130.3-21.3c-55.7-14.8-109.9-34.2-164.2-53.3
	c-63.7-22.3-127.5-44.6-193.2-60.8c-65.2-16.1-131.2-26.5-198.6-24.6c-66.9,1.8-130,18.1-188.4,51.1
	c-65.3,36.9-115.6,88.3-148.5,156.1c-31.9,65.7-38.1,134.5-22.9,205.5c9.8,45.9,31.5,85.3,66.7,116.9c26.6,23.9,57.4,40.9,90.1,54.7
	c11.7,5,23.7,9.6,36,14.5c1-3.9,1.8-7.1,2.3-8.9c-9.3-8.6-18.8-15.8-26.4-24.7c-32.9-38.6-38.3-103.1-11.8-147.8
	c28.3-47.7,72.2-70.9,126.2-76c29.8-2.8,59.6,0.8,89.1,5.1c46.5,6.8,92.3,17,137.3,30.5c73.8,22,147.3,45,220.8,67.9
	c71.8,22.3,143.6,44.8,217.4,59.7c36.4,7.4,73.1,12.9,110.4,13.6c9.3,0.2,18.6,0,28.4,0c0,2.6,0,4.6,0,6.5c0,79.5,0,159,0.1,238.5
	c0,4.1-1.3,6.7-4.3,9.3c-62.8,54.7-125.5,109.5-188.2,164.3c-1.7,1.5-3.4,3-5.3,4.6c1.9,1.8,3.4,3.2,4.8,4.5
	c62.8,56.5,125.6,112.9,188.5,169.3c3.3,2.9,4.5,5.9,4.5,10.3c-0.1,117.8-0.1,235.7,0,353.5c0,4.7-1.4,6.6-5.7,8.1
	c-52.4,18.3-106.2,30.2-161.4,35.9c-56,5.8-112,6.3-168.1,0.3c-52.9-5.6-104.4-16.9-154.1-36.2c-94.5-36.6-170.8-95.9-225.3-181.9
	c-47.6-75.1-70.8-158-78.7-245.8c-4.4-48.9-3.6-97.8,0.8-146.7c4.5-49.9,13.6-98.9,27.5-147c1-3.5,2.9-5.1,6-6.5
	c47.5-20.8,95.1-41.7,142.6-62.6c5.7-2.5,11.5-5,18-7.8c0,245.6,0,490.5,0,736c2.2-0.9,3.7-1.4,5.2-2.1
	c108.6-47.8,217.1-95.6,325.7-143.3c3.7-1.6,4.8-3.5,4.8-7.4c-0.1-247.7-0.1-495.3-0.1-743c0-1.7-0.2-3.4-0.3-5.9
	c-164.4,73.5-328,146.5-491.7,219.6c49.5-140.6,141.7-243,274-309.9c-0.4-1.4-0.7-2.5-1-3.6c-0.4-1.2-1-2.4-1.5-3.7
	c-1.9,0.4-3.5,0.6-5.1,1c-83.8,19-164,48.1-240.2,88.1c-86.1,45.1-163.7,101.7-230,173.1c-46.9,50.5-86,106.4-115.7,168.7
	c-45.1,94.5-63.9,194.2-59.5,298.6c2.1,50.6,9,100.5,21.7,149.5c30.9,120.1,90.1,224.3,176.2,313.3c62,64.1,133.7,114.9,213.7,154.1
	c95.4,46.7,196.3,73.8,302,83c58.1,5.1,116.1,4.3,174.1-1.6c60.9-6.2,120.3-18.7,178-39.2c117-41.6,214.3-110.6,288.8-210.4
	c79.4-106.4,120.3-227.8,136.8-358.3c3.9-30.5,5.4-61.3,7.5-92.1C1571.1,1267,1570.4,1255.7,1570.4,1244.4z"/>
</svg>
