<?xml version="1.0" encoding="utf-8"?>
<!-- Generator: Adobe Illustrator 19.2.1, SVG Export Plug-In . SVG Version: 6.00 Build 0)  -->
<svg version="1.1" id="Calque_1" xmlns="http://www.w3.org/2000/svg" xmlns:xlink="http://www.w3.org/1999/xlink" x="0px" y="0px"
	 viewBox="0 0 44.1 36.9" style="enable-background:new 0 0 44.1 36.9;" xml:space="preserve">
<style type="text/css">
	.st0{fill:#F9F9F9;}
</style>
<g>
	<path class="st0" d="M42.9,4.2c0.3-1.1,0-2.3-1-3c-0.5-0.4-1.1-0.6-1.8-0.6c-0.5,0-1,0.1-1.4,0.4c-0.9,0.5-1.8,0.9-2.8,1.2
		C34.1,0.8,31.8,0,29.4,0C24,0,19.5,4,18.8,9.3C14.5,8.3,10.5,6,7.7,2.5c-0.5-0.7-1.4-1-2.2-1c-0.1,0-0.1,0-0.2,0
		C4.4,1.5,3.5,2,3.1,2.8c-1,1.6-1.5,3.5-1.5,5.4c0,1.3,0.2,2.5,0.6,3.7c-0.5,0.5-0.7,1.2-0.7,1.9c0,2.8,1.1,5.4,2.8,7.3
		c-0.1,0.5-0.1,1,0.1,1.5c0.6,1.9,1.7,3.6,3.2,4.8c-0.9,0.2-1.9,0.3-2.9,0.3c-0.5,0-1,0-1.5-0.1c-0.1,0-0.2,0-0.3,0
		c-1.2,0-2.3,0.7-2.7,1.9c-0.4,1.2,0,2.6,1.1,3.3c4.1,2.6,8.8,4,13.6,4C30.6,36.9,40,24.3,40.1,12c1.3-1.1,2.4-2.3,3.3-3.7
		c0.4-0.5,0.6-1.1,0.6-1.7C44.1,5.6,43.6,4.7,42.9,4.2z M37.3,10.6c0,0.3,0,0.7,0,1C37.3,22,29.4,34,14.9,34
		c-4.4,0-8.6-1.3-12.1-3.5c0.6,0.1,1.2,0.1,1.9,0.1c3.7,0,7.1-1.3,9.8-3.4c-3.4-0.1-6.4-2.3-7.4-5.5c0.5,0.1,1,0.1,1.5,0.1
		c0.7,0,1.4-0.1,2.1-0.3c-3.6-0.7-6.3-3.9-6.3-7.7c0,0,0-0.1,0-0.1c1.1,0.6,2.3,0.9,3.6,1C5.8,13.4,4.4,11,4.4,8.2
		c0-1.4,0.4-2.8,1.1-4c3.9,4.8,9.7,7.9,16.2,8.2c-0.1-0.6-0.2-1.2-0.2-1.8c0-4.3,3.5-7.9,7.9-7.9c2.3,0,4.3,1,5.7,2.5
		c1.8-0.4,3.5-1,5-1.9c-0.6,1.8-1.8,3.4-3.5,4.4c1.6-0.2,3.1-0.6,4.5-1.2C40.2,8.1,38.8,9.5,37.3,10.6z"/>
</g>
</svg>
