<svg id="Calque_1" data-name="Calque 1" xmlns="http://www.w3.org/2000/svg" viewBox="0 0 57.86 52.85"><defs><style>.cls-1{fill:none;stroke:#fafafa;stroke-miterlimit:10;stroke-width:0.5px;}</style></defs><title>ventilo</title><path class="cls-1" d="M31.93,35.77A2.28,2.28,0,1,0,34.21,38,2.28,2.28,0,0,0,31.93,35.77Zm0,3.51A1.23,1.23,0,1,1,33.16,38,1.24,1.24,0,0,1,31.93,39.28Zm28.24,9.13a6.26,6.26,0,0,0-4.38-3.64l-0.43-.12c-1.36-.31-2.65-0.68-4-1.11a3.93,3.93,0,0,0,.12-0.43c0.06-.31.18-0.68,0.25-1.11a9.68,9.68,0,0,0,.18-1.48A15.16,15.16,0,0,0,52,38.79a10.72,10.72,0,0,0-.06-2,11.6,11.6,0,0,0-.31-2c-0.12-.68-0.31-1.42-0.49-2.1s-0.43-1.36-.74-2-0.55-1.17-.86-1.79-0.68-1.11-1-1.66a13,13,0,0,0-1-1.36,9,9,0,0,0-1-1.11,9.76,9.76,0,0,0-.8-0.8C45.31,23.5,45,23.25,45,23.25l0.68,0.68a4.74,4.74,0,0,1,.74.8,8.81,8.81,0,0,1,.92,1.11c0.31,0.43.62,0.92,1,1.42s0.62,1,.92,1.66,0.55,1.23.8,1.85a18.45,18.45,0,0,1,.62,2,11.77,11.77,0,0,1,.37,2c0.12,0.68.12,1.36,0.18,2a17.34,17.34,0,0,1-.06,1.85A12.47,12.47,0,0,1,51,40.27c-0.06.49-.18,1-0.25,1.36s-0.18.74-.25,1a2.57,2.57,0,0,1-.12.37A69.67,69.67,0,0,1,38.46,38V37.8a6.6,6.6,0,0,0-2.59-5.24A84.79,84.79,0,0,0,38.16,17c0.12-4.75-.62-7.89-2.34-9.68a5.53,5.53,0,0,0-4.07-1.6,6.09,6.09,0,0,0-5.06,2.4,6.22,6.22,0,0,0-.92,5.61l0.12,0.43c0.37,1.29.74,2.65,1,4a3.93,3.93,0,0,1-.43.12,5.81,5.81,0,0,0-1.11.37,6.29,6.29,0,0,0-1.36.55,9.21,9.21,0,0,0-1.54.8c-0.55.31-1.11,0.68-1.66,1s-1.11.8-1.66,1.29a17.47,17.47,0,0,0-1.54,1.48,15.62,15.62,0,0,0-1.36,1.6,17,17,0,0,0-1.17,1.73c-0.31.55-.68,1.11-0.92,1.66s-0.49,1-.68,1.6-0.37,1-.49,1.36-0.25.8-.31,1l-0.18.92s0.12-.37.25-0.92a9.51,9.51,0,0,1,.31-1c0.12-.43.31-0.86,0.49-1.36a11.52,11.52,0,0,1,.74-1.54,11.26,11.26,0,0,1,1-1.6,10.1,10.1,0,0,1,1.23-1.6,16.82,16.82,0,0,1,3-2.9,16.09,16.09,0,0,1,1.66-1.17c0.55-.31,1.11-0.68,1.66-0.92s1-.49,1.54-0.68,0.92-.31,1.29-0.49a9.51,9.51,0,0,1,1-.31c0.12-.06.31-0.06,0.43-0.12a68.77,68.77,0,0,1,1.54,12.83,6.69,6.69,0,0,0-3.39,4.93,81.33,81.33,0,0,0-14.61,5.8C6.52,45.2,4.18,47.42,3.5,49.82a5.42,5.42,0,0,0,.62,4.32,6.17,6.17,0,0,0,4.62,3.21c0.25,0,.49.06,0.74,0.06a6.51,6.51,0,0,0,4.62-2l0.31-.31c0.92-1,1.91-2,3-2.9a1.45,1.45,0,0,1,.31.31,3.57,3.57,0,0,0,.86.74c0.37,0.31.74,0.62,1.17,0.92a15.4,15.4,0,0,0,1.48,1,11.37,11.37,0,0,0,1.73.92c0.62,0.25,1.23.55,1.91,0.8s1.36,0.43,2,.62,1.42,0.31,2.1.37S30.39,58,31,58s1.29,0,1.91-.06l1.73-.18a8.11,8.11,0,0,0,1.42-.31c0.43-.12.8-0.18,1.11-0.31,0.62-.18.92-0.31,0.92-0.31a6.77,6.77,0,0,0-.92.25c-0.31.06-.68,0.18-1.11,0.25s-0.92.18-1.42,0.25a14.18,14.18,0,0,1-1.73.12c-0.62,0-1.23,0-1.91-.06s-1.36-.12-2-0.25-1.36-.31-2-0.43a18.53,18.53,0,0,1-2-.68c-0.62-.25-1.23-0.55-1.85-0.86a13.94,13.94,0,0,1-1.6-1c-0.49-.31-0.92-0.68-1.36-1a8,8,0,0,1-1-.92c-0.31-.25-0.55-0.55-0.8-0.74L18,51.49a71,71,0,0,1,10.36-7.77,6.63,6.63,0,0,0,3.45,1,6.52,6.52,0,0,0,2.47-.49A81.75,81.75,0,0,0,46.6,54c3.21,2,5.86,3,8,3a6.21,6.21,0,0,0,1.54-.18A5.44,5.44,0,0,0,59.55,54,5.64,5.64,0,0,0,60.17,48.41ZM26.93,14.12l-0.12-.43A5.41,5.41,0,0,1,27.55,9,5.13,5.13,0,0,1,31.8,7a4.41,4.41,0,0,1,3.33,1.29c1.48,1.54,2.22,4.56,2.1,8.94a83.31,83.31,0,0,1-2.16,15,6.8,6.8,0,0,0-3.14-.8,6.35,6.35,0,0,0-2.16.37A71.22,71.22,0,0,0,26.93,14.12ZM13.68,54.32l-0.31.31A5.05,5.05,0,0,1,8.93,56.3,5.26,5.26,0,0,1,5,53.59a4.55,4.55,0,0,1-.55-3.51c0.62-2.1,2.84-4.19,6.66-6.23a78.08,78.08,0,0,1,14.12-5.61A6.63,6.63,0,0,0,27.55,43,71.7,71.7,0,0,0,13.68,54.32ZM26.32,38a5.61,5.61,0,1,1,5.61,5.61A5.63,5.63,0,0,1,26.32,38ZM58.81,53.52A4.27,4.27,0,0,1,56,55.74c-2.1.55-5.06-.37-8.76-2.65a80,80,0,0,1-11.9-9.43,6.61,6.61,0,0,0,3-4.38,70.23,70.23,0,0,0,16.71,6.35l0.43,0.12a5.43,5.43,0,0,1,3.7,3A5.22,5.22,0,0,1,58.81,53.52Z" transform="translate(-3.04 -5.43)"/></svg>