<?xml version="1.0" encoding="utf-8"?>
<!-- Generator: Adobe Illustrator 19.2.1, SVG Export Plug-In . SVG Version: 6.00 Build 0)  -->
<svg version="1.1" id="Calque_1" xmlns="http://www.w3.org/2000/svg" xmlns:xlink="http://www.w3.org/1999/xlink" x="0px" y="0px"
	 viewBox="0 0 68.2 53.2" style="enable-background:new 0 0 68.2 53.2;" xml:space="preserve">
<style type="text/css">
	.st0{fill:#F9F9F9;}
</style>
<g>
	<g>
		<g>
			<path class="st0" d="M68.2,40.8c0-6.9-5.6-12.5-12.5-12.5c-0.2,0-0.5,0-0.7,0c-1.9-5.8-7.4-10-13.8-10c-8,0-14.6,6.5-14.6,14.6
				c0,0.2,0,0.4,0,0.6c-4.7,0.8-8.3,4.9-8.3,9.8c0,5.5,4.5,10,10,10h28.3v0C63.1,52.8,68.2,47.4,68.2,40.8"/>
		</g>
	</g>
	<rect x="23.3" class="st0" width="3.3" height="8.3"/>
	<rect y="23.3" class="st0" width="8.3" height="3.3"/>
	<rect x="8.6" y="6.1" transform="matrix(0.7067 -0.7075 0.7075 0.7067 -4.246 10.2587)" class="st0" width="3.3" height="8.3"/>
	<rect x="6.1" y="38" transform="matrix(0.708 -0.7062 0.7062 0.708 -25.0205 18.8232)" class="st0" width="8.3" height="3.3"/>
	<rect x="35.5" y="8.6" transform="matrix(0.7067 -0.7075 0.7075 0.7067 4.3814 31.0735)" class="st0" width="8.3" height="3.3"/>
	<path class="st0" d="M18.3,34.5c1.4-1.6,3.1-2.8,5.1-3.6c0.7-6.2,4.5-11.4,9.9-14.1c-2.1-2.2-5.1-3.5-8.3-3.5
		c-6.4,0-11.6,5.2-11.6,11.6C13.3,28.9,15.3,32.4,18.3,34.5"/>
</g>
</svg>
