<?xml version="1.0" encoding="utf-8"?>
<!-- Generator: Adobe Illustrator 19.2.1, SVG Export Plug-In . SVG Version: 6.00 Build 0)  -->
<svg version="1.1" id="Calque_1" xmlns="http://www.w3.org/2000/svg" xmlns:xlink="http://www.w3.org/1999/xlink" x="0px" y="0px"
	 viewBox="0 0 65.6 47" style="enable-background:new 0 0 65.6 47;" xml:space="preserve">
<style type="text/css">
	.st0{display:none;}
	.st1{display:inline;}
	.st2{fill:none;stroke:#F9F9F9;stroke-width:3;stroke-miterlimit:10;}
	.st3{fill:#192B2A;stroke:#F9BD00;stroke-width:1.4;stroke-miterlimit:10;}
</style>
<g class="st0">
	<g class="st1">
		<g>
			<g>
				<path d="M64.2,10.7c0,0-0.6-4.4-2.5-6.4c-2.4-2.6-5.2-2.6-6.4-2.7C46.2,1,32.8,1,32.8,1h0c0,0-13.4,0-22.4,0.6
					C9.2,1.8,6.4,1.8,4,4.4c-1.9,1.9-2.5,6.4-2.5,6.4s-0.7,5.2-0.7,10.4v4.9c0,5.2,0.6,10.4,0.6,10.4s0.6,4.4,2.5,6.3
					c2.4,2.5,5.6,2.5,7.1,2.7c5.1,0.5,21.8,0.6,21.8,0.6s13.5,0,22.4-0.7c1.2-0.2,4-0.2,6.4-2.7c1.9-1.9,2.5-6.3,2.5-6.3
					s0.7-5.2,0.7-10.4v-4.9C64.8,15.9,64.2,10.7,64.2,10.7z M26.2,31.8v-18l17.3,9L26.2,31.8z"/>
			</g>
		</g>
	</g>
</g>
<g class="st0">
	<g class="st1">
		<g>
			<g>
				<path d="M64.2,10.7c0,0-0.6-4.4-2.5-6.4c-2.4-2.6-5.2-2.6-6.4-2.7C46.2,1,32.8,1,32.8,1h0c0,0-13.4,0-22.4,0.6
					C9.2,1.8,6.4,1.8,4,4.4c-1.9,1.9-2.5,6.4-2.5,6.4s-0.7,5.2-0.7,10.4v4.9c0,5.2,0.6,10.4,0.6,10.4s0.6,4.4,2.5,6.3
					c2.4,2.5,5.6,2.5,7.1,2.7c5.1,0.5,21.8,0.6,21.8,0.6s13.5,0,22.4-0.7c1.2-0.2,4-0.2,6.4-2.7c1.9-1.9,2.5-6.3,2.5-6.3
					s0.7-5.2,0.7-10.4v-4.9C64.8,15.9,64.2,10.7,64.2,10.7z M26.2,31.8v-18l17.3,9L26.2,31.8z"/>
			</g>
		</g>
	</g>
</g>
<g>
	<g>
		<g>
			<g>
				<path class="st2" d="M63.5,11c0,0-0.6-4.3-2.5-6.2c-2.4-2.5-5-2.5-6.3-2.7C46,1.5,32.8,1.5,32.8,1.5h0c0,0-13.1,0-21.9,0.6
					C9.7,2.3,7,2.3,4.6,4.8C2.7,6.7,2.1,11,2.1,11S1.5,16,1.5,21.1v4.8C1.5,30.9,2.1,36,2.1,36s0.6,4.3,2.5,6.2
					c2.4,2.5,5.5,2.4,6.9,2.7c5,0.5,21.3,0.6,21.3,0.6s13.2,0,21.9-0.7c1.2-0.2,3.9-0.2,6.3-2.7c1.9-1.9,2.5-6.2,2.5-6.2
					s0.6-5.1,0.6-10.1v-4.8C64.1,16,63.5,11,63.5,11z M26.3,31.6V14l16.9,8.8L26.3,31.6z"/>
			</g>
		</g>
	</g>
</g>
<g class="st0">
	<g class="st1">
		<g>
			<g>
				<path class="st3" d="M63.5,11c0,0-0.6-4.3-2.5-6.2c-2.4-2.5-5-2.5-6.3-2.7C46,1.5,32.8,1.5,32.8,1.5h0c0,0-13.1,0-21.9,0.6
					C9.7,2.3,7,2.3,4.6,4.8C2.7,6.7,2.1,11,2.1,11S1.5,16,1.5,21.1v4.8C1.5,30.9,2.1,36,2.1,36s0.6,4.3,2.5,6.2
					c2.4,2.5,5.5,2.4,6.9,2.7c5,0.5,21.3,0.6,21.3,0.6s13.2,0,21.9-0.7c1.2-0.2,3.9-0.2,6.3-2.7c1.9-1.9,2.5-6.2,2.5-6.2
					s0.6-5.1,0.6-10.1v-4.8C64.1,16,63.5,11,63.5,11z M26.3,31.6V14l16.9,8.8L26.3,31.6z"/>
			</g>
		</g>
	</g>
</g>
<g class="st0">
	<g class="st1">
		<g>
			<g>
				<path d="M64.2,10.7c0,0-0.6-4.4-2.5-6.4c-2.4-2.6-5.2-2.6-6.4-2.7C46.2,1,32.8,1,32.8,1h0c0,0-13.4,0-22.4,0.6
					C9.2,1.8,6.4,1.8,4,4.4c-1.9,1.9-2.5,6.4-2.5,6.4s-0.7,5.2-0.7,10.4v4.9c0,5.2,0.6,10.4,0.6,10.4s0.6,4.4,2.5,6.3
					c2.4,2.5,5.6,2.5,7.1,2.7c5.1,0.5,21.8,0.6,21.8,0.6s13.5,0,22.4-0.7c1.2-0.2,4-0.2,6.4-2.7c1.9-1.9,2.5-6.3,2.5-6.3
					s0.7-5.2,0.7-10.4v-4.9C64.8,15.9,64.2,10.7,64.2,10.7z M26.2,31.8v-18l17.3,9L26.2,31.8z"/>
			</g>
		</g>
	</g>
</g>
</svg>
